<svg width="23" height="17" viewBox="0 0 23 17" fill="none" xmlns="http://www.w3.org/2000/svg">
<path d="M11.6333 11.1987C7.96771 11.1987 4.87482 11.7977 4.87482 14.1094C4.87482 16.4221 7.98768 17.0001 11.6333 17.0001C15.2989 17.0001 18.3918 16.4011 18.3918 14.0893C18.3918 11.7767 15.2789 11.1987 11.6333 11.1987Z" fill="#004AAD"/>
<path d="M11.6334 8.99622C14.1155 8.99622 16.1057 6.99451 16.1057 4.49811C16.1057 2.00075 14.1155 0 11.6334 0C9.15127 0 7.16101 2.00075 7.16101 4.49811C7.16101 6.99451 9.15127 8.99622 11.6334 8.99622Z" fill="#CCDBEF"/>
<path d="M21.3435 5.54546C21.9857 3.0194 20.1029 0.750732 17.7055 0.750732C17.4448 0.750732 17.1955 0.779438 16.952 0.828237C16.9196 0.835891 16.8835 0.852158 16.8645 0.880863C16.8426 0.917223 16.8587 0.966022 16.8825 0.997597C17.6027 2.01376 18.0166 3.25096 18.0166 4.57905C18.0166 5.85165 17.637 7.03813 16.971 8.02272C16.9025 8.12415 16.9634 8.26098 17.0842 8.28203C17.2517 8.31169 17.4229 8.327 17.598 8.33178C19.3437 8.37771 20.9106 7.24768 21.3435 5.54546Z" fill="#CCDBEF"/>
<path d="M22.745 11.6893C22.4253 11.0042 21.6538 10.5344 20.4808 10.3038C19.9271 10.1679 18.4287 9.97653 17.0349 10.0024C17.014 10.0052 17.0026 10.0196 17.0007 10.0292C16.9978 10.0426 17.0035 10.0655 17.0311 10.0799C17.6752 10.4004 20.1649 11.7945 19.8519 14.7349C19.8386 14.8622 19.9404 14.9722 20.0669 14.9531C20.6796 14.865 22.256 14.5244 22.745 13.4633C23.0152 12.9025 23.0152 12.2509 22.745 11.6893Z" fill="#004AAD"/>
<path d="M6.42265 0.828481C6.18005 0.778725 5.92984 0.750977 5.66917 0.750977C3.27173 0.750977 1.38897 3.01965 2.0321 5.54571C2.46402 7.24793 4.03092 8.37795 5.77667 8.33203C5.95172 8.32724 6.12392 8.31098 6.29041 8.28227C6.41123 8.26122 6.47212 8.12439 6.40362 8.02297C5.73767 7.03742 5.35807 5.85189 5.35807 4.5793C5.35807 3.25024 5.77287 2.01305 6.49305 0.997842C6.51588 0.966266 6.53301 0.917467 6.51017 0.881107C6.49115 0.851445 6.45595 0.836135 6.42265 0.828481Z" fill="#CCDBEF"/>
<path d="M2.46665 10.1072C1.29362 10.3378 0.523013 10.8076 0.203354 11.4927C-0.0677848 12.0544 -0.0677848 12.706 0.203354 13.2676C0.692356 14.3278 2.26877 14.6694 2.88145 14.7565C3.00798 14.7756 3.10882 14.6665 3.09551 14.5383C2.78251 11.5989 5.27223 10.2048 5.91725 9.88424C5.94389 9.86893 5.9496 9.84692 5.94675 9.83257C5.94484 9.823 5.93438 9.80865 5.91345 9.80673C4.51875 9.77994 3.0213 9.97131 2.46665 10.1072Z" fill="#004AAD"/>
</svg>
