<svg width="23" height="17" viewBox="0 0 23 17" fill="none" xmlns="http://www.w3.org/2000/svg">
<path d="M11.6333 11.1987C7.96764 11.1987 4.87476 11.7977 4.87476 14.1094C4.87476 16.4221 7.98762 17.0001 11.6333 17.0001C15.2989 17.0001 18.3918 16.4011 18.3918 14.0893C18.3918 11.7767 15.2789 11.1987 11.6333 11.1987Z" fill="#FFDC60"/>
<path d="M11.6333 8.99622C14.1154 8.99622 16.1056 6.99451 16.1056 4.49811C16.1056 2.00075 14.1154 0 11.6333 0C9.15115 0 7.16089 2.00075 7.16089 4.49811C7.16089 6.99451 9.15115 8.99622 11.6333 8.99622Z" fill="#CCDBEF"/>
<path d="M21.3434 5.54571C21.9855 3.01965 20.1028 0.750977 17.7053 0.750977C17.4447 0.750977 17.1954 0.779682 16.9519 0.828481C16.9195 0.836135 16.8834 0.852402 16.8643 0.881107C16.8424 0.917467 16.8586 0.966266 16.8824 0.997842C17.6026 2.01401 18.0164 3.2512 18.0164 4.5793C18.0164 5.8519 17.6368 7.03838 16.9709 8.02297C16.9024 8.12439 16.9633 8.26122 17.0841 8.28227C17.2515 8.31193 17.4228 8.32724 17.5978 8.33203C19.3436 8.37795 20.9105 7.24793 21.3434 5.54571Z" fill="#CCDBEF"/>
<path d="M22.745 11.6893C22.4253 11.0042 21.6538 10.5344 20.4808 10.3038C19.9271 10.1679 18.4287 9.97653 17.0349 10.0024C17.014 10.0052 17.0026 10.0196 17.0007 10.0292C16.9978 10.0426 17.0035 10.0655 17.0311 10.0799C17.6752 10.4004 20.1649 11.7945 19.8519 14.7349C19.8386 14.8622 19.9404 14.9722 20.0669 14.9531C20.6796 14.865 22.256 14.5244 22.745 13.4633C23.0152 12.9025 23.0152 12.2509 22.745 11.6893Z" fill="#0064E9"/>
<path d="M6.42265 0.828481C6.18005 0.778725 5.92984 0.750977 5.66917 0.750977C3.27173 0.750977 1.38897 3.01965 2.0321 5.54571C2.46402 7.24793 4.03092 8.37795 5.77667 8.33203C5.95172 8.32724 6.12392 8.31098 6.29041 8.28227C6.41123 8.26122 6.47212 8.12439 6.40362 8.02297C5.73767 7.03742 5.35807 5.85189 5.35807 4.5793C5.35807 3.25024 5.77287 2.01305 6.49305 0.997842C6.51588 0.966266 6.53301 0.917467 6.51017 0.881107C6.49115 0.851445 6.45595 0.836135 6.42265 0.828481Z" fill="#CCDBEF"/>
<path d="M2.46665 10.1072C1.29362 10.3378 0.523013 10.8076 0.203354 11.4927C-0.0677848 12.0544 -0.0677848 12.706 0.203354 13.2676C0.692356 14.3278 2.26877 14.6694 2.88145 14.7565C3.00798 14.7756 3.10882 14.6665 3.09551 14.5383C2.78251 11.5989 5.27223 10.2048 5.91725 9.88424C5.94389 9.86893 5.9496 9.84692 5.94675 9.83257C5.94484 9.823 5.93438 9.80865 5.91345 9.80673C4.51875 9.77994 3.0213 9.97131 2.46665 10.1072Z" fill="#0064E9"/>
</svg>
