<svg width="65" height="65" viewBox="0 0 65 65" fill="none" xmlns="http://www.w3.org/2000/svg">
<circle cx="32.5" cy="32.5" r="32.5" fill="white"/>
<path d="M25.4217 43.6028C25.4217 43.9178 25.1697 44.1698 24.8547 44.1698L17.2003 44.1701C16.8853 44.1701 16.6333 43.9181 16.6333 43.6031C16.6333 43.2881 16.8853 43.0361 17.2003 43.0361H24.854C25.1649 43.0358 25.4213 43.2878 25.4213 43.6028H25.4217ZM17.2009 37.8689H24.7158C25.0308 37.8689 25.2828 37.6168 25.2828 37.3019C25.2828 36.9869 25.0308 36.7348 24.7158 36.7348L17.2009 36.7346C16.8859 36.7346 16.6339 36.9866 16.6339 37.3016C16.6339 37.6168 16.8859 37.8689 17.2009 37.8689ZM26.3121 30.4334H17.2009C16.8859 30.4334 16.6339 30.6854 16.6339 31.0004C16.6339 31.3154 16.8859 31.5674 17.2009 31.5674H26.3121C26.6271 31.5674 26.8791 31.3154 26.8791 31.0004C26.8791 30.6898 26.6271 30.4334 26.3121 30.4334ZM17.2009 25.2665H30.6142C30.9292 25.2665 31.1812 25.0145 31.1812 24.6995C31.1812 24.3845 30.9292 24.1325 30.6142 24.1325L17.2009 24.1322C16.8859 24.1322 16.6339 24.3842 16.6339 24.6992C16.6339 25.0145 16.8859 25.2665 17.2009 25.2665ZM52.9999 38.898C52.9999 46.0771 47.1566 51.9205 39.9774 51.9205C38.7675 51.9205 37.5954 51.7526 36.4866 51.4458H16.1969C14.4325 51.4458 13 50.0091 13 48.2489V17.1969C13 15.4325 14.4367 14 16.1969 14H37.8181C39.5825 14 41.015 15.4367 41.015 17.1969V25.918C47.7153 26.4472 53 32.0679 53 38.8984L52.9999 38.898ZM30.0298 18.8603L32.2855 17.3732C32.4745 17.2472 32.7183 17.2472 32.9114 17.3732L35.1671 18.8603L35.1674 15.1301H30.0298L30.0298 18.8603ZM33.714 50.3114C29.6896 48.0936 26.9592 43.8086 26.9592 38.898C26.9592 31.7483 32.7479 25.9304 39.8849 25.8756V17.1965C39.8849 16.0581 38.9607 15.1298 37.8181 15.1298H36.3017V19.9146C36.3017 20.1247 36.1883 20.3137 36.0034 20.4145C35.9193 20.4608 35.827 20.4816 35.7344 20.4816C35.6252 20.4816 35.5161 20.4523 35.4236 20.3893L32.6005 18.5282L29.7775 20.3893C29.6052 20.5027 29.3785 20.5153 29.1979 20.4145C29.0131 20.3137 28.8996 20.1247 28.8996 19.9146V15.1298H16.1968C15.0584 15.1298 14.1301 16.054 14.1301 17.1965V48.244C14.1301 49.3824 15.0542 50.3107 16.1968 50.3107L33.714 50.3114ZM51.8696 38.898C51.8696 32.3408 46.5345 27.0098 39.9814 27.0098C33.4283 27.0098 28.0932 32.3449 28.0932 38.898C28.0932 45.4553 33.4283 50.7863 39.9814 50.7863C46.5348 50.7863 51.8696 45.4512 51.8696 38.898ZM50.7019 39.2804L49.3323 39.86C49.2274 39.9063 49.114 39.9271 49.0003 39.9271C48.8911 39.9271 48.782 39.906 48.681 39.8641C48.4835 39.7844 48.3323 39.6374 48.24 39.4524C47.9921 39.5911 47.9039 39.7381 47.7779 39.9397C47.5595 40.2884 47.3242 40.6119 46.7991 40.9354C46.904 41.137 46.967 41.3597 46.984 41.5906C47.0133 42.0316 46.8665 42.4559 46.5764 42.7835C46.2866 43.1155 45.8834 43.3127 45.4422 43.3379C45.4044 43.342 45.3707 43.342 45.3329 43.342C45.2658 43.342 45.2028 43.3379 45.1398 43.3294C45.0853 43.5984 44.9593 43.8545 44.7659 44.0728C44.4383 44.4426 43.9847 44.6316 43.5266 44.6316C43.4217 44.6316 43.3124 44.619 43.2072 44.5979C43.1442 44.8458 43.0223 45.0726 42.85 45.2701C42.5602 45.6021 42.157 45.7993 41.7158 45.8245C41.678 45.8286 41.6443 45.8286 41.6065 45.8286C41.489 45.8286 41.3712 45.816 41.2578 45.7908C41.1948 46.0302 41.0773 46.2529 40.9091 46.446C40.5897 46.8114 40.136 47.0004 39.6824 47.0004C39.3422 47.0004 38.9935 46.8955 38.6953 46.681C38.46 46.8322 38.1913 46.9204 37.9056 46.9415C37.8678 46.9456 37.8341 46.9456 37.7963 46.9456C37.3972 46.9456 37.0151 46.8029 36.7124 46.538C36.4056 46.269 36.221 45.908 36.1706 45.5297H36.1665C35.78 45.5297 35.3935 45.3952 35.0785 45.1221C34.7761 44.8575 34.5871 44.4962 34.5367 44.1013C34.1502 44.1013 33.7637 43.9668 33.4528 43.6937C33.1504 43.4291 32.9696 43.0763 32.911 42.7065H32.8817C32.4826 42.7065 32.1005 42.5638 31.7978 42.2989C31.113 41.6982 31.046 40.6565 31.6466 39.9717L32.1172 39.4381C32.0331 39.3918 31.8693 39.3288 31.5458 39.2658C31.4283 39.4211 31.2642 39.5304 31.0711 39.5767C31.004 39.5934 30.9325 39.6019 30.8654 39.6019C30.7142 39.6019 30.563 39.56 30.4285 39.48L29.1556 38.7114C28.9625 38.5939 28.8236 38.409 28.7691 38.1863C28.7146 37.9636 28.748 37.7368 28.8658 37.5437L32.6886 31.2132C32.8061 31.0201 32.991 30.8812 33.2137 30.8267C33.4364 30.7722 33.6632 30.8056 33.8563 30.9234L35.1292 31.692C35.3223 31.8095 35.4612 31.9944 35.5157 32.2171C35.5576 32.3809 35.5494 32.5491 35.4905 32.7044C36.1753 33.1246 36.7172 33.0783 37.2044 33.0405C37.532 33.0153 37.91 32.9816 38.2588 33.1372C38.5486 32.8978 38.8806 32.6414 39.2753 32.3854C39.292 32.3728 39.309 32.3643 39.3298 32.3561C40.2499 31.8899 41.2327 32.1208 42.2703 32.3687C43.2448 32.5996 44.2488 32.8393 45.3116 32.5325C45.2486 32.3435 45.257 32.1375 45.3326 31.9485C45.4167 31.7384 45.5805 31.5746 45.7906 31.4864L47.1603 30.9068C47.3703 30.8186 47.6012 30.8186 47.8114 30.9027C48.0215 30.9868 48.1852 31.1506 48.2734 31.3607L51.155 38.1743C51.3364 38.5957 51.1304 39.0956 50.702 39.2805L50.7019 39.2804ZM34.2978 32.5086L33.5082 32.0339L29.9751 37.8815L30.7648 38.3562L34.2978 32.5086ZM32.9156 41.5696C33.0542 41.5611 33.1802 41.4981 33.2684 41.3973L34.4194 40.091C34.5076 39.9902 34.5539 39.8557 34.5454 39.7171C34.5369 39.5785 34.4739 39.4525 34.3731 39.3643C34.2808 39.2802 34.1589 39.2383 34.0329 39.2383H33.9992C33.8606 39.2468 33.7346 39.3098 33.6464 39.4106L32.4954 40.7169C32.3064 40.9311 32.3275 41.2587 32.5417 41.4436C32.6425 41.5318 32.777 41.5778 32.9156 41.5696ZM34.197 42.8381C34.4112 43.0271 34.7388 43.006 34.9237 42.7918L35.5789 42.044L36.0747 41.4811C36.1629 41.3803 36.2092 41.2458 36.2007 41.1072C36.1922 40.9686 36.1292 40.8426 36.0284 40.7544C35.8142 40.5654 35.4866 40.5865 35.3017 40.8007C35.2932 40.8133 35.285 40.8259 35.2724 40.8344L34.1507 42.1073C33.9617 42.3256 33.9828 42.6491 34.197 42.8381ZM36.5494 44.2203L36.5579 44.2118L36.6798 44.0732L37.3394 43.3213C37.4276 43.2205 37.4739 43.086 37.4654 42.9474C37.4569 42.8088 37.3939 42.6828 37.2931 42.5946C37.2008 42.5105 37.0789 42.4686 36.9529 42.4686H36.9192C36.7806 42.4771 36.6546 42.5401 36.5664 42.6409L35.7723 43.544C35.6841 43.6448 35.6378 43.7793 35.6463 43.9179C35.6548 44.0565 35.7178 44.1825 35.8186 44.2707C36.0369 44.4556 36.3645 44.4345 36.5494 44.2203ZM38.1877 45.64L38.3096 45.5014C38.3978 45.4006 38.4441 45.2661 38.4356 45.1275C38.4271 44.9889 38.3641 44.8629 38.2633 44.7747C38.1666 44.6906 38.045 44.6487 37.9231 44.6487C37.7804 44.6487 37.6374 44.7076 37.5366 44.8251L37.4147 44.9637C37.2298 45.1779 37.2509 45.5014 37.461 45.6904C37.5618 45.7786 37.6963 45.8249 37.8349 45.8164C37.9691 45.8038 38.0954 45.7408 38.1877 45.64ZM40.1832 45.325C40.1747 45.1864 40.1117 45.0604 40.0109 44.9722L39.4061 44.4386C39.4984 44.6276 39.5532 44.8336 39.5658 45.0519C39.5825 45.3165 39.5365 45.5729 39.4357 45.8079C39.6499 45.9128 39.9063 45.875 40.0575 45.6986C40.1495 45.5981 40.1914 45.4636 40.1832 45.325ZM45.85 41.6578C45.8415 41.5192 45.7785 41.3932 45.6777 41.305L39.9479 36.2723C39.7882 36.1756 39.7252 36.2093 39.7044 36.2219C39.5573 36.306 39.4228 36.6295 39.4354 36.8519C39.4858 37.6164 39.0615 38.465 38.3474 39.0153C37.902 39.3599 37.4065 39.5363 36.9192 39.5363C36.7091 39.5363 36.5034 39.5026 36.3059 39.4355C36.1421 39.381 36.0117 39.2506 35.9531 39.0868C35.8942 38.923 35.9153 38.7381 36.012 38.591C36.3481 38.07 36.2681 37.5575 36.1799 36.9612C36.0539 36.1337 35.9027 35.1127 37.0074 34.1804C36.4612 34.2097 35.7515 34.1763 34.9196 33.6764L32.1596 38.2426C32.4579 38.3267 32.6932 38.4357 32.8696 38.5787C33.1512 38.2971 33.5207 38.1292 33.9239 38.104C34.3649 38.0747 34.7892 38.2215 35.1168 38.5116C35.411 38.7677 35.6 39.1164 35.6545 39.4987C36.0495 39.4902 36.4527 39.6248 36.7718 39.9063C37.1038 40.1961 37.301 40.5993 37.3262 41.0406C37.3347 41.154 37.3303 41.2633 37.3136 41.3726C37.5782 41.4315 37.8302 41.5575 38.0403 41.7424C38.3723 42.0322 38.5695 42.4354 38.5947 42.8767C38.6114 43.1328 38.5695 43.3851 38.4728 43.616C38.624 43.6705 38.7711 43.7461 38.9012 43.8469C38.8719 43.6831 38.9138 43.5067 39.0313 43.3722C39.237 43.1369 39.5942 43.1161 39.8295 43.3218L41.2577 44.5777C41.3585 44.6659 41.493 44.7122 41.6316 44.7037C41.7702 44.6952 41.8962 44.6322 41.9844 44.5314C42.0726 44.4306 42.1189 44.2961 42.1104 44.1575C42.1019 44.0189 42.0389 43.8929 41.9381 43.8047L39.6865 41.8262C39.4512 41.6205 39.4304 41.2633 39.6361 41.028C39.8418 40.7927 40.199 40.7675 40.4343 40.9776L43.1732 43.3848C43.3874 43.5738 43.715 43.5527 43.8999 43.3385C44.0889 43.1243 44.0678 42.7967 43.8536 42.6118L41.1988 40.2805C40.9635 40.0748 40.9383 39.7176 41.1484 39.4823C41.3541 39.247 41.7113 39.2218 41.9467 39.4319L44.9798 42.0993C45.0806 42.1875 45.2151 42.2338 45.3537 42.2253C45.4923 42.2168 45.6183 42.1538 45.7065 42.053C45.8122 41.9308 45.8582 41.7963 45.85 41.6577L45.85 41.6578ZM47.7907 38.402L45.7492 33.5713C44.3503 34.0123 43.0607 33.7099 42.0063 33.4579C41.1537 33.2563 40.41 33.0799 39.864 33.3404C39.2718 33.731 38.8349 34.1134 38.4525 34.4495C38.2425 34.6343 38.0408 34.8107 37.8434 34.9578C37.1082 35.5166 37.1797 35.9954 37.3015 36.7892C37.3687 37.2346 37.4486 37.7553 37.3352 38.3056C37.4779 38.2426 37.5957 38.1629 37.6628 38.1125C38.0704 37.7975 38.335 37.3103 38.3098 36.9237C38.272 36.3649 38.5492 35.5878 39.1333 35.2436C39.3853 35.0924 39.9063 34.9075 40.5659 35.3151C40.57 35.3192 40.5744 35.3192 40.5785 35.3236C40.5826 35.3277 40.5911 35.3321 40.5952 35.3321C40.6204 35.3488 40.6415 35.3657 40.6623 35.3825L46.0015 40.0746C46.514 39.8101 46.6567 39.5832 46.8164 39.3312C47.0347 38.9776 47.2615 38.671 47.7907 38.402ZM49.2611 38.9649C49.2567 38.9608 49.2567 38.9649 49.2611 38.9649V38.9649ZM49.996 38.3434L47.3368 32.0507L46.4883 32.4079L49.1474 38.7006L49.996 38.3434Z" fill="#0064E9"/>
</svg>
