<svg width="39" height="39" viewBox="0 0 39 39" fill="none" xmlns="http://www.w3.org/2000/svg">
<rect width="39" height="39" rx="19.5" fill="#EBF1F9"/>
<path d="M26 22.5C24.75 22.5 23.55 22.3 22.43 21.93C22.2542 21.874 22.0664 21.8667 21.8868 21.909C21.7072 21.9513 21.5424 22.0415 21.41 22.17L19.21 24.37C16.3712 22.9262 14.0638 20.6188 12.62 17.78L14.82 15.57C14.9524 15.4443 15.0463 15.2835 15.0906 15.1064C15.1349 14.9293 15.1277 14.7432 15.07 14.57C14.6907 13.4181 14.4982 12.2128 14.5 11C14.5 10.45 14.05 10 13.5 10H10C9.45 10 9 10.45 9 11C9 20.39 16.61 28 26 28C26.55 28 27 27.55 27 27V23.5C27 22.95 26.55 22.5 26 22.5ZM27 13H24V10H22V13H19V15H22V18H24V15H27V13Z" fill="#004AAD"/>
</svg>
