<svg width="593" height="416" viewBox="0 0 593 416" fill="none" xmlns="http://www.w3.org/2000/svg">
<g clip-path="url(#clip0_637_862)">
<path d="M500.687 288.496C500.073 287.817 499.615 287.012 499.346 286.138C499.077 285.263 499.002 284.34 499.128 283.433C499.254 282.527 499.578 281.659 500.075 280.891C500.573 280.123 501.233 279.473 502.009 278.988L497.045 257.302L507.873 261.352L510.927 281.325C511.656 282.682 511.861 284.26 511.505 285.759C511.148 287.258 510.254 288.574 508.992 289.458C507.73 290.342 506.188 290.732 504.657 290.555C503.126 290.378 501.714 289.645 500.687 288.496Z" fill="#FFB8B8"/>
<path d="M499.938 271.284L490.42 252.882L491.707 206.543L492.318 207.832C493.031 209.333 509.732 244.69 508.541 256.526L510.45 267.342L499.938 271.284Z" fill="#3F3D56"/>
<path d="M493.732 407.285H501.365L504.995 377.845L493.73 377.846L493.732 407.285Z" fill="#FFB8B8"/>
<path d="M491.785 404.793L506.816 404.793H506.817C509.357 404.793 511.794 405.802 513.59 407.598C515.386 409.395 516.396 411.831 516.396 414.371V414.682L491.785 414.684L491.785 404.793Z" fill="#2F2E41"/>
<path d="M418.319 401.484L425.672 403.529L437.058 376.139L426.205 373.121L418.319 401.484Z" fill="#FFB8B8"/>
<path d="M417.111 398.562L431.592 402.589L431.593 402.589C434.041 403.27 436.117 404.895 437.367 407.107C438.616 409.319 438.936 411.936 438.255 414.384L438.172 414.684L414.461 408.091L417.111 398.562Z" fill="#2F2E41"/>
<path d="M486.122 395.808L470.718 285.518L437.449 395.184L411.289 386.252L448.782 239.405L449.029 239.388L488.306 236.656L516.683 386.894L486.122 395.808Z" fill="#2F2E41"/>
<path d="M482.048 187.434C482.048 187.434 467.73 179.964 448.43 183.076C448.43 183.076 438.158 207.859 448.43 217.724L451.232 242.531C451.232 242.531 477.379 258.095 486.095 240.04L484.85 219.496C484.85 219.496 491.075 209.643 486.095 202.43C483.11 198.023 481.685 192.744 482.048 187.434Z" fill="#004AAD"/>
<path d="M483.862 300.268L486.376 248.117L479.263 186.079L479.589 186.029C488.92 184.623 491.912 200.697 492.035 201.382L508.275 293.201L483.862 300.268Z" fill="#3F3D56"/>
<path d="M452.2 300.811L423.49 297.621L423.497 297.308C423.599 293.057 426.07 193.124 432.994 186.047C439.959 178.927 453.103 182.008 453.659 182.143L453.936 182.21L451.574 224.496L452.2 300.811Z" fill="#3F3D56"/>
<path d="M457.488 241.084C456.618 241.369 455.696 241.46 454.788 241.351C453.879 241.242 453.005 240.935 452.228 240.451C451.451 239.967 450.79 239.319 450.29 238.553C449.791 237.786 449.465 236.919 449.337 236.012L427.505 231.735L435.607 223.488L455.096 228.814C456.633 228.7 458.158 229.153 459.383 230.088C460.608 231.023 461.447 232.374 461.742 233.887C462.037 235.399 461.766 236.967 460.982 238.294C460.198 239.62 458.955 240.613 457.488 241.084Z" fill="#FFB8B8"/>
<path d="M445.837 236.078L438.724 234.548C428.222 237.707 409.891 226.588 402.482 221.649C401.088 220.72 400.636 218.878 401.138 216.177C401.88 212.399 403.963 209.016 407.003 206.652L433.095 185.963L439.681 184.862L441.638 195.947L425.013 213.803L449.485 227.124L445.837 236.078Z" fill="#3F3D56"/>
<path d="M443.024 173.692V159.317C443.024 153.236 445.44 147.403 449.74 143.103C454.04 138.803 459.873 136.387 465.954 136.387C472.036 136.387 477.869 138.803 482.169 143.103C486.469 147.403 488.885 153.236 488.885 159.317V173.692C488.884 174.509 488.559 175.291 487.982 175.869C487.404 176.446 486.622 176.771 485.805 176.772H446.104C445.287 176.771 444.505 176.446 443.927 175.869C443.35 175.291 443.025 174.509 443.024 173.692Z" fill="#2F2E41"/>
<path d="M465.033 176.631C474.318 176.631 481.845 169.104 481.845 159.819C481.845 150.534 474.318 143.007 465.033 143.007C455.748 143.007 448.221 150.534 448.221 159.819C448.221 169.104 455.748 176.631 465.033 176.631Z" fill="#FFB8B8"/>
<path d="M447.76 159.754C447.599 159.569 447.48 159.351 447.411 159.115C447.342 158.88 447.324 158.633 447.359 158.39L449.35 144.522C449.39 144.24 449.499 143.972 449.668 143.743C449.837 143.513 450.061 143.33 450.319 143.208C460.484 138.451 470.792 138.445 480.957 143.19C481.226 143.318 481.458 143.514 481.63 143.758C481.801 144.002 481.906 144.287 481.935 144.584L483.264 158.47C483.287 158.707 483.26 158.947 483.184 159.173C483.109 159.399 482.987 159.608 482.827 159.784C482.667 159.961 482.471 160.102 482.253 160.198C482.035 160.294 481.799 160.344 481.561 160.344H478.189C477.864 160.343 477.545 160.25 477.271 160.075C476.996 159.901 476.777 159.651 476.638 159.357L475.183 156.239C475.089 156.037 474.932 155.872 474.735 155.767C474.539 155.662 474.313 155.624 474.093 155.659C473.873 155.694 473.67 155.799 473.515 155.959C473.36 156.119 473.262 156.325 473.234 156.546L472.947 158.845C472.895 159.259 472.693 159.639 472.381 159.915C472.068 160.191 471.666 160.344 471.249 160.344H449.053C448.808 160.344 448.565 160.292 448.342 160.19C448.119 160.088 447.92 159.939 447.76 159.754Z" fill="#2F2E41"/>
<path d="M377.157 28.1872H0V263.047H377.157V28.1872Z" fill="#E6E6E6"/>
<path d="M94.3678 73.4323H25.2914V118.332H94.3678V73.4323Z" fill="white"/>
<path d="M180.201 73.4323H111.124V118.332H180.201V73.4323Z" fill="white"/>
<path d="M266.033 73.4323H196.957V118.332H266.033V73.4323Z" fill="white"/>
<path d="M351.866 73.4323H282.79V118.332H351.866V73.4323Z" fill="white"/>
<path d="M94.3678 136.983H25.2914V181.882H94.3678V136.983Z" fill="white"/>
<path d="M180.201 136.983H111.124V181.882H180.201V136.983Z" fill="white"/>
<path d="M266.033 136.983H196.957V181.882H266.033V136.983Z" fill="white"/>
<path d="M351.866 136.983H282.79V181.882H351.866V136.983Z" fill="white"/>
<path d="M94.3678 200.533H25.2914V245.433H94.3678V200.533Z" fill="white"/>
<path d="M180.201 200.533H111.124V245.433H180.201V200.533Z" fill="white"/>
<path d="M266.033 200.533H196.957V245.433H266.033V200.533Z" fill="white"/>
<path d="M351.866 200.533H282.79V245.433H351.866V200.533Z" fill="white"/>
<path d="M98.7793 55.8178C104.502 55.8178 109.141 51.1788 109.141 45.4563C109.141 39.7338 104.502 35.0949 98.7793 35.0949C93.0568 35.0949 88.4178 39.7338 88.4178 45.4563C88.4178 51.1788 93.0568 55.8178 98.7793 55.8178Z" fill="white"/>
<path d="M270.089 55.8178C275.811 55.8178 280.45 51.1788 280.45 45.4563C280.45 39.7339 275.811 35.0949 270.089 35.0949C264.366 35.0949 259.727 39.7339 259.727 45.4563C259.727 51.1788 264.366 55.8178 270.089 55.8178Z" fill="white"/>
<path d="M102.924 0.556641H94.6347V48.2194H102.924V0.556641Z" fill="#E6E6E6"/>
<path d="M274.233 0.556641H265.944V48.2194H274.233V0.556641Z" fill="#E6E6E6"/>
<path d="M332.948 95.8821C332.945 99.6333 331.588 103.257 329.126 106.088C326.665 108.919 323.265 110.766 319.551 111.291C315.836 111.816 312.057 110.982 308.908 108.944C305.759 106.906 303.451 103.8 302.409 100.196C301.366 96.5929 301.659 92.7343 303.233 89.3295C304.808 85.9247 307.558 83.2024 310.979 81.6629C314.399 80.1233 318.261 79.8699 321.853 80.9492C325.446 82.0285 328.528 84.368 330.534 87.5378C332.114 90.0341 332.951 92.928 332.948 95.8821Z" fill="#004AAD"/>
<path d="M330.534 87.5378L315.158 102.911C314.192 101.415 308.807 94.4621 308.807 94.4621C309.497 93.7647 310.234 93.1147 311.011 92.5166L315.476 98.4695L328.734 85.2118C329.406 85.9285 330.009 86.7074 330.534 87.5378Z" fill="white"/>
<path d="M161.283 159.432C161.279 163.184 159.922 166.808 157.461 169.638C155 172.469 151.599 174.317 147.885 174.841C144.171 175.366 140.392 174.533 137.243 172.494C134.093 170.456 131.786 167.35 130.743 163.747C129.701 160.143 129.993 156.285 131.568 152.88C133.142 149.475 135.893 146.753 139.313 145.213C142.734 143.674 146.595 143.42 150.188 144.5C153.781 145.579 156.863 147.918 158.869 151.088C160.449 153.584 161.286 156.478 161.283 159.432Z" fill="#004AAD"/>
<path d="M158.869 151.088L143.492 166.462C142.526 164.966 137.142 158.012 137.142 158.012C137.832 157.315 138.568 156.665 139.346 156.067L143.811 162.02L157.068 148.762C157.741 149.479 158.344 150.258 158.869 151.088Z" fill="white"/>
<path d="M75.4503 159.432C75.4468 163.184 74.0896 166.808 71.6283 169.638C69.1669 172.469 65.7667 174.317 62.0523 174.841C58.338 175.366 54.559 174.533 51.4099 172.495C48.2607 170.456 45.9528 167.35 44.9103 163.747C43.8677 160.143 44.1606 156.285 45.7351 152.88C47.3095 149.475 50.0598 146.753 53.4805 145.213C56.9012 143.674 60.7626 143.42 64.3552 144.5C67.9478 145.579 71.0303 147.918 73.0362 151.088C74.6159 153.584 75.4531 156.478 75.4503 159.432Z" fill="#004AAD"/>
<path d="M73.0362 151.088L57.6598 166.462C56.6934 164.966 51.3092 158.012 51.3092 158.012C51.9993 157.315 52.7356 156.665 53.5132 156.067L57.9779 162.02L71.2356 148.762C71.9079 149.479 72.5108 150.258 73.0362 151.088Z" fill="white"/>
<path d="M592.316 415.183H331.522C331.341 415.183 331.167 415.111 331.038 414.983C330.91 414.854 330.838 414.68 330.838 414.499C330.838 414.317 330.91 414.143 331.038 414.015C331.167 413.886 331.341 413.814 331.522 413.814H592.316C592.497 413.814 592.671 413.886 592.8 414.015C592.928 414.143 593 414.317 593 414.499C593 414.68 592.928 414.854 592.8 414.983C592.671 415.111 592.497 415.183 592.316 415.183Z" fill="#3F3D56"/>
</g>
<defs>
<clipPath id="clip0_637_862">
<rect width="593" height="414.627" fill="white" transform="translate(0 0.556641)"/>
</clipPath>
</defs>
</svg>
