<svg width="24" height="25" viewBox="0 0 24 25" fill="none" xmlns="http://www.w3.org/2000/svg">
<path d="M21.09 7.48002C20.24 6.54002 18.82 6.07002 16.76 6.07002H16.52V6.03002C16.52 4.35002 16.52 2.27002 12.76 2.27002H11.24C7.48001 2.27002 7.48001 4.36002 7.48001 6.03002V6.08002H7.24001C5.17001 6.08002 3.76001 6.55002 2.91001 7.49002C1.92001 8.59002 1.95001 10.07 2.05001 11.08L2.06001 11.15L2.16001 12.2C2.17001 12.21 2.19001 12.23 2.21001 12.24C2.54001 12.46 2.88001 12.68 3.24001 12.88C3.38001 12.97 3.53001 13.05 3.68001 13.13C5.39001 14.07 7.27001 14.7 9.18001 15.01C9.27001 15.95 9.68001 17.05 11.87 17.05C14.06 17.05 14.49 15.96 14.56 14.99C16.6 14.66 18.57 13.95 20.35 12.91C20.41 12.88 20.45 12.85 20.5 12.82C20.96 12.56 21.39 12.28 21.81 11.97C21.83 11.96 21.85 11.94 21.86 11.92L21.9 11.56L21.95 11.09C21.96 11.03 21.96 10.98 21.97 10.91C22.05 9.90002 22.03 8.52002 21.09 7.48002ZM13.09 14.33C13.09 15.39 13.09 15.55 11.86 15.55C10.63 15.55 10.63 15.36 10.63 14.34V13.08H13.09V14.33ZM8.91001 6.07002V6.03002C8.91001 4.33002 8.91001 3.70002 11.24 3.70002H12.76C15.09 3.70002 15.09 4.34002 15.09 6.03002V6.08002H8.91001V6.07002Z" fill="#004AAD"/>
<path opacity="0.2" d="M20.5 12.7999C20.45 12.8299 20.4 12.8599 20.35 12.8899C18.57 13.9299 16.6 14.6299 14.56 14.9699C14.48 15.9299 14.06 17.0299 11.87 17.0299C9.68 17.0299 9.26 15.9399 9.18 14.9899C7.27 14.6899 5.39 14.0599 3.68 13.1099C3.53 13.0299 3.38 12.9499 3.24 12.8599C2.88 12.6599 2.54 12.4399 2.21 12.2199C2.19 12.2099 2.17 12.1899 2.16 12.1799L2.77 18.6899C2.98 20.6799 3.8 22.7299 8.2 22.7299H15.82C20.22 22.7299 21.04 20.6799 21.25 18.6799L21.88 11.8999C21.87 11.9199 21.85 11.9399 21.83 11.9499C21.4 12.2599 20.96 12.5499 20.5 12.7999Z" fill="#004AAD"/>
</svg>
