<svg width="24" height="24" viewBox="0 0 24 24" fill="none" xmlns="http://www.w3.org/2000/svg">
<path d="M20.5 6.66992H6.5C5.96957 6.66992 5.46086 6.88064 5.08579 7.25571C4.71071 7.63078 4.5 8.13949 4.5 8.66992V20.6699C4.5 21.2004 4.71071 21.7091 5.08579 22.0841C5.46086 22.4592 5.96957 22.6699 6.5 22.6699H20.5C21.0304 22.6699 21.5391 22.4592 21.9142 22.0841C22.2893 21.7091 22.5 21.2004 22.5 20.6699V8.66992C22.5 8.40728 22.4483 8.14721 22.3478 7.90455C22.2472 7.6619 22.0999 7.44143 21.9142 7.25571C21.7285 7.06999 21.508 6.92267 21.2654 6.82216C21.0227 6.72165 20.7626 6.66992 20.5 6.66992Z" fill="#F8E53F"/>
<path d="M21 8.33008V19.0001C21 19.5305 20.7893 20.0392 20.4142 20.4143C20.0391 20.7894 19.5304 21.0001 19 21.0001H5C4.46957 21.0001 3.96086 20.7894 3.58579 20.4143C3.21071 20.0392 3 19.5305 3 19.0001V8.33008" stroke="#040709" stroke-linecap="round" stroke-linejoin="round"/>
<path d="M10.5 13.5L3 11V7C3 6.46957 3.21071 5.96086 3.58579 5.58579C3.96086 5.21071 4.46957 5 5 5H19C19.5304 5 20.0391 5.21071 20.4142 5.58579C20.7893 5.96086 21 6.46957 21 7V11L13.5 13.5" stroke="#040709" stroke-linecap="round" stroke-linejoin="round"/>
<path d="M9 5V4C9 3.73478 9.10536 3.48043 9.29289 3.29289C9.48043 3.10536 9.73478 3 10 3H14C14.2652 3 14.5196 3.10536 14.7071 3.29289C14.8946 3.48043 15 3.73478 15 4V5" stroke="#040709" stroke-linecap="round" stroke-linejoin="round"/>
<path d="M13.5 12H10.5V15H13.5V12Z" stroke="#040709" stroke-linecap="round" stroke-linejoin="round"/>
</svg>
