<svg width="24" height="25" viewBox="0 0 24 25" fill="none" xmlns="http://www.w3.org/2000/svg">
<path opacity="0.4" d="M17.6107 0.5H6.4C2.31467 0.5 0 2.81467 0 6.9V18.1C0 22.1853 2.31467 24.5 6.4 24.5H17.6107C21.696 24.5 24 22.1853 24 18.1V6.9C24 2.81467 21.696 0.5 17.6107 0.5Z" fill="#CCDBEF"/>
<path d="M6.44244 9.34277C5.89844 9.34277 5.45044 9.79077 5.45044 10.3454V18.5908C5.45044 19.1348 5.89844 19.5828 6.44244 19.5828C6.99711 19.5828 7.44511 19.1348 7.44511 18.5908V10.3454C7.44511 9.79077 6.99711 9.34277 6.44244 9.34277Z" fill="#004AAD"/>
<path d="M12.0425 5.40674C11.4985 5.40674 11.0505 5.85474 11.0505 6.4094V18.5907C11.0505 19.1347 11.4985 19.5827 12.0425 19.5827C12.5971 19.5827 13.0451 19.1347 13.0451 18.5907V6.4094C13.0451 5.85474 12.5971 5.40674 12.0425 5.40674Z" fill="#004AAD"/>
<path d="M17.5679 13.6948C17.0132 13.6948 16.5652 14.1428 16.5652 14.6975V18.5908C16.5652 19.1348 17.0132 19.5828 17.5572 19.5828C18.1119 19.5828 18.5599 19.1348 18.5599 18.5908V14.6975C18.5599 14.1428 18.1119 13.6948 17.5679 13.6948Z" fill="#004AAD"/>
</svg>
