<svg width="21" height="20" viewBox="0 0 21 20" fill="none" xmlns="http://www.w3.org/2000/svg">
<g clip-path="url(#clip0_8_429)">
<rect x="21" y="20" width="21" height="20" rx="10" transform="rotate(-180 21 20)" fill="#F8F4FF"/>
<path d="M13.1016 8.49451C13.2006 8.39128 13.3343 8.33337 13.4736 8.33337C13.613 8.33337 13.7467 8.39128 13.8457 8.49451C13.8945 8.5452 13.9334 8.60562 13.9599 8.67226C13.9864 8.7389 14 8.81042 14 8.88266C14 8.9549 13.9864 9.02642 13.9599 9.09306C13.9334 9.1597 13.8945 9.22012 13.8457 9.27081L10.8724 12.3392C10.7732 12.4422 10.6394 12.5 10.5 12.5C10.3606 12.5 10.2268 12.4422 10.1276 12.3392L7.15434 9.27081C7.10546 9.22012 7.06664 9.1597 7.04014 9.09306C7.01365 9.02642 7 8.9549 7 8.88266C7 8.81042 7.01365 8.7389 7.04014 8.67226C7.06664 8.60562 7.10546 8.5452 7.15434 8.49451C7.25335 8.39128 7.38705 8.33337 7.52638 8.33337C7.66571 8.33337 7.7994 8.39128 7.89841 8.49451L10.5011 11.0109L13.1016 8.49451Z" fill="#004AAD"/>
</g>
<defs>
<clipPath id="clip0_8_429">
<rect width="21" height="20" fill="white"/>
</clipPath>
</defs>
</svg>
