<svg width="21" height="20" viewBox="0 0 21 20" fill="none" xmlns="http://www.w3.org/2000/svg">
<g clip-path="url(#clip0_8_454)">
<rect opacity="0.3" width="21" height="20" rx="10" fill="#8645FF"/>
<path d="M7.89841 11.5055C7.7994 11.6087 7.66571 11.6666 7.52638 11.6666C7.38705 11.6666 7.25335 11.6087 7.15434 11.5055C7.10546 11.4548 7.06664 11.3944 7.04014 11.3277C7.01365 11.2611 7 11.1896 7 11.1173C7 11.0451 7.01365 10.9736 7.04014 10.9069C7.06664 10.8403 7.10546 10.7799 7.15434 10.7292L10.1276 7.66084C10.2268 7.55775 10.3606 7.49996 10.5 7.49996C10.6394 7.49996 10.7732 7.55775 10.8724 7.66084L13.8457 10.7292C13.8945 10.7799 13.9334 10.8403 13.9599 10.9069C13.9864 10.9736 14 11.0451 14 11.1173C14 11.1896 13.9864 11.2611 13.9599 11.3277C13.9334 11.3944 13.8945 11.4548 13.8457 11.5055C13.7467 11.6087 13.613 11.6666 13.4736 11.6666C13.3343 11.6666 13.2006 11.6087 13.1016 11.5055L10.4989 8.98912L7.89841 11.5055Z" fill="#F6F5FA"/>
</g>
<defs>
<clipPath id="clip0_8_454">
<rect width="21" height="20" fill="white" transform="translate(21 20) rotate(180)"/>
</clipPath>
</defs>
</svg>
