<svg width="24" height="24" viewBox="0 0 24 24" fill="none" xmlns="http://www.w3.org/2000/svg">
<path d="M23 7V17.07C23 17.6004 22.7893 18.1091 22.4142 18.4842C22.0391 18.8593 21.5304 19.07 21 19.07L12.67 19H9.83C9.56679 18.9985 9.30586 19.0489 9.06219 19.1485C8.81851 19.248 8.59688 19.3946 8.41 19.58L5 23V7C5 6.46957 5.21071 5.96086 5.58579 5.58579C5.96086 5.21071 6.46957 5 7 5H21C21.5304 5 22.0391 5.21071 22.4142 5.58579C22.7893 5.96086 23 6.46957 23 7Z" fill="#C0FC72"/>
<path d="M7 7.29004H17" stroke="#040709" stroke-linecap="round" stroke-linejoin="round"/>
<path d="M7 10H13" stroke="#040709" stroke-linecap="round" stroke-linejoin="round"/>
<path d="M10.67 17H7.83C7.56609 16.9998 7.30474 17.0518 7.06103 17.1531C6.81732 17.2543 6.59606 17.4028 6.41 17.59L3 21V5C3 4.46957 3.21071 3.96086 3.58579 3.58579C3.96086 3.21071 4.46957 3 5 3H19C19.5304 3 20.0391 3.21071 20.4142 3.58579C20.7893 3.96086 21 4.46957 21 5V15.07C21 15.6004 20.7893 16.1091 20.4142 16.4842C20.0391 16.8593 19.5304 17.07 19 17.07L10.67 17Z" stroke="#040709" stroke-linecap="round" stroke-linejoin="round"/>
</svg>
