<svg width="24" height="25" viewBox="0 0 24 25" fill="none" xmlns="http://www.w3.org/2000/svg">
<path opacity="0.2" d="M16.19 2.5H7.81C4.17 2.5 2 4.67 2 8.31V16.68C2 20.33 4.17 22.5 7.81 22.5H16.18C19.82 22.5 21.99 20.33 21.99 16.69V8.31C22 4.67 19.83 2.5 16.19 2.5Z" fill="#004AAD"/>
<path d="M21.3 12.73H17.82C16.84 12.73 15.97 13.27 15.53 14.15L14.69 15.81C14.49 16.21 14.09 16.46 13.65 16.46H10.37C10.06 16.46 9.62 16.39 9.33 15.81L8.49 14.16C8.05 13.29 7.17 12.74 6.2 12.74H2.7C2.31 12.74 2 13.05 2 13.44V16.7C2 20.33 4.18 22.5 7.82 22.5H16.2C19.63 22.5 21.74 20.62 22 17.28V13.43C22 13.05 21.69 12.73 21.3 12.73Z" fill="#004AAD"/>
</svg>
