<svg width="18" height="15" viewBox="0 0 18 15" fill="none" xmlns="http://www.w3.org/2000/svg">
<path d="M12.711 14.6991L17.6825 9.988C18.1058 9.58683 18.1058 8.92851 17.6825 8.52734C17.2592 8.12618 16.5645 8.12618 16.1411 8.52734L13.0258 11.4898L13.0258 1.02863C13.0258 0.462884 12.5373 1.35933e-06 11.9403 1.38542e-06L1.08548 1.8599e-06C0.488466 1.886e-06 -6.35437e-07 0.462885 -6.10708e-07 1.02863C-5.85978e-07 1.59438 0.488466 2.05726 1.08548 2.05726L10.8548 2.05726L10.8548 11.4898L7.73948 8.52734C7.31615 8.12618 6.62144 8.12618 6.1981 8.52734C5.77476 8.92851 5.77476 9.58683 6.1981 9.988L11.1696 14.6991C11.5929 15.1003 12.2877 15.1003 12.711 14.6991Z" fill="black"/>
</svg>
