<svg width="65" height="65" viewBox="0 0 65 65" fill="none" xmlns="http://www.w3.org/2000/svg">
<circle cx="32.5" cy="32.5" r="32.5" fill="white"/>
<path d="M33.4295 12C32.6406 12 32.001 12.6396 32.001 13.4285C32.001 14.2174 32.6406 14.8571 33.4295 14.8571C42.1075 14.8571 49.1432 21.8923 49.1432 30.571C49.1432 31.3599 49.7828 31.9995 50.5717 31.9995C51.3605 31.9995 52.0002 31.3599 52.0002 30.571C52.0002 20.3149 43.6854 12 33.4295 12Z" fill="#FFDC60"/>
<path fill-rule="evenodd" clip-rule="evenodd" d="M22.2297 17.5933C20.4894 15.8637 17.667 15.8414 15.9213 17.5767C11.6109 21.8607 10.5933 28.6614 14.1813 33.7902C18.9611 40.6246 23.8903 45.603 30.2182 49.9302C35.3462 53.4375 42.0618 52.2704 46.2943 48.0636C48.0774 46.2913 48.2008 43.4061 46.3791 41.5953L42.436 37.6764C40.7371 35.988 38.0048 35.8996 36.2185 37.5048L34.3015 39.2271C33.7744 39.7009 33.0238 39.7708 32.4603 39.4299C28.7379 37.1777 26.6723 35.1053 24.4453 31.4645C24.1076 30.9129 24.1746 30.1789 24.6487 29.6572L26.3815 27.7522C28.002 25.9707 27.9117 23.2405 26.2087 21.548L22.2297 17.5933ZM17.9353 19.6031C18.5519 18.9903 19.5749 18.9829 20.2158 19.6197L24.1953 23.575C24.8285 24.2044 24.8467 25.1948 24.2686 25.8307L22.5359 27.7356C21.2521 29.1469 20.974 31.2651 22.0085 32.9561C24.4736 36.9857 26.8676 39.3859 30.982 41.8751C32.6742 42.899 34.7943 42.6264 36.2113 41.3531L38.128 39.6305C38.7734 39.0508 39.7845 39.07 40.4219 39.7036L44.365 43.6228C45.0771 44.3304 44.9524 45.3699 44.2805 46.0379C40.8767 49.4208 35.6678 50.1966 31.8312 47.573C25.8149 43.4583 21.1247 38.734 16.5224 32.1538C13.8137 28.2808 14.5046 23.0136 17.9354 19.6039L17.9353 19.6031Z" fill="#0064E9"/>
<path d="M33.4295 23.4282C32.6406 23.4282 32.001 24.0679 32.001 24.8568C32.001 25.6456 32.6406 26.2853 33.4295 26.2853C35.7964 26.2853 37.715 28.2039 37.715 30.5709C37.715 31.3598 38.3547 31.9994 39.1436 31.9994C39.9324 31.9994 40.5721 31.3598 40.5721 30.5709C40.5721 26.6262 37.3742 23.4282 33.4295 23.4282Z" fill="#FFDC60"/>
<path d="M32.001 19.1424C32.001 18.3535 32.6406 17.7139 33.4295 17.7139C40.5299 17.7139 46.2861 23.4701 46.2861 30.5707C46.2861 31.3596 45.6465 31.9992 44.8576 31.9992C44.0687 31.9992 43.4291 31.3596 43.4291 30.5707C43.4291 25.0479 38.9522 20.5709 33.4295 20.5709C32.6406 20.5709 32.001 19.9313 32.001 19.1424Z" fill="#FFDC60"/>
</svg>
