<svg width="166" height="166" viewBox="0 0 166 166" fill="none" xmlns="http://www.w3.org/2000/svg">
<g filter="url(#filter0_d_1221_891)">
<rect x="38" y="30" width="90" height="90" rx="6" fill="#0064E9"/>
</g>
<path d="M58.7777 79.7775C58.7777 80.9314 57.8426 81.8665 56.6891 81.8665C55.5352 81.8665 54.6001 80.9314 54.6001 79.7775C54.6001 78.624 55.5352 77.6885 56.6891 77.6885C57.8426 77.6885 58.7777 78.624 58.7777 79.7775Z" fill="#FFDC60"/>
<path d="M62.9554 88.1339C62.9554 89.2874 62.0198 90.2226 60.8664 90.2226C59.7125 90.2226 58.7773 89.2874 58.7773 88.1339C58.7773 86.9801 59.7125 86.0449 60.8664 86.0449C62.0198 86.0449 62.9554 86.9801 62.9554 88.1339Z" fill="#FFDC60"/>
<path d="M111 69.3332C111 70.4866 110.065 71.4222 108.911 71.4222C107.758 71.4222 106.823 70.4866 106.823 69.3332C106.823 68.1793 107.758 67.2441 108.911 67.2441C110.065 67.2441 111 68.1793 111 69.3332Z" fill="#FFDC60"/>
<path d="M106.822 60.9773C106.822 62.1312 105.887 63.0663 104.733 63.0663C103.58 63.0663 102.644 62.1311 102.644 60.9773C102.644 59.8238 103.58 58.8887 104.733 58.8887C105.887 58.8887 106.822 59.8238 106.822 60.9773Z" fill="#FFDC60"/>
<path d="M79.667 71.2132C79.809 72.314 80.6592 73.1901 81.7556 73.3647V69.0615C80.6591 69.2358 79.809 70.112 79.667 71.2131V71.2132Z" fill="white"/>
<path d="M99.5117 74.5553C99.5117 65.3261 92.0297 57.8438 82.8001 57.8438C73.5706 57.8438 66.0886 65.3257 66.0886 74.5553C66.0886 83.7848 73.5706 91.2668 82.8001 91.2668C92.0246 91.2546 99.4986 83.7801 99.5117 74.5553ZM91.6576 64.2149C92.0679 63.8077 92.73 63.8077 93.1408 64.2149C94.4697 65.5521 95.5332 67.1294 96.2739 68.8627C97.8059 72.503 97.8059 76.6071 96.2739 80.2474C96.111 80.6334 95.7322 80.8844 95.3132 80.8844C95.1731 80.8828 95.035 80.8545 94.9056 80.801C94.6507 80.6932 94.4488 80.4882 94.345 80.2317C94.2411 79.9748 94.2439 79.6876 94.3521 79.4327C95.6614 76.3129 95.6614 72.7973 94.3521 69.6776C93.7151 68.1921 92.8005 66.8415 91.6576 65.6982C91.2504 65.2878 91.2504 64.6257 91.6576 64.2149ZM88.0228 71.213C88.0228 71.7897 87.555 72.2571 86.9783 72.2571C86.4015 72.2571 85.9338 71.7897 85.9338 71.213C85.7917 70.1118 84.9416 69.2356 83.8452 69.0614V73.5944C86.0955 73.8288 87.8548 75.6409 88.0228 77.8972C87.8548 80.1534 86.0954 81.9658 83.8452 82.2004V82.9109C83.8452 83.4877 83.3774 83.955 82.8006 83.955C82.2239 83.955 81.7561 83.4876 81.7561 82.9109V82.2004C79.5058 81.9659 77.7465 80.1535 77.5785 77.8972C77.5785 77.3204 78.0463 76.8531 78.623 76.8531C79.1998 76.8531 79.6675 77.3204 79.6675 77.8972C79.8096 78.9984 80.6597 79.8745 81.7561 80.0487V75.5158C79.5058 75.2813 77.7465 73.4693 77.5785 71.213C77.7465 68.9568 79.5059 67.1443 81.7561 66.9097V66.1992C81.7561 65.6225 82.2239 65.1551 82.8006 65.1551C83.3774 65.1551 83.8452 65.6225 83.8452 66.1992V66.9097C86.0955 67.1442 87.8548 68.9567 88.0228 71.213ZM70.2669 74.5551C70.2669 75.1318 69.7995 75.5996 69.2223 75.5996C68.6456 75.5996 68.1782 75.1318 68.1782 74.5551C68.1747 72.5998 68.5654 70.6638 69.327 68.8627C70.8129 65.3577 73.603 62.5677 77.108 61.0817C78.909 60.3201 80.845 59.9294 82.8003 59.933C83.3771 59.933 83.8449 60.4003 83.8449 60.9771C83.8449 61.5542 83.3771 62.0216 82.8003 62.0216C81.1252 62.0204 79.4669 62.354 77.9228 63.0035C74.9242 64.2893 72.5345 66.6788 71.2488 69.6775C70.5993 71.2216 70.2657 72.8799 70.2669 74.5551ZM72.4601 84.8954C72.0537 84.4851 72.0549 83.8237 72.4633 83.4154C72.8716 83.0066 73.5333 83.0055 73.9433 83.4123C77.5399 87.0345 82.9792 88.1017 87.6777 86.1068C87.9326 85.9986 88.2198 85.9958 88.4767 86.0997C88.7332 86.2035 88.9382 86.4054 89.046 86.6603C89.2631 87.191 89.0176 87.7985 88.4924 88.0286C84.8521 89.5606 80.748 89.5606 77.1077 88.0286C75.3743 87.2878 73.7971 86.2244 72.4599 84.8955L72.4601 84.8954Z" fill="white"/>
<path d="M83.8445 80.0502C84.941 79.8759 85.7911 78.9997 85.9331 77.8986C85.7911 76.7978 84.9409 75.9217 83.8445 75.7471V80.0502Z" fill="white"/>
<path d="M83.8446 51.5777V51.7134L87.3223 49.395L83.8339 46.4912C83.7682 47.0117 83.3244 47.4012 82.7999 47.4C68.7986 47.3398 57.0685 57.982 55.7692 71.9239C55.7307 72.3217 55.8637 72.7167 56.1351 73.0101C56.4227 73.33 56.8326 73.5121 57.263 73.5113H57.409C58.1958 73.4964 58.8425 72.8858 58.9028 72.1013C60.1259 59.8313 70.4688 50.4961 82.7992 50.5334C83.3752 50.5353 83.8418 51.0019 83.8438 51.5779L83.8446 51.5777Z" fill="white"/>
<path d="M108.421 75.5998H108.274C107.488 75.6147 106.841 76.2249 106.781 77.0098C105.558 89.2798 95.2151 98.615 82.8836 98.5778C82.3076 98.5758 81.841 98.1092 81.8395 97.5332V97.3975L78.3613 99.716L81.8498 102.62C81.9159 102.099 82.3592 101.71 82.8837 101.711C96.886 101.771 108.615 91.1289 109.914 77.187C109.953 76.7893 109.82 76.3943 109.549 76.1008C109.261 75.781 108.851 75.5988 108.421 75.5996L108.421 75.5998Z" fill="white"/>
<defs>
<filter id="filter0_d_1221_891" x="0" y="0" width="166" height="166" filterUnits="userSpaceOnUse" color-interpolation-filters="sRGB">
<feFlood flood-opacity="0" result="BackgroundImageFix"/>
<feColorMatrix in="SourceAlpha" type="matrix" values="0 0 0 0 0 0 0 0 0 0 0 0 0 0 0 0 0 0 127 0" result="hardAlpha"/>
<feMorphology radius="2" operator="erode" in="SourceAlpha" result="effect1_dropShadow_1221_891"/>
<feOffset dy="8"/>
<feGaussianBlur stdDeviation="20"/>
<feColorMatrix type="matrix" values="0 0 0 0 0.0235294 0 0 0 0 0.0470588 0 0 0 0 0.231373 0 0 0 0.08 0"/>
<feBlend mode="normal" in2="BackgroundImageFix" result="effect1_dropShadow_1221_891"/>
<feBlend mode="normal" in="SourceGraphic" in2="effect1_dropShadow_1221_891" result="shape"/>
</filter>
</defs>
</svg>
