<svg width="166" height="166" viewBox="0 0 166 166" fill="none" xmlns="http://www.w3.org/2000/svg">
<g filter="url(#filter0_d_1221_889)">
<rect x="38" y="30" width="90" height="90" rx="6" fill="#0064E9"/>
</g>
<path d="M83.8398 80.6914C75.4304 80.6914 68.335 82.0655 68.335 87.3689C68.335 92.6745 75.4762 94.0003 83.8398 94.0003C92.2491 94.0003 99.3445 92.6262 99.3445 87.3228C99.3445 82.0173 92.2033 80.6914 83.8398 80.6914Z" fill="#FFDC60"/>
<path d="M83.8397 75.6384C89.534 75.6384 94.0999 71.0462 94.0999 65.3192C94.0999 59.59 89.534 55 83.8397 55C78.1455 55 73.5796 59.59 73.5796 65.3192C73.5796 71.0462 78.1455 75.6384 83.8397 75.6384Z" fill="white" fill-opacity="0.5"/>
<path d="M106.116 67.7223C107.589 61.9273 103.27 56.7227 97.7697 56.7227C97.1717 56.7227 96.5999 56.7885 96.0411 56.9005C95.9669 56.918 95.884 56.9553 95.8403 57.0212C95.7901 57.1046 95.8272 57.2166 95.8818 57.289C97.534 59.6202 98.4834 62.4585 98.4834 65.5053C98.4834 68.4248 97.6126 71.1467 96.0848 73.4055C95.9276 73.6381 96.0673 73.952 96.3445 74.0003C96.7286 74.0684 97.1215 74.1035 97.5231 74.1145C101.528 74.2198 105.123 71.6274 106.116 67.7223Z" fill="white" fill-opacity="0.5"/>
<path d="M109.331 81.8168C108.598 80.2451 106.828 79.1673 104.137 78.6383C102.867 78.3266 99.4291 77.8876 96.2317 77.9468C96.1837 77.9534 96.1575 77.9863 96.1531 78.0083C96.1466 78.039 96.1597 78.0917 96.223 78.1246C97.7006 78.86 103.412 82.0583 102.694 88.8038C102.664 89.0958 102.897 89.3482 103.187 89.3043C104.593 89.1024 108.209 88.3209 109.331 85.8865C109.951 84.6002 109.951 83.1053 109.331 81.8168Z" fill="white"/>
<path d="M71.886 56.9005C71.3294 56.7863 70.7554 56.7227 70.1574 56.7227C64.6574 56.7227 60.3382 61.9273 61.8136 67.7223C62.8044 71.6274 66.3991 74.2198 70.404 74.1145C70.8056 74.1035 71.2007 74.0662 71.5826 74.0003C71.8598 73.952 71.9995 73.6381 71.8423 73.4055C70.3146 71.1445 69.4437 68.4248 69.4437 65.5053C69.4437 62.4563 70.3953 59.618 72.0475 57.289C72.0999 57.2166 72.1392 57.1046 72.0868 57.0212C72.0431 56.9531 71.9624 56.918 71.886 56.9005Z" fill="white" fill-opacity="0.5"/>
<path d="M62.8104 78.1873C60.1193 78.7163 58.3515 79.7941 57.6181 81.3658C56.9961 82.6543 56.9961 84.1492 57.6181 85.4377C58.74 87.8699 62.3564 88.6535 63.762 88.8533C64.0523 88.8972 64.2836 88.6469 64.2531 88.3528C63.535 81.6094 69.2467 78.4112 70.7265 77.6758C70.7876 77.6407 70.8007 77.5902 70.7941 77.5573C70.7898 77.5353 70.7658 77.5024 70.7178 77.498C67.5181 77.4365 64.0828 77.8756 62.8104 78.1873Z" fill="white"/>
<defs>
<filter id="filter0_d_1221_889" x="0" y="0" width="166" height="166" filterUnits="userSpaceOnUse" color-interpolation-filters="sRGB">
<feFlood flood-opacity="0" result="BackgroundImageFix"/>
<feColorMatrix in="SourceAlpha" type="matrix" values="0 0 0 0 0 0 0 0 0 0 0 0 0 0 0 0 0 0 127 0" result="hardAlpha"/>
<feMorphology radius="2" operator="erode" in="SourceAlpha" result="effect1_dropShadow_1221_889"/>
<feOffset dy="8"/>
<feGaussianBlur stdDeviation="20"/>
<feColorMatrix type="matrix" values="0 0 0 0 0.0235294 0 0 0 0 0.0470588 0 0 0 0 0.231373 0 0 0 0.08 0"/>
<feBlend mode="normal" in2="BackgroundImageFix" result="effect1_dropShadow_1221_889"/>
<feBlend mode="normal" in="SourceGraphic" in2="effect1_dropShadow_1221_889" result="shape"/>
</filter>
</defs>
</svg>
