<svg width="166" height="166" viewBox="0 0 166 166" fill="none" xmlns="http://www.w3.org/2000/svg">
<g filter="url(#filter0_d_1221_890)">
<rect x="38" y="30" width="90" height="90" rx="6" fill="#0064E9"/>
</g>
<path d="M61.5274 84.0115C62.2361 82.5596 63.1627 81.2264 64.2749 80.0593C61.1234 79.3357 58.7319 78.2011 57.3672 76.833V80.2296C57.3672 81.5815 58.9107 82.9752 61.5274 84.0115Z" fill="white"/>
<path d="M65.4229 78.9714C69.3657 75.5902 74.724 74.4171 79.7028 75.8452C81.2084 74.5739 83.6359 73.5641 86.5672 72.9303V70.6934C85.7426 71.5184 84.5376 72.2625 82.9882 72.8875C80.0339 74.0783 76.1202 74.7345 71.9678 74.7345C67.8154 74.7345 63.9012 74.0783 60.9474 72.8875C59.398 72.263 58.1929 71.5185 57.3684 70.6934V74.083C57.367 76.0747 60.591 78.0221 65.4226 78.9714H65.4229Z" fill="white"/>
<path d="M93.8858 85.7842H93.7118C92.4879 85.7838 91.2644 85.7191 90.0474 85.5907C90.612 87.1701 90.9195 88.8313 90.9569 90.5099C91.9297 90.5894 92.9117 90.6313 93.884 90.6271C97.8785 90.6271 101.621 90.004 104.426 88.8732C107.006 87.8331 108.485 86.4692 108.485 85.1318V81.7432C107.661 82.5682 106.456 83.3123 104.906 83.9373C101.952 85.1281 98.0383 85.7842 93.8858 85.7842Z" fill="#FFDC60"/>
<path d="M61.4256 71.6779C64.2308 72.8087 67.9742 73.4318 71.966 73.4318C75.9576 73.4318 79.7015 72.8092 82.5063 71.6779C85.0857 70.6378 86.5655 69.2743 86.5655 67.9365V64.5469C85.7409 65.3719 84.5359 66.1165 82.9865 66.741C80.0322 67.9318 76.1185 68.588 71.9661 68.588C67.8137 68.588 63.8995 67.9323 60.9457 66.7415C59.3963 66.117 58.1912 65.3724 57.3667 64.5474V67.9365C57.3667 69.2739 58.846 70.6379 61.4259 71.6779H61.4256Z" fill="white"/>
<path d="M61.4256 59.3839C64.2308 60.5147 67.9737 61.1379 71.966 61.1379C75.9581 61.1379 79.7015 60.5152 82.5063 59.3839C85.0857 58.3439 86.5655 56.9804 86.5655 55.6425V52.2529C85.7409 53.078 84.5359 53.8221 82.9865 54.4471C80.0322 55.6379 76.1185 56.294 71.9661 56.294C67.8137 56.294 63.8995 55.6379 60.9457 54.4471C59.3963 53.8226 58.1912 53.078 57.3667 52.2529V55.6421C57.3667 56.9804 58.846 58.3439 61.4259 59.3839H61.4256Z" fill="white"/>
<path d="M104.426 75.2452C101.621 74.1144 97.8777 73.4912 93.8859 73.4912C88.6703 73.4912 83.7944 74.616 81.1851 76.3564C84.8323 77.8292 87.7941 80.6353 89.4783 84.2134C90.9391 84.3986 92.4105 84.4884 93.8829 84.4823C97.8783 84.4823 101.622 83.8592 104.426 82.7284C107.006 81.6883 108.486 80.3243 108.486 78.987C108.486 77.6495 107.006 76.2851 104.426 75.2451L104.426 75.2452Z" fill="#FFDC60"/>
<path d="M61.4256 53.2367C64.2308 54.3675 67.9737 54.9907 71.966 54.9907C75.9581 54.9907 79.7015 54.368 82.5063 53.2367C85.0857 52.1967 86.5655 50.8332 86.5655 49.4953C86.5655 48.1575 85.0857 46.7939 82.5063 45.7539C79.7011 44.6231 75.9578 44 71.966 44C67.9738 44 64.2304 44.6231 61.4256 45.7539C58.8462 46.794 57.3665 48.158 57.3665 49.4953C57.3665 50.8332 58.8457 52.1967 61.4256 53.2367ZM63.8449 46.9898C66.1719 46.322 69.056 45.9544 71.9655 45.9544C72.3228 45.9544 72.6119 46.2462 72.6119 46.6059C72.6119 46.9656 72.3228 47.2574 71.9655 47.2574C69.1723 47.2574 66.4137 47.6073 64.1985 48.243C63.856 48.3393 63.5009 48.1383 63.4035 47.7939C63.3061 47.4491 63.5032 47.0898 63.8449 46.9898ZM59.4783 49.223C59.6371 49.0276 60.0342 48.6274 60.9114 48.1466V48.1471C61.0623 48.0587 61.2419 48.0359 61.41 48.0834C61.5781 48.1308 61.7198 48.2448 61.8034 48.3989C61.8865 48.5534 61.9045 48.7353 61.8528 48.9033C61.801 49.0713 61.6842 49.2109 61.5291 49.2909C60.7655 49.7097 60.5055 50.0146 60.4783 50.0481C60.2502 50.318 59.8495 50.3543 59.5776 50.1295C59.3052 49.9052 59.2608 49.5022 59.4783 49.223Z" fill="white"/>
<path d="M61.4256 65.5309C64.2308 66.6617 67.9737 67.2843 71.966 67.2843C75.9581 67.2843 79.7015 66.6617 82.5063 65.5304C85.0857 64.4903 86.5655 63.1268 86.5655 61.789V58.3994C85.7409 59.2245 84.5359 59.9691 82.9865 60.5935C80.0327 61.7844 76.1185 62.4405 71.9661 62.4405C67.8132 62.4405 63.8995 61.7844 60.9457 60.5935C59.3963 59.969 58.1912 59.2245 57.3667 58.3994V61.789C57.3667 63.1273 58.846 64.4913 61.4259 65.5309H61.4256Z" fill="white"/>
<path d="M88.6418 91.5307C88.2849 91.5307 87.9954 91.2389 87.9954 90.8792C87.9954 90.5194 88.2849 90.2277 88.6418 90.2277H89.6533C89.5047 86.8808 88.1926 83.6936 85.9474 81.2241L85.2364 81.9407C84.983 82.1897 84.5781 82.1869 84.3278 81.9347C84.0781 81.6825 84.0753 81.2748 84.3223 81.0193L85.0333 80.3027C82.5832 78.0392 79.4211 76.7171 76.1006 76.5674V77.587C76.1006 77.9467 75.8111 78.2385 75.4542 78.2385C75.0973 78.2385 74.8079 77.9467 74.8079 77.587V76.5674C71.4874 76.7172 68.3253 78.0392 65.8752 80.3027L66.5862 81.0193C66.8369 81.2739 66.8359 81.6852 66.5843 81.9389C66.3327 82.1925 65.925 82.1934 65.672 81.9407L64.961 81.2241C62.7154 83.6937 61.4037 86.8808 61.2551 90.2277H62.2667C62.6236 90.2277 62.913 90.5194 62.913 90.8792C62.913 91.2389 62.6236 91.5307 62.2667 91.5307H61.2561C61.4047 94.877 62.7168 98.0647 64.9624 100.534L65.6734 99.8176C65.9264 99.5687 66.3313 99.571 66.5816 99.8232C66.8318 100.075 66.8341 100.484 66.5876 100.739L65.8766 101.455C68.3267 103.719 71.4888 105.041 74.8092 105.191V104.171C74.8092 103.812 75.0983 103.52 75.4556 103.52C75.8125 103.52 76.102 103.812 76.102 104.171V105.191C79.422 105.041 82.5841 103.719 85.0347 101.455L84.3237 100.739C84.0767 100.484 84.079 100.075 84.3292 99.8232C84.5794 99.571 84.9843 99.5687 85.2373 99.8176L85.9483 100.534C88.194 98.0647 89.5061 94.877 89.6547 91.5307L88.6418 91.5307ZM75.4539 102.23C72.4672 102.23 69.603 101.034 67.4912 98.9051C65.3795 96.7767 64.193 93.8895 64.193 90.8793C64.193 87.869 65.379 84.9819 67.4912 82.8534C69.603 80.7249 72.4674 79.5289 75.4539 79.5289C78.4405 79.5289 81.3049 80.7249 83.4166 82.8534C85.5284 84.9819 86.7149 87.869 86.7149 90.8793C86.7117 93.8887 85.5237 96.7734 83.4128 98.9015C81.3016 101.029 78.4396 102.226 75.4538 102.23L75.4539 102.23Z" fill="white"/>
<path d="M93.8859 98.0772H93.7007C92.2478 98.0767 90.7958 97.985 89.354 97.8031C88.5696 99.3945 87.523 100.84 86.2588 102.079C88.7602 102.654 91.3198 102.937 93.8858 102.921C97.8775 102.921 101.621 102.298 104.426 101.167C107.006 100.127 108.485 98.7631 108.485 97.4253V94.0361C107.661 94.8612 106.456 95.6058 104.906 96.2303C101.953 97.4216 98.0383 98.0772 93.8859 98.0772Z" fill="#FFDC60"/>
<path d="M93.7912 91.9317C92.8415 91.9317 91.883 91.8926 90.9323 91.8168C90.8377 93.4418 90.49 95.0416 89.9019 96.5578C91.2232 96.709 92.5519 96.7816 93.8821 96.7751C97.8775 96.7751 101.621 96.1524 104.426 95.0211C107.005 93.9811 108.485 92.6176 108.485 91.2797L108.485 87.8906C107.66 88.7157 106.455 89.4598 104.906 90.0848C101.929 91.2849 97.9773 91.9359 93.7912 91.9317Z" fill="#FFDC60"/>
<path d="M57.3669 86.3759C57.3669 87.4336 58.3199 88.5305 60.0129 89.4556C60.1431 87.9987 60.4774 86.5672 61.006 85.2046C59.4261 84.5755 58.2008 83.8276 57.367 82.9951L57.3669 86.3759Z" fill="white"/>
<path d="M71.9495 87.6582V88.7983H72.967L71.9495 87.6582Z" fill="white"/>
<path d="M76.5684 90.8828H78.6483V90.1006H75.8699L76.5684 90.8828Z" fill="white"/>
<path d="M75.4539 80.832C72.8103 80.832 70.2747 81.8907 68.4053 83.7749C66.5355 85.659 65.4856 88.2149 65.4856 90.8794C65.4856 93.544 66.5355 96.0997 68.4053 97.984C70.2746 99.8681 72.8098 100.927 75.4539 100.927C78.0975 100.927 80.633 99.8682 82.5025 97.984C84.3718 96.0998 85.4222 93.544 85.4222 90.8794C85.4189 88.2158 84.3677 85.6619 82.4993 83.7782C80.6304 81.8949 78.0966 80.8354 75.454 80.8322L75.4539 80.832ZM81.116 90.8831C81.4728 90.8831 81.7623 91.1749 81.7623 91.5346C81.7623 91.8943 81.4729 92.1861 81.116 92.1861H79.9405V94.9112C79.9405 95.1811 79.7757 95.4231 79.5259 95.5194C79.2757 95.6162 78.9927 95.5478 78.8135 95.3472L75.9917 92.1861H71.9497V94.9112C71.9497 95.2709 71.6602 95.5627 71.3033 95.5627C70.9464 95.5627 70.657 95.271 70.657 94.9112V92.1861H69.4815C69.1246 92.1861 68.8351 91.8944 68.8351 91.5346C68.8351 91.1749 69.1246 90.8831 69.4815 90.8831H70.657V90.1014H69.4815C69.1246 90.1014 68.8351 89.8096 68.8351 89.4499C68.8351 89.0901 69.1246 88.7984 69.4815 88.7984H70.657V85.9607C70.657 85.6908 70.8218 85.4488 71.072 85.3525C71.3218 85.2557 71.6048 85.3241 71.7839 85.5247L74.706 88.7983H78.6474V85.9607H78.6479C78.6479 85.6005 78.9374 85.3092 79.2943 85.3092C79.6511 85.3092 79.9406 85.6005 79.9406 85.9607V88.7983H81.1161C81.473 88.7983 81.7624 89.0901 81.7624 89.4498C81.7624 89.8096 81.473 90.1013 81.1161 90.1013H79.9406V90.8831H81.116Z" fill="white"/>
<path d="M71.9495 90.1016V90.8838H74.8285L74.13 90.1016H71.9495Z" fill="white"/>
<path d="M78.6474 93.2126V92.1855H77.7305L78.6474 93.2126Z" fill="white"/>
<defs>
<filter id="filter0_d_1221_890" x="0" y="0" width="166" height="166" filterUnits="userSpaceOnUse" color-interpolation-filters="sRGB">
<feFlood flood-opacity="0" result="BackgroundImageFix"/>
<feColorMatrix in="SourceAlpha" type="matrix" values="0 0 0 0 0 0 0 0 0 0 0 0 0 0 0 0 0 0 127 0" result="hardAlpha"/>
<feMorphology radius="2" operator="erode" in="SourceAlpha" result="effect1_dropShadow_1221_890"/>
<feOffset dy="8"/>
<feGaussianBlur stdDeviation="20"/>
<feColorMatrix type="matrix" values="0 0 0 0 0.0235294 0 0 0 0 0.0470588 0 0 0 0 0.231373 0 0 0 0.08 0"/>
<feBlend mode="normal" in2="BackgroundImageFix" result="effect1_dropShadow_1221_890"/>
<feBlend mode="normal" in="SourceGraphic" in2="effect1_dropShadow_1221_890" result="shape"/>
</filter>
</defs>
</svg>
