<svg width="39" height="39" viewBox="0 0 39 39" fill="none" xmlns="http://www.w3.org/2000/svg">
<rect width="39" height="39" rx="19.5" fill="#EBF1F9"/>
<path d="M13 15.0047H10C9.45 15.0047 9 14.5547 9 14.0047C9 13.4547 9.45 13.0047 10 13.0047H13C13.55 13.0047 14 13.4547 14 14.0047C14 14.5547 13.55 15.0047 13 15.0047ZM13 18.0047H10C9.45 18.0047 9 18.4547 9 19.0047C9 19.5547 9.45 20.0047 10 20.0047H13C13.55 20.0047 14 19.5547 14 19.0047C14 18.4547 13.55 18.0047 13 18.0047ZM26.88 24.2947L23.76 21.1747C22.9 21.7347 21.87 22.0547 20.76 21.9947C18.39 21.8847 16.36 20.0347 16.04 17.6847C15.9344 16.9036 16.0144 16.1087 16.2737 15.3643C16.5329 14.62 16.9639 13.9473 17.5319 13.4008C18.0998 12.8543 18.7886 12.4494 19.5424 12.219C20.2961 11.9886 21.0936 11.9391 21.87 12.0747C23.82 12.4047 25.44 13.9247 25.87 15.8547C26.2 17.3147 25.88 18.6747 25.17 19.7547L28.3 22.8847C28.69 23.2747 28.69 23.9047 28.3 24.2947C27.91 24.6847 27.27 24.6847 26.88 24.2947ZM24 17.0047C24 15.3547 22.65 14.0047 21 14.0047C19.35 14.0047 18 15.3547 18 17.0047C18 18.6547 19.35 20.0047 21 20.0047C22.65 20.0047 24 18.6547 24 17.0047ZM10 25.0047H18C18.55 25.0047 19 24.5547 19 24.0047C19 23.4547 18.55 23.0047 18 23.0047H10C9.45 23.0047 9 23.4547 9 24.0047C9 24.5547 9.45 25.0047 10 25.0047Z" fill="#004AAD"/>
</svg>
