<svg width="613" height="641" viewBox="0 0 613 641" fill="none" xmlns="http://www.w3.org/2000/svg">
<rect width="92.5263" height="92.5263" transform="matrix(-1.19249e-08 1 1 1.19249e-08 452.621 492.344)" fill="#0064E9" fill-opacity="0.1"/>
<rect width="67.8526" height="67.8526" transform="matrix(-1.19249e-08 1 1 1.19249e-08 545.147 423.88)" fill="#0064E9" fill-opacity="0.1"/>
<rect width="61.6842" height="61.6842" transform="matrix(-1.19249e-08 1 1 1.19249e-08 241.867 430.947)" fill="#0064E9" fill-opacity="0.1"/>
<rect width="133.649" height="133.649" transform="matrix(1 -3.30913e-08 -3.05195e-08 -1 203.828 276.737)" fill="#0064E9" fill-opacity="0.1"/>
<rect width="113.088" height="113.088" transform="matrix(1 -2.82896e-08 -3.55875e-08 -1 90.7405 143.087)" fill="#0064E9" fill-opacity="0.1"/>
<rect width="92.5263" height="92.5263" transform="matrix(1 -3.30913e-08 -3.05195e-08 -1 337.477 143.088)" fill="#0064E9" fill-opacity="0.1"/>
<rect x="329.253" y="492.631" width="123.368" height="123.368" transform="rotate(-90 329.253 492.631)" fill="#0064E9" fill-opacity="0.1"/>
<rect x="409.442" y="276.737" width="41.1228" height="41.1228" transform="rotate(-90 409.442 276.737)" fill="#0064E9" fill-opacity="0.1"/>
<rect x="565.709" y="188.323" width="45.2351" height="45.2351" transform="rotate(-90 565.709 188.323)" fill="#0064E9" fill-opacity="0.1"/>
<rect x="90.7405" y="240.754" width="61.6842" height="61.6842" transform="rotate(-90 90.7405 240.754)" fill="#0064E9" fill-opacity="0.1"/>
<rect x="329.253" y="585.158" width="92.5263" height="61.6842" transform="rotate(-90 329.253 585.158)" fill="#0064E9" fill-opacity="0.1"/>
<rect x="41.3931" y="508.053" width="71.9649" height="71.9649" transform="rotate(-90 41.3931 508.053)" fill="#0064E9" fill-opacity="0.1"/>
<rect x="41.3931" y="378.516" width="34.9544" height="71.9649" transform="rotate(-90 41.3931 378.516)" fill="#0064E9" fill-opacity="0.1"/>
<rect x="113.358" y="436.088" width="92.5263" height="92.5263" transform="rotate(-90 113.358 436.088)" fill="#0064E9" fill-opacity="0.1"/>
<rect width="88.414" height="88.414" transform="matrix(1 -3.30913e-08 -3.05195e-08 -1 522.53 276.737)" fill="#0064E9" fill-opacity="0.1"/>
<rect width="45.2351" height="45.2351" transform="matrix(1 -3.30913e-08 -3.05195e-08 -1 521.502 143.087)" fill="#0064E9" fill-opacity="0.1"/>
<rect x="582.158" y="585.158" width="30.8421" height="30.8421" transform="rotate(-90 582.158 585.158)" fill="#0064E9" fill-opacity="0.1"/>
<rect x="255.232" y="81.4033" width="30.8421" height="30.8421" transform="rotate(-90 255.232 81.4033)" fill="#0064E9" fill-opacity="0.1"/>
<g filter="url(#filter0_d_1101_698)">
<rect x="47" y="266.496" width="248" height="129.008" rx="6" fill="white"/>
</g>
<line x1="67" y1="339.431" x2="267" y2="339.431" stroke="#B4B6C4"/>
<g clip-path="url(#clip0_1101_698)">
<path d="M69.5 288.051C66.3567 291.292 67 294.733 67 305.19C67 313.873 65.4733 322.578 73.4633 324.627C75.9583 325.264 98.065 325.264 100.557 324.623C103.883 323.772 106.59 321.094 106.96 316.425C107.012 315.773 107.012 294.618 106.958 293.953C106.565 288.979 103.48 286.113 99.415 285.533C98.4833 285.399 98.2967 285.359 93.5167 285.351C76.5617 285.359 72.845 284.61 69.5 288.051Z" fill="#0064E9"/>
</g>
<rect x="67" y="355.809" width="86" height="5.9542" rx="2.9771" fill="#B4B6C4"/>
<rect x="67" y="369.702" width="86" height="5.95419" rx="2.9771" fill="#B4B6C4"/>
<rect x="223" y="369.702" width="52" height="5.95419" rx="2.9771" fill="#B4B6C4"/>
<g filter="url(#filter1_d_1101_698)">
<rect x="168" y="428" width="100" height="100" rx="6" fill="#0064E9"/>
</g>
<path d="M219.736 454C221.567 454 223.225 455.008 224.141 456.496C224.586 457.216 224.883 458.104 224.809 459.04C224.759 459.76 224.982 460.48 225.378 461.152C226.639 463.192 229.435 463.96 231.613 462.808C234.062 461.416 237.155 462.256 238.565 464.632L240.223 467.464C241.658 469.84 240.866 472.888 238.392 474.256C236.289 475.48 235.547 478.192 236.809 480.256C237.204 480.904 237.65 481.456 238.343 481.792C239.208 482.248 239.877 482.968 240.347 483.688C241.262 485.176 241.188 487 240.297 488.608L238.565 491.488C237.65 493.024 235.943 493.984 234.186 493.984C233.32 493.984 232.355 493.744 231.563 493.264C230.92 492.856 230.178 492.712 229.386 492.712C226.936 492.712 224.883 494.704 224.809 497.08C224.809 499.84 222.532 502 219.687 502H216.322C213.452 502 211.176 499.84 211.176 497.08C211.126 494.704 209.073 492.712 206.623 492.712C205.807 492.712 205.064 492.856 204.446 493.264C203.654 493.744 202.664 493.984 201.823 493.984C200.042 493.984 198.335 493.024 197.419 491.488L195.712 488.608C194.796 487.048 194.747 485.176 195.662 483.688C196.058 482.968 196.8 482.248 197.642 481.792C198.335 481.456 198.78 480.904 199.2 480.256C200.438 478.192 199.695 475.48 197.592 474.256C195.143 472.888 194.351 469.84 195.761 467.464L197.419 464.632C198.854 462.256 201.922 461.416 204.396 462.808C206.549 463.96 209.345 463.192 210.607 461.152C211.002 460.48 211.225 459.76 211.176 459.04C211.126 458.104 211.398 457.216 211.868 456.496C212.784 455.008 214.442 454.048 216.248 454H219.736ZM218.029 471.232C214.145 471.232 211.002 474.256 211.002 478.024C211.002 481.792 214.145 484.792 218.029 484.792C221.914 484.792 224.982 481.792 224.982 478.024C224.982 474.256 221.914 471.232 218.029 471.232Z" fill="white"/>
<g filter="url(#filter2_d_1101_698)">
<rect x="250" y="30" width="300" height="204" rx="6" fill="white"/>
</g>
<line opacity="0.2" x1="296.5" y1="191.5" x2="530.5" y2="191.5" stroke="#B4B6C4" stroke-linecap="round"/>
<line opacity="0.2" x1="296.5" y1="164.5" x2="530.5" y2="164.5" stroke="#B4B6C4" stroke-linecap="round"/>
<line opacity="0.2" x1="296.5" y1="137.5" x2="530.5" y2="137.5" stroke="#B4B6C4" stroke-linecap="round"/>
<line opacity="0.2" x1="296.5" y1="110.5" x2="530.5" y2="110.5" stroke="#B4B6C4" stroke-linecap="round"/>
<line opacity="0.2" x1="296.5" y1="83.5" x2="530.5" y2="83.5" stroke="#B4B6C4" stroke-linecap="round"/>
<path d="M269.1 107.04C269.547 107.04 269.943 107.133 270.29 107.32C270.643 107.507 270.917 107.77 271.11 108.11C271.31 108.443 271.41 108.83 271.41 109.27H270.43C270.43 108.857 270.31 108.53 270.07 108.29C269.83 108.05 269.507 107.93 269.1 107.93C268.86 107.93 268.637 107.99 268.43 108.11C268.23 108.23 268.07 108.393 267.95 108.6C267.83 108.8 267.77 109.02 267.77 109.26V110.34C268.183 109.9 268.7 109.68 269.32 109.68C269.72 109.68 270.087 109.773 270.42 109.96C270.76 110.147 271.027 110.403 271.22 110.73C271.42 111.05 271.52 111.403 271.52 111.79C271.52 112.243 271.42 112.647 271.22 113C271.02 113.347 270.74 113.617 270.38 113.81C270.02 114.003 269.613 114.1 269.16 114.1C268.707 114.1 268.3 114.003 267.94 113.81C267.58 113.61 267.297 113.333 267.09 112.98C266.89 112.62 266.79 112.217 266.79 111.77V109.35C266.79 108.937 266.893 108.553 267.1 108.2C267.307 107.84 267.587 107.557 267.94 107.35C268.3 107.143 268.687 107.04 269.1 107.04ZM269.16 110.57C268.767 110.57 268.437 110.697 268.17 110.95C267.903 111.197 267.77 111.51 267.77 111.89C267.77 112.27 267.903 112.587 268.17 112.84C268.437 113.087 268.767 113.21 269.16 113.21C269.553 113.21 269.88 113.09 270.14 112.85C270.407 112.603 270.54 112.283 270.54 111.89C270.54 111.497 270.407 111.18 270.14 110.94C269.88 110.693 269.553 110.57 269.16 110.57ZM275.282 107.04C275.702 107.04 276.086 107.14 276.432 107.34C276.786 107.54 277.066 107.817 277.272 108.17C277.479 108.523 277.582 108.92 277.582 109.36V111.79C277.582 112.223 277.482 112.617 277.282 112.97C277.082 113.317 276.806 113.593 276.452 113.8C276.106 114 275.716 114.1 275.282 114.1H275.152C274.712 114.1 274.316 114 273.962 113.8C273.616 113.593 273.346 113.313 273.152 112.96C272.959 112.607 272.862 112.217 272.862 111.79V109.36C272.862 108.913 272.962 108.513 273.162 108.16C273.369 107.807 273.646 107.533 273.992 107.34C274.339 107.14 274.726 107.04 275.152 107.04H275.282ZM275.222 107.93C274.836 107.93 274.509 108.06 274.242 108.32C273.976 108.573 273.842 108.893 273.842 109.28V111.86C273.842 112.247 273.976 112.57 274.242 112.83C274.509 113.083 274.836 113.21 275.222 113.21C275.622 113.21 275.952 113.08 276.212 112.82C276.472 112.56 276.602 112.24 276.602 111.86V109.28C276.602 108.9 276.472 108.58 276.212 108.32C275.952 108.06 275.622 107.93 275.222 107.93ZM280.075 106.8V111.74L282.355 108.89H283.385L281.415 111.37L283.515 114H282.375L280.845 112.1L280.075 112.9V114H279.135V106.8H280.075Z" fill="#5D6180"/>
<path d="M269.08 134.04C269.513 134.04 269.9 134.12 270.24 134.28C270.58 134.44 270.843 134.663 271.03 134.95C271.217 135.23 271.31 135.547 271.31 135.9C271.31 136.28 271.213 136.593 271.02 136.84C270.833 137.08 270.567 137.28 270.22 137.44L270.23 137.47C270.61 137.59 270.91 137.793 271.13 138.08C271.357 138.36 271.47 138.72 271.47 139.16C271.47 139.533 271.367 139.867 271.16 140.16C270.953 140.453 270.667 140.683 270.3 140.85C269.933 141.017 269.527 141.1 269.08 141.1H268.96C268.233 141.1 267.653 140.92 267.22 140.56C266.793 140.193 266.58 139.693 266.58 139.06V138.98H267.56V139.09C267.56 139.457 267.683 139.737 267.93 139.93C268.177 140.117 268.53 140.21 268.99 140.21C269.463 140.21 269.83 140.117 270.09 139.93C270.357 139.737 270.49 139.447 270.49 139.06C270.49 138.327 269.977 137.96 268.95 137.96H268.2V137.06H268.97C269.377 137.06 269.703 136.967 269.95 136.78C270.203 136.593 270.33 136.327 270.33 135.98C270.33 135.64 270.207 135.38 269.96 135.2C269.72 135.02 269.397 134.93 268.99 134.93C268.61 134.93 268.303 135.023 268.07 135.21C267.837 135.397 267.72 135.657 267.72 135.99V136.08H266.74V135.9C266.74 135.533 266.837 135.21 267.03 134.93C267.23 134.643 267.5 134.423 267.84 134.27C268.187 134.117 268.57 134.04 268.99 134.04H269.08ZM275.282 134.04C275.702 134.04 276.086 134.14 276.432 134.34C276.786 134.54 277.066 134.817 277.272 135.17C277.479 135.523 277.582 135.92 277.582 136.36V138.79C277.582 139.223 277.482 139.617 277.282 139.97C277.082 140.317 276.806 140.593 276.452 140.8C276.106 141 275.716 141.1 275.282 141.1H275.152C274.712 141.1 274.316 141 273.962 140.8C273.616 140.593 273.346 140.313 273.152 139.96C272.959 139.607 272.862 139.217 272.862 138.79V136.36C272.862 135.913 272.962 135.513 273.162 135.16C273.369 134.807 273.646 134.533 273.992 134.34C274.339 134.14 274.726 134.04 275.152 134.04H275.282ZM275.222 134.93C274.836 134.93 274.509 135.06 274.242 135.32C273.976 135.573 273.842 135.893 273.842 136.28V138.86C273.842 139.247 273.976 139.57 274.242 139.83C274.509 140.083 274.836 140.21 275.222 140.21C275.622 140.21 275.952 140.08 276.212 139.82C276.472 139.56 276.602 139.24 276.602 138.86V136.28C276.602 135.9 276.472 135.58 276.212 135.32C275.952 135.06 275.622 134.93 275.222 134.93ZM280.075 133.8V138.74L282.355 135.89H283.385L281.415 138.37L283.515 141H282.375L280.845 139.1L280.075 139.9V141H279.135V133.8H280.075Z" fill="#5D6180"/>
<path d="M269.77 167.11H271.57V168H266.99V167.11H268.79V162.45H266.97V161.81C267.763 161.73 268.57 161.507 269.39 161.14H269.77V167.11ZM275.282 161.04C275.702 161.04 276.086 161.14 276.432 161.34C276.786 161.54 277.066 161.817 277.272 162.17C277.479 162.523 277.582 162.92 277.582 163.36V165.79C277.582 166.223 277.482 166.617 277.282 166.97C277.082 167.317 276.806 167.593 276.452 167.8C276.106 168 275.716 168.1 275.282 168.1H275.152C274.712 168.1 274.316 168 273.962 167.8C273.616 167.593 273.346 167.313 273.152 166.96C272.959 166.607 272.862 166.217 272.862 165.79V163.36C272.862 162.913 272.962 162.513 273.162 162.16C273.369 161.807 273.646 161.533 273.992 161.34C274.339 161.14 274.726 161.04 275.152 161.04H275.282ZM275.222 161.93C274.836 161.93 274.509 162.06 274.242 162.32C273.976 162.573 273.842 162.893 273.842 163.28V165.86C273.842 166.247 273.976 166.57 274.242 166.83C274.509 167.083 274.836 167.21 275.222 167.21C275.622 167.21 275.952 167.08 276.212 166.82C276.472 166.56 276.602 166.24 276.602 165.86V163.28C276.602 162.9 276.472 162.58 276.212 162.32C275.952 162.06 275.622 161.93 275.222 161.93ZM280.075 160.8V165.74L282.355 162.89H283.385L281.415 165.37L283.515 168H282.375L280.845 166.1L280.075 166.9V168H279.135V160.8H280.075Z" fill="#5D6180"/>
<path d="M269.13 188.04C269.55 188.04 269.933 188.14 270.28 188.34C270.633 188.54 270.913 188.817 271.12 189.17C271.327 189.523 271.43 189.92 271.43 190.36V192.79C271.43 193.223 271.33 193.617 271.13 193.97C270.93 194.317 270.653 194.593 270.3 194.8C269.953 195 269.563 195.1 269.13 195.1H269C268.56 195.1 268.163 195 267.81 194.8C267.463 194.593 267.193 194.313 267 193.96C266.807 193.607 266.71 193.217 266.71 192.79V190.36C266.71 189.913 266.81 189.513 267.01 189.16C267.217 188.807 267.493 188.533 267.84 188.34C268.187 188.14 268.573 188.04 269 188.04H269.13ZM269.07 188.93C268.683 188.93 268.357 189.06 268.09 189.32C267.823 189.573 267.69 189.893 267.69 190.28V192.86C267.69 193.247 267.823 193.57 268.09 193.83C268.357 194.083 268.683 194.21 269.07 194.21C269.47 194.21 269.8 194.08 270.06 193.82C270.32 193.56 270.45 193.24 270.45 192.86V190.28C270.45 189.9 270.32 189.58 270.06 189.32C269.8 189.06 269.47 188.93 269.07 188.93Z" fill="#5D6180"/>
<path d="M268.99 80.04C269.45 80.04 269.857 80.14 270.21 80.34C270.57 80.54 270.85 80.8167 271.05 81.17C271.257 81.5233 271.36 81.9233 271.36 82.37V84.79C271.36 85.2033 271.257 85.59 271.05 85.95C270.843 86.3033 270.56 86.5833 270.2 86.79C269.847 86.9967 269.463 87.1 269.05 87.1C268.597 87.1 268.193 87.0067 267.84 86.82C267.493 86.6267 267.223 86.3633 267.03 86.03C266.837 85.69 266.74 85.3033 266.74 84.87H267.72C267.72 85.2833 267.84 85.61 268.08 85.85C268.32 86.09 268.643 86.21 269.05 86.21C269.29 86.21 269.51 86.15 269.71 86.03C269.917 85.91 270.08 85.75 270.2 85.55C270.32 85.3433 270.38 85.12 270.38 84.88V83.8C269.973 84.24 269.457 84.46 268.83 84.46C268.43 84.46 268.06 84.3667 267.72 84.18C267.387 83.9933 267.12 83.74 266.92 83.42C266.727 83.0933 266.63 82.7367 266.63 82.35C266.63 81.8967 266.73 81.4967 266.93 81.15C267.13 80.7967 267.407 80.5233 267.76 80.33C268.12 80.1367 268.53 80.04 268.99 80.04ZM268.99 80.93C268.597 80.93 268.267 81.0533 268 81.3C267.74 81.54 267.61 81.8567 267.61 82.25C267.61 82.6433 267.74 82.9633 268 83.21C268.267 83.45 268.597 83.57 268.99 83.57C269.383 83.57 269.713 83.4467 269.98 83.2C270.247 82.9533 270.38 82.6367 270.38 82.25C270.38 81.8633 270.247 81.5467 269.98 81.3C269.713 81.0533 269.383 80.93 268.99 80.93ZM275.282 80.04C275.702 80.04 276.086 80.14 276.432 80.34C276.786 80.54 277.066 80.8167 277.272 81.17C277.479 81.5233 277.582 81.92 277.582 82.36V84.79C277.582 85.2233 277.482 85.6167 277.282 85.97C277.082 86.3167 276.806 86.5933 276.452 86.8C276.106 87 275.716 87.1 275.282 87.1H275.152C274.712 87.1 274.316 87 273.962 86.8C273.616 86.5933 273.346 86.3133 273.152 85.96C272.959 85.6067 272.862 85.2167 272.862 84.79V82.36C272.862 81.9133 272.962 81.5133 273.162 81.16C273.369 80.8067 273.646 80.5333 273.992 80.34C274.339 80.14 274.726 80.04 275.152 80.04H275.282ZM275.222 80.93C274.836 80.93 274.509 81.06 274.242 81.32C273.976 81.5733 273.842 81.8933 273.842 82.28V84.86C273.842 85.2467 273.976 85.57 274.242 85.83C274.509 86.0833 274.836 86.21 275.222 86.21C275.622 86.21 275.952 86.08 276.212 85.82C276.472 85.56 276.602 85.24 276.602 84.86V82.28C276.602 81.9 276.472 81.58 276.212 81.32C275.952 81.06 275.622 80.93 275.222 80.93ZM280.075 79.8V84.74L282.355 81.89H283.385L281.415 84.37L283.515 87H282.375L280.845 85.1L280.075 85.9V87H279.135V79.8H280.075Z" fill="#5D6180"/>
<path d="M304.46 208.14V215H303.48V209.29H303.42L301.05 215H300.22L297.86 209.29H297.81V215H296.92V208.14H298.46L300.67 213.54H300.71L302.93 208.14H304.46ZM308.225 209.79C308.898 209.79 309.398 209.923 309.725 210.19C310.058 210.457 310.225 210.843 310.225 211.35V214C310.225 214.12 310.251 214.21 310.305 214.27C310.358 214.323 310.425 214.35 310.505 214.35C310.658 214.35 310.811 214.303 310.965 214.21V214.9C310.738 215.033 310.481 215.1 310.195 215.1C309.908 215.1 309.695 215.02 309.555 214.86C309.415 214.693 309.338 214.467 309.325 214.18C308.911 214.793 308.315 215.1 307.535 215.1C306.975 215.1 306.555 214.98 306.275 214.74C306.001 214.493 305.865 214.107 305.865 213.58C305.865 213.167 305.971 212.843 306.185 212.61C306.398 212.37 306.751 212.197 307.245 212.09C307.738 211.983 308.418 211.93 309.285 211.93V211.46C309.285 211.12 309.185 210.883 308.985 210.75C308.785 210.61 308.495 210.54 308.115 210.54C307.755 210.54 307.475 210.61 307.275 210.75C307.075 210.89 306.975 211.087 306.975 211.34V211.46H306.055C306.041 211.367 306.035 211.257 306.035 211.13C306.035 210.897 306.128 210.677 306.315 210.47C306.501 210.263 306.755 210.1 307.075 209.98C307.395 209.853 307.748 209.79 308.135 209.79H308.225ZM309.285 212.66C308.585 212.66 308.055 212.697 307.695 212.77C307.341 212.837 307.105 212.94 306.985 213.08C306.865 213.22 306.805 213.413 306.805 213.66C306.805 214.12 307.155 214.35 307.855 214.35C308.101 214.35 308.335 214.29 308.555 214.17C308.775 214.043 308.951 213.867 309.085 213.64C309.218 213.413 309.285 213.153 309.285 212.86V212.66ZM314.364 209.79C314.838 209.79 315.208 209.943 315.474 210.25C315.741 210.55 315.874 210.93 315.874 211.39L315.844 211.77H315.014V211.55C315.014 211.35 314.964 211.173 314.864 211.02C314.764 210.867 314.638 210.75 314.484 210.67C314.331 210.583 314.178 210.54 314.024 210.54C313.704 210.54 313.454 210.667 313.274 210.92C313.094 211.173 313.004 211.517 313.004 211.95V215H312.064V209.89H312.734L312.874 210.65C312.914 210.517 313.004 210.383 313.144 210.25C313.284 210.117 313.458 210.007 313.664 209.92C313.878 209.833 314.111 209.79 314.364 209.79Z" fill="#5D6180"/>
<path d="M354.8 208.14L357.48 215H356.42L355.84 213.51H352.56L351.99 215H351.04L353.72 208.14H354.8ZM354.24 209.32H354.18L352.91 212.62H355.5L354.24 209.32ZM360.763 209.79C361.41 209.79 361.917 210.027 362.283 210.5C362.65 210.973 362.833 211.623 362.833 212.45V212.56C362.833 213.347 362.65 213.967 362.283 214.42C361.923 214.873 361.417 215.1 360.763 215.1C360.137 215.1 359.647 214.85 359.293 214.35V216.81H358.353V209.89H359.053C359.1 210.103 359.143 210.337 359.183 210.59C359.563 210.057 360.09 209.79 360.763 209.79ZM360.593 210.54C360.14 210.54 359.807 210.697 359.593 211.01C359.387 211.323 359.283 211.8 359.283 212.44C359.283 213.093 359.39 213.577 359.603 213.89C359.823 214.197 360.153 214.35 360.593 214.35C361.033 214.35 361.36 214.193 361.573 213.88C361.787 213.567 361.893 213.087 361.893 212.44C361.893 211.787 361.783 211.307 361.563 211C361.35 210.693 361.027 210.54 360.593 210.54ZM366.484 209.79C366.957 209.79 367.327 209.943 367.594 210.25C367.86 210.55 367.994 210.93 367.994 211.39L367.964 211.77H367.134V211.55C367.134 211.35 367.084 211.173 366.984 211.02C366.884 210.867 366.757 210.75 366.604 210.67C366.45 210.583 366.297 210.54 366.144 210.54C365.824 210.54 365.574 210.667 365.394 210.92C365.214 211.173 365.124 211.517 365.124 211.95V215H364.184V209.89H364.854L364.994 210.65C365.034 210.517 365.124 210.383 365.264 210.25C365.404 210.117 365.577 210.007 365.784 209.92C365.997 209.833 366.23 209.79 366.484 209.79Z" fill="#5D6180"/>
<path d="M411.46 208.14V215H410.48V209.29H410.42L408.05 215H407.22L404.86 209.29H404.81V215H403.92V208.14H405.46L407.67 213.54H407.71L409.93 208.14H411.46ZM415.225 209.79C415.898 209.79 416.398 209.923 416.725 210.19C417.058 210.457 417.225 210.843 417.225 211.35V214C417.225 214.12 417.251 214.21 417.305 214.27C417.358 214.323 417.425 214.35 417.505 214.35C417.658 214.35 417.811 214.303 417.965 214.21V214.9C417.738 215.033 417.481 215.1 417.195 215.1C416.908 215.1 416.695 215.02 416.555 214.86C416.415 214.693 416.338 214.467 416.325 214.18C415.911 214.793 415.315 215.1 414.535 215.1C413.975 215.1 413.555 214.98 413.275 214.74C413.001 214.493 412.865 214.107 412.865 213.58C412.865 213.167 412.971 212.843 413.185 212.61C413.398 212.37 413.751 212.197 414.245 212.09C414.738 211.983 415.418 211.93 416.285 211.93V211.46C416.285 211.12 416.185 210.883 415.985 210.75C415.785 210.61 415.495 210.54 415.115 210.54C414.755 210.54 414.475 210.61 414.275 210.75C414.075 210.89 413.975 211.087 413.975 211.34V211.46H413.055C413.041 211.367 413.035 211.257 413.035 211.13C413.035 210.897 413.128 210.677 413.315 210.47C413.501 210.263 413.755 210.1 414.075 209.98C414.395 209.853 414.748 209.79 415.135 209.79H415.225ZM416.285 212.66C415.585 212.66 415.055 212.697 414.695 212.77C414.341 212.837 414.105 212.94 413.985 213.08C413.865 213.22 413.805 213.413 413.805 213.66C413.805 214.12 414.155 214.35 414.855 214.35C415.101 214.35 415.335 214.29 415.555 214.17C415.775 214.043 415.951 213.867 416.085 213.64C416.218 213.413 416.285 213.153 416.285 212.86V212.66ZM421.324 214.8C421.098 215.36 420.888 215.787 420.694 216.08C420.501 216.38 420.304 216.583 420.104 216.69C419.904 216.803 419.671 216.86 419.404 216.86C419.158 216.86 418.924 216.813 418.704 216.72V215.95C418.924 216.043 419.091 216.09 419.204 216.09C419.478 216.09 419.704 215.997 419.884 215.81C420.071 215.63 420.224 215.343 420.344 214.95L418.354 209.89H419.354L420.824 213.66H420.864L422.314 209.89H423.234L421.324 214.8Z" fill="#5D6180"/>
<path d="M462.39 213.13C462.39 213.737 462.203 214.217 461.83 214.57C461.457 214.923 460.967 215.1 460.36 215.1H460.27C459.663 215.1 459.18 214.93 458.82 214.59C458.467 214.25 458.29 213.763 458.29 213.13V212.92H459.27V213.19C459.27 213.49 459.37 213.737 459.57 213.93C459.777 214.117 460.037 214.21 460.35 214.21C460.663 214.21 460.917 214.117 461.11 213.93C461.31 213.743 461.41 213.497 461.41 213.19V208.14H462.39V213.13ZM468.364 214C468.364 214.12 468.39 214.21 468.444 214.27C468.497 214.323 468.564 214.35 468.644 214.35C468.79 214.35 468.94 214.303 469.094 214.21V214.9C468.887 215.033 468.677 215.1 468.464 215.1C468.104 215.1 467.85 215.027 467.704 214.88C467.564 214.733 467.487 214.527 467.474 214.26C467.294 214.527 467.06 214.733 466.774 214.88C466.494 215.027 466.17 215.1 465.804 215.1C465.29 215.1 464.867 214.95 464.534 214.65C464.207 214.343 464.044 213.903 464.044 213.33V209.89H464.984V213.16C464.984 213.953 465.344 214.35 466.064 214.35C466.297 214.35 466.517 214.287 466.724 214.16C466.937 214.033 467.107 213.863 467.234 213.65C467.36 213.43 467.424 213.19 467.424 212.93V209.89H468.364V214ZM472.795 209.79C473.355 209.79 473.795 209.94 474.115 210.24C474.435 210.54 474.595 210.98 474.595 211.56V215H473.655V211.73C473.655 210.937 473.295 210.54 472.575 210.54C472.335 210.54 472.112 210.603 471.905 210.73C471.699 210.857 471.532 211.03 471.405 211.25C471.279 211.463 471.215 211.7 471.215 211.96V215H470.275V209.89H470.955L471.085 210.64C471.512 210.073 472.082 209.79 472.795 209.79Z" fill="#5D6180"/>
<path d="M514.39 213.13C514.39 213.737 514.203 214.217 513.83 214.57C513.457 214.923 512.967 215.1 512.36 215.1H512.27C511.663 215.1 511.18 214.93 510.82 214.59C510.467 214.25 510.29 213.763 510.29 213.13V212.92H511.27V213.19C511.27 213.49 511.37 213.737 511.57 213.93C511.777 214.117 512.037 214.21 512.35 214.21C512.663 214.21 512.917 214.117 513.11 213.93C513.31 213.743 513.41 213.497 513.41 213.19V208.14H514.39V213.13ZM520.364 214C520.364 214.12 520.39 214.21 520.444 214.27C520.497 214.323 520.564 214.35 520.644 214.35C520.79 214.35 520.94 214.303 521.094 214.21V214.9C520.887 215.033 520.677 215.1 520.464 215.1C520.104 215.1 519.85 215.027 519.704 214.88C519.564 214.733 519.487 214.527 519.474 214.26C519.294 214.527 519.06 214.733 518.774 214.88C518.494 215.027 518.17 215.1 517.804 215.1C517.29 215.1 516.867 214.95 516.534 214.65C516.207 214.343 516.044 213.903 516.044 213.33V209.89H516.984V213.16C516.984 213.953 517.344 214.35 518.064 214.35C518.297 214.35 518.517 214.287 518.724 214.16C518.937 214.033 519.107 213.863 519.234 213.65C519.36 213.43 519.424 213.19 519.424 212.93V209.89H520.364V214ZM523.255 207.8V215H522.315V207.8H523.255Z" fill="#5D6180"/>
<path d="M270.648 50.396C271.441 50.396 272.16 50.564 272.804 50.9C273.457 51.236 273.975 51.726 274.358 52.37C274.741 53.014 274.932 53.7747 274.932 54.652V55.744C274.932 56.6213 274.741 57.382 274.358 58.026C273.975 58.67 273.457 59.16 272.804 59.496C272.16 59.832 271.441 60 270.648 60H267.008V50.396H270.648ZM269.178 58.278H270.648C271.245 58.278 271.731 58.0867 272.104 57.704C272.477 57.312 272.664 56.7613 272.664 56.052V54.344C272.664 53.6347 272.477 53.0887 272.104 52.706C271.731 52.314 271.245 52.118 270.648 52.118H269.178V58.278ZM280.904 55.17C280.904 54.8527 280.801 54.596 280.596 54.4C280.4 54.204 280.078 54.106 279.63 54.106C279.368 54.106 279.144 54.1527 278.958 54.246C278.771 54.33 278.626 54.4373 278.524 54.568C278.43 54.6987 278.384 54.82 278.384 54.932V55.044H276.41C276.391 54.932 276.382 54.848 276.382 54.792C276.382 54.3907 276.512 54.0313 276.774 53.714C277.044 53.3967 277.418 53.1493 277.894 52.972C278.37 52.7947 278.916 52.706 279.532 52.706H279.826C280.834 52.706 281.599 52.9067 282.122 53.308C282.644 53.7 282.906 54.2413 282.906 54.932V58.236C282.906 58.404 282.943 58.53 283.018 58.614C283.102 58.698 283.2 58.74 283.312 58.74C283.405 58.74 283.508 58.7213 283.62 58.684C283.732 58.6467 283.82 58.614 283.886 58.586V59.846C283.54 60.042 283.13 60.14 282.654 60.14C282.14 60.14 281.748 60.0373 281.478 59.832C281.207 59.6173 281.048 59.3187 281.002 58.936C280.348 59.7387 279.546 60.14 278.594 60.14C277.884 60.14 277.301 59.9953 276.844 59.706C276.386 59.4167 276.158 58.866 276.158 58.054C276.158 57.3913 276.344 56.8873 276.718 56.542C277.1 56.1873 277.628 55.9493 278.3 55.828C278.972 55.7067 279.84 55.646 280.904 55.646V55.17ZM280.904 56.794C280.017 56.794 279.354 56.8827 278.916 57.06C278.486 57.228 278.272 57.508 278.272 57.9C278.272 58.208 278.356 58.4273 278.524 58.558C278.701 58.6793 278.967 58.74 279.322 58.74C279.564 58.74 279.807 58.6747 280.05 58.544C280.292 58.4133 280.493 58.2267 280.652 57.984C280.82 57.7413 280.904 57.4707 280.904 57.172V56.794ZM288.767 59.874C288.58 59.9487 288.333 60.0093 288.025 60.056C287.726 60.112 287.46 60.14 287.227 60.14C286.508 60.14 285.967 59.986 285.603 59.678C285.239 59.37 285.057 58.8567 285.057 58.138V54.246H284.273V52.846H285.127L285.841 50.564H287.101V52.846H288.767V54.246H287.101V57.788C287.101 58.1613 287.171 58.4133 287.311 58.544C287.46 58.6747 287.656 58.74 287.899 58.74C288.011 58.74 288.156 58.7213 288.333 58.684C288.51 58.6467 288.655 58.6047 288.767 58.558V59.874ZM294.466 55.17C294.466 54.8527 294.363 54.596 294.158 54.4C293.962 54.204 293.64 54.106 293.192 54.106C292.931 54.106 292.707 54.1527 292.52 54.246C292.333 54.33 292.189 54.4373 292.086 54.568C291.993 54.6987 291.946 54.82 291.946 54.932V55.044H289.972C289.953 54.932 289.944 54.848 289.944 54.792C289.944 54.3907 290.075 54.0313 290.336 53.714C290.607 53.3967 290.98 53.1493 291.456 52.972C291.932 52.7947 292.478 52.706 293.094 52.706H293.388C294.396 52.706 295.161 52.9067 295.684 53.308C296.207 53.7 296.468 54.2413 296.468 54.932V58.236C296.468 58.404 296.505 58.53 296.58 58.614C296.664 58.698 296.762 58.74 296.874 58.74C296.967 58.74 297.07 58.7213 297.182 58.684C297.294 58.6467 297.383 58.614 297.448 58.586V59.846C297.103 60.042 296.692 60.14 296.216 60.14C295.703 60.14 295.311 60.0373 295.04 59.832C294.769 59.6173 294.611 59.3187 294.564 58.936C293.911 59.7387 293.108 60.14 292.156 60.14C291.447 60.14 290.863 59.9953 290.406 59.706C289.949 59.4167 289.72 58.866 289.72 58.054C289.72 57.3913 289.907 56.8873 290.28 56.542C290.663 56.1873 291.19 55.9493 291.862 55.828C292.534 55.7067 293.402 55.646 294.466 55.646V55.17ZM294.466 56.794C293.579 56.794 292.917 56.8827 292.478 57.06C292.049 57.228 291.834 57.508 291.834 57.9C291.834 58.208 291.918 58.4273 292.086 58.558C292.263 58.6793 292.529 58.74 292.884 58.74C293.127 58.74 293.369 58.6747 293.612 58.544C293.855 58.4133 294.055 58.2267 294.214 57.984C294.382 57.7413 294.466 57.4707 294.466 57.172V56.794ZM307.212 58.11H303.39L302.718 60H300.632L304.118 50.396H306.694L310.18 60H307.912L307.212 58.11ZM303.978 56.472H306.638C306.283 55.4173 305.854 54.162 305.35 52.706H305.28L303.978 56.472ZM312.875 53.896C313.463 53.1027 314.224 52.706 315.157 52.706C315.885 52.706 316.483 52.902 316.949 53.294C317.425 53.686 317.663 54.2553 317.663 55.002V60H315.619V55.45C315.619 55.086 315.512 54.7873 315.297 54.554C315.092 54.3113 314.826 54.19 314.499 54.19C314.135 54.19 313.823 54.33 313.561 54.61C313.3 54.8807 313.169 55.212 313.169 55.604V60H311.125V52.846H312.651L312.875 53.896ZM323.861 55.17C323.861 54.8527 323.758 54.596 323.553 54.4C323.357 54.204 323.035 54.106 322.587 54.106C322.325 54.106 322.101 54.1527 321.915 54.246C321.728 54.33 321.583 54.4373 321.481 54.568C321.387 54.6987 321.341 54.82 321.341 54.932V55.044H319.367C319.348 54.932 319.339 54.848 319.339 54.792C319.339 54.3907 319.469 54.0313 319.731 53.714C320.001 53.3967 320.375 53.1493 320.851 52.972C321.327 52.7947 321.873 52.706 322.489 52.706H322.783C323.791 52.706 324.556 52.9067 325.079 53.308C325.601 53.7 325.863 54.2413 325.863 54.932V58.236C325.863 58.404 325.9 58.53 325.975 58.614C326.059 58.698 326.157 58.74 326.269 58.74C326.362 58.74 326.465 58.7213 326.577 58.684C326.689 58.6467 326.777 58.614 326.843 58.586V59.846C326.497 60.042 326.087 60.14 325.611 60.14C325.097 60.14 324.705 60.0373 324.435 59.832C324.164 59.6173 324.005 59.3187 323.959 58.936C323.305 59.7387 322.503 60.14 321.551 60.14C320.841 60.14 320.258 59.9953 319.801 59.706C319.343 59.4167 319.115 58.866 319.115 58.054C319.115 57.3913 319.301 56.8873 319.675 56.542C320.057 56.1873 320.585 55.9493 321.257 55.828C321.929 55.7067 322.797 55.646 323.861 55.646V55.17ZM323.861 56.794C322.974 56.794 322.311 56.8827 321.873 57.06C321.443 57.228 321.229 57.508 321.229 57.9C321.229 58.208 321.313 58.4273 321.481 58.558C321.658 58.6793 321.924 58.74 322.279 58.74C322.521 58.74 322.764 58.6747 323.007 58.544C323.249 58.4133 323.45 58.2267 323.609 57.984C323.777 57.7413 323.861 57.4707 323.861 57.172V56.794ZM327.846 60V49.92H329.89V60H327.846ZM335.704 59.608C335.359 60.5413 334.934 61.274 334.43 61.806C333.926 62.3473 333.319 62.618 332.61 62.618C332.115 62.618 331.714 62.548 331.406 62.408V60.966C331.518 61.0127 331.663 61.0547 331.84 61.092C332.017 61.1387 332.185 61.162 332.344 61.162C332.941 61.162 333.366 60.728 333.618 59.86L330.916 52.846H333.086L334.668 57.34H334.752L336.236 52.846H338.252L335.704 59.608ZM343.14 59.874C342.953 59.9487 342.706 60.0093 342.398 60.056C342.099 60.112 341.833 60.14 341.6 60.14C340.881 60.14 340.34 59.986 339.976 59.678C339.612 59.37 339.43 58.8567 339.43 58.138V54.246H338.646V52.846H339.5L340.214 50.564H341.474V52.846H343.14V54.246H341.474V57.788C341.474 58.1613 341.544 58.4133 341.684 58.544C341.833 58.6747 342.029 58.74 342.272 58.74C342.384 58.74 342.529 58.7213 342.706 58.684C342.883 58.6467 343.028 58.6047 343.14 58.558V59.874ZM344.443 49.92H346.515V51.53H344.443V49.92ZM344.457 60V52.846H346.501V60H344.457ZM350.104 57.102C350.104 57.5687 350.225 57.9607 350.468 58.278C350.71 58.586 351.037 58.74 351.448 58.74C351.877 58.74 352.213 58.6093 352.456 58.348C352.708 58.0773 352.834 57.6807 352.834 57.158H354.766C354.766 57.8207 354.621 58.376 354.332 58.824C354.052 59.272 353.678 59.6033 353.212 59.818C352.745 60.0327 352.232 60.14 351.672 60.14H351.448C350.402 60.14 349.572 59.832 348.956 59.216C348.34 58.5907 348.032 57.7273 348.032 56.626V56.22C348.032 55.492 348.176 54.8667 348.466 54.344C348.764 53.812 349.17 53.406 349.684 53.126C350.197 52.846 350.785 52.706 351.448 52.706H351.672C352.222 52.706 352.731 52.8273 353.198 53.07C353.674 53.3033 354.052 53.6487 354.332 54.106C354.621 54.554 354.766 55.086 354.766 55.702H352.736C352.736 55.2167 352.628 54.8293 352.414 54.54C352.199 54.2507 351.882 54.106 351.462 54.106C351.042 54.106 350.71 54.274 350.468 54.61C350.225 54.9367 350.104 55.352 350.104 55.856V57.102ZM357.585 57.816C357.585 58.1427 357.73 58.3807 358.019 58.53C358.308 58.67 358.668 58.74 359.097 58.74C359.47 58.74 359.802 58.684 360.091 58.572C360.39 58.46 360.539 58.2827 360.539 58.04C360.539 57.7787 360.404 57.592 360.133 57.48C359.862 57.368 359.442 57.27 358.873 57.186C358.276 57.0833 357.786 56.9713 357.403 56.85C357.02 56.7287 356.689 56.5187 356.409 56.22C356.138 55.9213 356.003 55.506 356.003 54.974C356.003 54.4887 356.143 54.078 356.423 53.742C356.712 53.3967 357.09 53.14 357.557 52.972C358.033 52.7947 358.551 52.706 359.111 52.706H359.391C359.886 52.706 360.352 52.79 360.791 52.958C361.239 53.1167 361.598 53.3453 361.869 53.644C362.14 53.9333 362.275 54.2647 362.275 54.638C362.275 54.7127 362.27 54.7827 362.261 54.848C362.252 54.904 362.247 54.9367 362.247 54.946H360.455C360.455 54.386 360.026 54.106 359.167 54.106C358.775 54.106 358.458 54.162 358.215 54.274C357.982 54.386 357.865 54.54 357.865 54.736C357.865 54.9693 357.991 55.1327 358.243 55.226C358.504 55.3193 358.91 55.408 359.461 55.492C360.086 55.5947 360.59 55.7067 360.973 55.828C361.365 55.94 361.706 56.15 361.995 56.458C362.284 56.7567 362.429 57.1813 362.429 57.732C362.429 58.5813 362.13 59.1973 361.533 59.58C360.936 59.9533 360.175 60.14 359.251 60.14H358.789C358.21 60.14 357.692 60.0513 357.235 59.874C356.778 59.6967 356.418 59.4447 356.157 59.118C355.905 58.7913 355.779 58.418 355.779 57.998L355.793 57.718H357.585V57.816Z" fill="#060C3C"/>
<path opacity="0.4" d="M327.692 170.22C317.077 170.22 307.385 175.963 299 198H534V97C523.819 97 514.154 115.664 503.344 115.664C493.385 115.664 490.544 127.241 486.462 127.241C482.769 127.241 480.923 124.757 478.154 124.757C475.385 124.757 475.385 137.678 469.846 137.678C466.154 137.678 462.462 133.849 456.462 133.849C450.462 133.849 446.736 144.378 441.692 144.378C428.308 144.378 434.308 122.842 425.538 122.842C418.154 122.842 416.769 135.764 408.462 135.764C397.846 135.764 400.615 118.057 393.692 118.057C384.923 118.057 390.002 148.206 375.692 148.206C364.154 148.206 363.438 157.715 357.231 157.778C351.024 157.841 344.769 152.053 339.231 152.053C330.923 152.053 336.923 170.22 327.692 170.22Z" fill="url(#paint0_linear_1101_698)"/>
<path d="M299 198C307.385 175.963 317.077 170.22 327.692 170.22C336.923 170.22 330.923 152.053 339.231 152.053C344.769 152.053 351.024 157.841 357.231 157.778C363.438 157.715 364.154 148.206 375.692 148.206C390.002 148.206 384.923 118.057 393.692 118.057C400.615 118.057 397.846 135.764 408.462 135.764C416.769 135.764 418.154 122.842 425.538 122.842C434.308 122.842 428.308 144.378 441.692 144.378C446.736 144.378 450.462 133.849 456.462 133.849C462.462 133.849 466.154 137.678 469.846 137.678C475.385 137.678 475.385 124.757 478.154 124.757C480.923 124.757 482.769 127.241 486.462 127.241C490.544 127.241 493.385 115.664 503.344 115.664C514.154 115.664 523.819 97 534 97" stroke="#0064E9" stroke-width="2" stroke-linecap="round" stroke-linejoin="round"/>
<path d="M299 198C307.385 175.963 317.76 179.724 328.375 179.724C337.606 179.724 337.319 164.814 345.627 164.814C351.165 164.814 357.604 167.282 363.812 167.219C370.019 167.156 371.39 153.272 382.929 153.272C397.238 153.272 390.945 136.438 399.714 136.438C406.637 136.438 404.486 140.286 415.101 140.286C423.409 140.286 429.165 124.757 436.55 124.757C445.319 124.757 434.822 153.272 448.206 153.272C453.25 153.272 458.992 167.219 464.992 167.219C470.992 167.219 469.693 146.538 473.385 146.538C478.923 146.538 476.649 134.514 482.244 134.514C487.839 134.514 488.343 134.514 492.036 134.514C496.118 134.514 494.2 130.667 504.159 130.667C514.969 130.667 523.352 140.286 533.534 140.286" stroke="#FFD43D" stroke-width="2" stroke-linecap="round" stroke-linejoin="round"/>
<path d="M424.64 114.467C424.269 114.776 423.731 114.776 423.36 114.467L416.244 108.536C414.807 107.339 415.654 105 417.524 105L430.476 105C432.346 105 433.193 107.339 431.756 108.536L424.64 114.467Z" fill="#0064E9"/>
<rect x="389" y="78" width="70" height="33" rx="4" fill="#0064E9"/>
<path d="M401.416 85.648C401.192 86.448 400.8 87.392 400.24 88.48C399.68 89.56 399.172 90.368 398.716 90.904H401.476V88.516C401.748 87.98 401.964 87.432 402.124 86.872H402.652V90.904H403.696V91.972H402.652V94H401.476V91.972H397.6V90.892C398.688 89.26 399.54 87.512 400.156 85.648H401.416ZM408.067 85.648C408.851 85.648 409.479 85.856 409.951 86.272C410.431 86.688 410.671 87.244 410.671 87.94C410.671 88.372 410.579 88.724 410.395 88.996C410.219 89.268 409.939 89.52 409.555 89.752V89.8C410.011 90.008 410.355 90.264 410.587 90.568C410.827 90.872 410.947 91.276 410.947 91.78C410.947 92.516 410.695 93.092 410.191 93.508C409.695 93.916 408.987 94.12 408.067 94.12C407.187 94.12 406.487 93.916 405.967 93.508C405.447 93.092 405.187 92.516 405.187 91.78C405.187 91.276 405.307 90.868 405.547 90.556C405.787 90.236 406.131 89.984 406.579 89.8V89.752C406.139 89.48 405.843 89.212 405.691 88.948C405.539 88.684 405.463 88.372 405.463 88.012C405.463 87.244 405.703 86.66 406.183 86.26C406.663 85.852 407.291 85.648 408.067 85.648ZM408.067 86.716C407.635 86.716 407.287 86.836 407.023 87.076C406.767 87.316 406.639 87.62 406.639 87.988C406.639 88.356 406.767 88.66 407.023 88.9C407.287 89.14 407.635 89.26 408.067 89.26C408.499 89.26 408.843 89.14 409.099 88.9C409.363 88.66 409.495 88.356 409.495 87.988C409.495 87.62 409.363 87.316 409.099 87.076C408.843 86.836 408.499 86.716 408.067 86.716ZM408.067 90.328C407.283 90.328 406.759 90.584 406.495 91.096C406.407 91.288 406.363 91.488 406.363 91.696C406.363 92.144 406.523 92.484 406.843 92.716C407.163 92.94 407.571 93.052 408.067 93.052C408.571 93.052 408.979 92.936 409.291 92.704C409.611 92.464 409.771 92.128 409.771 91.696C409.771 91.272 409.615 90.94 409.303 90.7C408.999 90.452 408.587 90.328 408.067 90.328ZM413.89 85.36V91.288L416.626 87.868H417.862L415.498 90.844L418.018 94H416.65L414.814 91.72L413.89 92.68V94H412.762V85.36H413.89Z" fill="white"/>
<path opacity="0.8" d="M401.784 98.512L399.832 104H398.992L397.04 98.512H397.88L399.424 102.936H399.472L401.024 98.512H401.784ZM403.252 98.24V98.936H402.468V98.24H403.252ZM403.236 99.912V104H402.484V99.912H403.236ZM406.122 99.832C406.426 99.832 406.696 99.88 406.93 99.976C407.17 100.072 407.354 100.205 407.482 100.376C407.616 100.547 407.682 100.736 407.682 100.944L407.674 101.088H406.93V101.016C406.93 100.627 406.629 100.432 406.026 100.432C405.429 100.432 405.13 100.611 405.13 100.968C405.13 101.133 405.216 101.256 405.386 101.336C405.557 101.411 405.818 101.483 406.17 101.552C406.506 101.621 406.781 101.693 406.994 101.768C407.213 101.843 407.397 101.96 407.546 102.12C407.701 102.28 407.778 102.496 407.778 102.768C407.778 103.205 407.629 103.533 407.33 103.752C407.032 103.971 406.602 104.08 406.042 104.08H405.922C405.586 104.08 405.293 104.029 405.042 103.928C404.792 103.821 404.597 103.68 404.458 103.504C404.325 103.323 404.261 103.12 404.266 102.896V102.72H405.01V102.8C405.01 103.253 405.392 103.48 406.154 103.48C406.378 103.48 406.578 103.429 406.754 103.328C406.936 103.227 407.026 103.088 407.026 102.912C407.026 102.763 406.976 102.645 406.874 102.56C406.778 102.475 406.658 102.411 406.514 102.368C406.37 102.325 406.17 102.283 405.914 102.24C405.584 102.176 405.317 102.112 405.114 102.048C404.912 101.979 404.738 101.864 404.594 101.704C404.45 101.544 404.378 101.325 404.378 101.048C404.378 100.669 404.528 100.373 404.826 100.16C405.125 99.9413 405.533 99.832 406.05 99.832H406.122ZM409.604 98.24V98.936H408.82V98.24H409.604ZM409.588 99.912V104H408.836V99.912H409.588ZM411.794 99.912H412.746V100.512H411.794V102.952C411.794 103.144 411.831 103.283 411.906 103.368C411.981 103.453 412.095 103.496 412.25 103.496C412.389 103.496 412.554 103.456 412.746 103.376V103.936C412.554 104.032 412.306 104.08 412.002 104.08C411.687 104.08 411.447 103.987 411.282 103.8C411.122 103.613 411.042 103.317 411.042 102.912V100.512H410.594V99.912H411.066L411.322 98.608H411.794V99.912ZM415.312 99.832C415.882 99.832 416.338 100.008 416.68 100.36C417.021 100.712 417.192 101.195 417.192 101.808V102.104C417.192 102.717 417.024 103.2 416.688 103.552C416.352 103.904 415.893 104.08 415.312 104.08C414.73 104.08 414.272 103.904 413.936 103.552C413.6 103.2 413.432 102.717 413.432 102.104V101.808C413.432 101.195 413.602 100.712 413.944 100.36C414.285 100.008 414.741 99.832 415.312 99.832ZM415.312 100.432C414.954 100.432 414.677 100.555 414.48 100.8C414.282 101.045 414.184 101.405 414.184 101.88V102.032C414.184 102.496 414.28 102.853 414.472 103.104C414.669 103.355 414.949 103.48 415.312 103.48C415.664 103.48 415.938 103.357 416.136 103.112C416.338 102.861 416.44 102.501 416.44 102.032V101.88C416.44 101.416 416.341 101.059 416.144 100.808C415.952 100.557 415.674 100.432 415.312 100.432ZM420.113 99.832C420.492 99.832 420.788 99.9547 421.001 100.2C421.215 100.44 421.321 100.744 421.321 101.112L421.297 101.416H420.633V101.24C420.633 101.08 420.593 100.939 420.513 100.816C420.433 100.693 420.332 100.6 420.209 100.536C420.087 100.467 419.964 100.432 419.841 100.432C419.585 100.432 419.385 100.533 419.241 100.736C419.097 100.939 419.025 101.213 419.025 101.56V104H418.273V99.912H418.809L418.921 100.52C418.953 100.413 419.025 100.307 419.137 100.2C419.249 100.093 419.388 100.005 419.553 99.936C419.724 99.8667 419.911 99.832 420.113 99.832Z" fill="white"/>
<circle cx="444" cy="94" r="7" fill="white"/>
<path d="M444.513 92.2429C444.249 91.9607 443.751 91.9607 443.487 92.2429L440.867 95.0406C440.518 95.4133 440.825 95.9688 441.38 95.9688L446.62 95.9687C447.175 95.9687 447.482 95.4133 447.133 95.0406L444.513 92.2429Z" fill="#38E7B2"/>
<circle cx="424" cy="123" r="3.5" fill="#0064E9" stroke="#0064E9"/>
<g filter="url(#filter3_d_1101_698)">
<rect x="327" y="265.5" width="203" height="76" rx="6" fill="white"/>
</g>
<g clip-path="url(#clip1_1101_698)">
<path d="M357.738 302.585C355.418 302.585 353.537 304.467 353.537 306.787V317.297C353.537 319.617 355.418 321.498 357.738 321.498C360.058 321.498 361.94 319.617 361.94 317.297V306.787C361.938 304.467 360.057 302.585 357.738 302.585Z" fill="#E91E63"/>
<path d="M343.032 306.787C343.032 309.108 344.915 310.992 347.237 310.992C349.558 310.992 351.442 309.108 351.442 306.787V302.582H347.24C347.238 302.582 347.238 302.582 347.237 302.582C344.915 302.582 343.032 304.465 343.032 306.787Z" fill="#E91E63"/>
<path d="M357.743 281.499C357.742 281.499 357.74 281.499 357.738 281.499C355.417 281.499 353.533 283.382 353.533 285.704C353.533 288.025 355.417 289.909 357.738 289.909H361.94V285.704C361.94 285.702 361.94 285.699 361.94 285.695C361.938 283.377 360.06 281.499 357.743 281.499Z" fill="#36C5F0"/>
<path d="M347.208 300.45H357.738C360.06 300.45 361.943 298.567 361.943 296.245C361.943 293.923 360.06 292.04 357.738 292.04H347.208C344.887 292.04 343.003 293.923 343.003 296.245C343.003 298.567 344.887 300.45 347.208 300.45Z" fill="#36C5F0"/>
<path d="M378.762 292.039C376.443 292.039 374.565 293.917 374.565 296.235V296.244V300.449H378.767C381.088 300.449 382.972 298.565 382.972 296.244C382.972 293.922 381.088 292.039 378.767 292.039C378.765 292.039 378.763 292.039 378.762 292.039Z" fill="#4CAF50"/>
<path d="M364.068 285.703V296.245C364.068 298.565 365.95 300.446 368.27 300.446C370.59 300.446 372.472 298.565 372.472 296.245V285.703C372.472 283.383 370.59 281.501 368.27 281.501C365.95 281.501 364.068 283.383 364.068 285.703Z" fill="#4CAF50"/>
<path d="M372.47 317.293C372.47 314.973 370.589 313.092 368.269 313.092H364.067V317.297C364.069 319.615 365.949 321.495 368.269 321.495C370.589 321.495 372.47 319.613 372.47 317.293Z" fill="#FF9800"/>
<path d="M378.799 302.582H368.268C365.947 302.582 364.063 304.465 364.063 306.787C364.063 309.108 365.947 310.992 368.268 310.992H378.799C381.12 310.992 383.004 309.108 383.004 306.787C383.004 304.465 381.12 302.582 378.799 302.582Z" fill="#FF9800"/>
</g>
<rect x="409" y="296" width="86" height="5.9542" rx="2.9771" fill="#B4B6C4"/>
<rect x="409" y="309.893" width="86" height="5.95419" rx="2.9771" fill="#B4B6C4"/>
<g filter="url(#filter4_d_1101_698)">
<rect x="38" y="57.5" width="180" height="176" rx="6" fill="white"/>
</g>
<path d="M60.09 80.612C60.09 80.2573 59.95 79.982 59.67 79.786C59.39 79.5807 59.0027 79.478 58.508 79.478C57.9947 79.478 57.5933 79.562 57.304 79.73C57.024 79.8887 56.884 80.1033 56.884 80.374C56.884 80.6073 56.9727 80.8033 57.15 80.962C57.3273 81.1113 57.5513 81.2327 57.822 81.326C58.102 81.4193 58.48 81.522 58.956 81.634C59.656 81.802 60.23 81.9747 60.678 82.152C61.1353 82.3293 61.5227 82.6047 61.84 82.978C62.1667 83.3513 62.33 83.8507 62.33 84.476C62.33 85.568 61.9753 86.3707 61.266 86.884C60.566 87.388 59.6 87.64 58.368 87.64C57.248 87.64 56.3193 87.3973 55.582 86.912C54.854 86.4173 54.49 85.6707 54.49 84.672L54.504 84.364H56.548L56.534 84.588C56.534 84.9987 56.688 85.3253 56.996 85.568C57.304 85.8013 57.738 85.918 58.298 85.918C58.9513 85.918 59.418 85.8153 59.698 85.61C59.9873 85.4047 60.132 85.1433 60.132 84.826C60.132 84.5833 60.0433 84.3873 59.866 84.238C59.698 84.0793 59.4787 83.958 59.208 83.874C58.9467 83.7807 58.578 83.678 58.102 83.566C57.3927 83.3887 56.814 83.2113 56.366 83.034C55.918 82.8567 55.5307 82.572 55.204 82.18C54.8773 81.788 54.714 81.2607 54.714 80.598C54.714 79.982 54.882 79.4593 55.218 79.03C55.554 78.6007 56.002 78.2833 56.562 78.078C57.1313 77.8633 57.766 77.756 58.466 77.756C59.5393 77.756 60.4167 77.994 61.098 78.47C61.7793 78.9367 62.12 79.6367 62.12 80.57V80.738H60.09V80.612ZM68.1927 82.67C68.1927 82.3527 68.0901 82.096 67.8847 81.9C67.6887 81.704 67.3667 81.606 66.9187 81.606C66.6574 81.606 66.4334 81.6527 66.2467 81.746C66.0601 81.83 65.9154 81.9373 65.8127 82.068C65.7194 82.1987 65.6727 82.32 65.6727 82.432V82.544H63.6987C63.6801 82.432 63.6707 82.348 63.6707 82.292C63.6707 81.8907 63.8014 81.5313 64.0627 81.214C64.3334 80.8967 64.7067 80.6493 65.1827 80.472C65.6587 80.2947 66.2047 80.206 66.8207 80.206H67.1147C68.1227 80.206 68.8881 80.4067 69.4107 80.808C69.9334 81.2 70.1947 81.7413 70.1947 82.432V85.736C70.1947 85.904 70.2321 86.03 70.3067 86.114C70.3907 86.198 70.4887 86.24 70.6007 86.24C70.6941 86.24 70.7967 86.2213 70.9087 86.184C71.0207 86.1467 71.1094 86.114 71.1747 86.086V87.346C70.8294 87.542 70.4187 87.64 69.9427 87.64C69.4294 87.64 69.0374 87.5373 68.7667 87.332C68.4961 87.1173 68.3374 86.8187 68.2907 86.436C67.6374 87.2387 66.8347 87.64 65.8827 87.64C65.1734 87.64 64.5901 87.4953 64.1327 87.206C63.6754 86.9167 63.4467 86.366 63.4467 85.554C63.4467 84.8913 63.6334 84.3873 64.0067 84.042C64.3894 83.6873 64.9167 83.4493 65.5887 83.328C66.2607 83.2067 67.1287 83.146 68.1927 83.146V82.67ZM68.1927 84.294C67.3061 84.294 66.6434 84.3827 66.2047 84.56C65.7754 84.728 65.5607 85.008 65.5607 85.4C65.5607 85.708 65.6447 85.9273 65.8127 86.058C65.9901 86.1793 66.2561 86.24 66.6107 86.24C66.8534 86.24 67.0961 86.1747 67.3387 86.044C67.5814 85.9133 67.7821 85.7267 67.9407 85.484C68.1087 85.2413 68.1927 84.9707 68.1927 84.672V84.294ZM72.1779 87.5V77.42H74.2219V87.5H72.1779ZM82.7241 84.826C82.7241 85.4513 82.5747 85.9787 82.2761 86.408C81.9774 86.828 81.5807 87.1407 81.0861 87.346C80.6007 87.542 80.0687 87.64 79.4901 87.64H79.2661C78.6034 87.64 78.0061 87.5 77.4741 87.22C76.9421 86.94 76.5221 86.5387 76.2141 86.016C75.9154 85.484 75.7661 84.854 75.7661 84.126V83.72C75.7661 83.0013 75.9201 82.376 76.2281 81.844C76.5361 81.312 76.9514 80.906 77.4741 80.626C78.0061 80.346 78.6034 80.206 79.2661 80.206H79.4901C80.0687 80.206 80.6054 80.3273 81.1001 80.57C81.5947 80.8033 81.9914 81.1487 82.2901 81.606C82.5887 82.054 82.7381 82.586 82.7381 83.202V84.266H77.8381V84.602C77.8381 85.0687 77.9734 85.4607 78.2441 85.778C78.5241 86.086 78.9021 86.24 79.3781 86.24C79.8074 86.24 80.1434 86.1233 80.3861 85.89C80.6381 85.6473 80.7641 85.2927 80.7641 84.826H82.7241ZM79.2801 81.606C78.8694 81.606 78.5334 81.7507 78.2721 82.04C78.0201 82.3293 77.8754 82.698 77.8381 83.146H80.6661C80.6661 82.67 80.5541 82.2967 80.3301 82.026C80.1154 81.746 79.7654 81.606 79.2801 81.606ZM85.5518 85.316C85.5518 85.6427 85.6965 85.8807 85.9858 86.03C86.2752 86.17 86.6345 86.24 87.0638 86.24C87.4372 86.24 87.7685 86.184 88.0578 86.072C88.3565 85.96 88.5058 85.7827 88.5058 85.54C88.5058 85.2787 88.3705 85.092 88.0998 84.98C87.8292 84.868 87.4092 84.77 86.8398 84.686C86.2425 84.5833 85.7525 84.4713 85.3698 84.35C84.9872 84.2287 84.6558 84.0187 84.3758 83.72C84.1052 83.4213 83.9698 83.006 83.9698 82.474C83.9698 81.9887 84.1098 81.578 84.3898 81.242C84.6792 80.8967 85.0572 80.64 85.5238 80.472C85.9998 80.2947 86.5178 80.206 87.0778 80.206H87.3578C87.8525 80.206 88.3192 80.29 88.7578 80.458C89.2058 80.6167 89.5652 80.8453 89.8358 81.144C90.1065 81.4333 90.2418 81.7647 90.2418 82.138C90.2418 82.2127 90.2372 82.2827 90.2278 82.348C90.2185 82.404 90.2138 82.4367 90.2138 82.446H88.4218C88.4218 81.886 87.9925 81.606 87.1338 81.606C86.7418 81.606 86.4245 81.662 86.1818 81.774C85.9485 81.886 85.8318 82.04 85.8318 82.236C85.8318 82.4693 85.9578 82.6327 86.2098 82.726C86.4712 82.8193 86.8772 82.908 87.4278 82.992C88.0532 83.0947 88.5572 83.2067 88.9398 83.328C89.3318 83.44 89.6725 83.65 89.9618 83.958C90.2512 84.2567 90.3958 84.6813 90.3958 85.232C90.3958 86.0813 90.0972 86.6973 89.4998 87.08C88.9025 87.4533 88.1418 87.64 87.2178 87.64H86.7558C86.1772 87.64 85.6592 87.5513 85.2018 87.374C84.7445 87.1967 84.3852 86.9447 84.1238 86.618C83.8718 86.2913 83.7458 85.918 83.7458 85.498L83.7598 85.218H85.5518V85.316ZM100.053 80.612C100.053 80.2573 99.9129 79.982 99.6329 79.786C99.3529 79.5807 98.9656 79.478 98.4709 79.478C97.9576 79.478 97.5562 79.562 97.2669 79.73C96.9869 79.8887 96.8469 80.1033 96.8469 80.374C96.8469 80.6073 96.9356 80.8033 97.1129 80.962C97.2902 81.1113 97.5142 81.2327 97.7849 81.326C98.0649 81.4193 98.4429 81.522 98.9189 81.634C99.6189 81.802 100.193 81.9747 100.641 82.152C101.098 82.3293 101.486 82.6047 101.803 82.978C102.13 83.3513 102.293 83.8507 102.293 84.476C102.293 85.568 101.938 86.3707 101.229 86.884C100.529 87.388 99.5629 87.64 98.3309 87.64C97.2109 87.64 96.2822 87.3973 95.5449 86.912C94.8169 86.4173 94.4529 85.6707 94.4529 84.672L94.4669 84.364H96.5109L96.4969 84.588C96.4969 84.9987 96.6509 85.3253 96.9589 85.568C97.2669 85.8013 97.7009 85.918 98.2609 85.918C98.9142 85.918 99.3809 85.8153 99.6609 85.61C99.9502 85.4047 100.095 85.1433 100.095 84.826C100.095 84.5833 100.006 84.3873 99.8289 84.238C99.6609 84.0793 99.4416 83.958 99.1709 83.874C98.9096 83.7807 98.5409 83.678 98.0649 83.566C97.3556 83.3887 96.7769 83.2113 96.3289 83.034C95.8809 82.8567 95.4936 82.572 95.1669 82.18C94.8402 81.788 94.6769 81.2607 94.6769 80.598C94.6769 79.982 94.8449 79.4593 95.1809 79.03C95.5169 78.6007 95.9649 78.2833 96.5249 78.078C97.0942 77.8633 97.7289 77.756 98.4289 77.756C99.5022 77.756 100.38 77.994 101.061 78.47C101.742 78.9367 102.083 79.6367 102.083 80.57V80.738H100.053V80.612ZM107.652 87.374C107.465 87.4487 107.218 87.5093 106.91 87.556C106.611 87.612 106.345 87.64 106.112 87.64C105.393 87.64 104.852 87.486 104.488 87.178C104.124 86.87 103.942 86.3567 103.942 85.638V81.746H103.158V80.346H104.012L104.726 78.064H105.986V80.346H107.652V81.746H105.986V85.288C105.986 85.6613 106.056 85.9133 106.196 86.044C106.345 86.1747 106.541 86.24 106.784 86.24C106.896 86.24 107.04 86.2213 107.218 86.184C107.395 86.1467 107.54 86.1047 107.652 86.058V87.374ZM113.351 82.67C113.351 82.3527 113.248 82.096 113.043 81.9C112.847 81.704 112.525 81.606 112.077 81.606C111.816 81.606 111.592 81.6527 111.405 81.746C111.218 81.83 111.074 81.9373 110.971 82.068C110.878 82.1987 110.831 82.32 110.831 82.432V82.544H108.857C108.838 82.432 108.829 82.348 108.829 82.292C108.829 81.8907 108.96 81.5313 109.221 81.214C109.492 80.8967 109.865 80.6493 110.341 80.472C110.817 80.2947 111.363 80.206 111.979 80.206H112.273C113.281 80.206 114.046 80.4067 114.569 80.808C115.092 81.2 115.353 81.7413 115.353 82.432V85.736C115.353 85.904 115.39 86.03 115.465 86.114C115.549 86.198 115.647 86.24 115.759 86.24C115.852 86.24 115.955 86.2213 116.067 86.184C116.179 86.1467 116.268 86.114 116.333 86.086V87.346C115.988 87.542 115.577 87.64 115.101 87.64C114.588 87.64 114.196 87.5373 113.925 87.332C113.654 87.1173 113.496 86.8187 113.449 86.436C112.796 87.2387 111.993 87.64 111.041 87.64C110.332 87.64 109.748 87.4953 109.291 87.206C108.834 86.9167 108.605 86.366 108.605 85.554C108.605 84.8913 108.792 84.3873 109.165 84.042C109.548 83.6873 110.075 83.4493 110.747 83.328C111.419 83.2067 112.287 83.146 113.351 83.146V82.67ZM113.351 84.294C112.464 84.294 111.802 84.3827 111.363 84.56C110.934 84.728 110.719 85.008 110.719 85.4C110.719 85.708 110.803 85.9273 110.971 86.058C111.148 86.1793 111.414 86.24 111.769 86.24C112.012 86.24 112.254 86.1747 112.497 86.044C112.74 85.9133 112.94 85.7267 113.099 85.484C113.267 85.2413 113.351 84.9707 113.351 84.672V84.294ZM121.214 87.374C121.027 87.4487 120.78 87.5093 120.472 87.556C120.173 87.612 119.907 87.64 119.674 87.64C118.955 87.64 118.414 87.486 118.05 87.178C117.686 86.87 117.504 86.3567 117.504 85.638V81.746H116.72V80.346H117.574L118.288 78.064H119.548V80.346H121.214V81.746H119.548V85.288C119.548 85.6613 119.618 85.9133 119.758 86.044C119.907 86.1747 120.103 86.24 120.346 86.24C120.458 86.24 120.603 86.2213 120.78 86.184C120.957 86.1467 121.102 86.1047 121.214 86.058V87.374ZM123.819 85.316C123.819 85.6427 123.964 85.8807 124.253 86.03C124.543 86.17 124.902 86.24 125.331 86.24C125.705 86.24 126.036 86.184 126.325 86.072C126.624 85.96 126.773 85.7827 126.773 85.54C126.773 85.2787 126.638 85.092 126.367 84.98C126.097 84.868 125.677 84.77 125.107 84.686C124.51 84.5833 124.02 84.4713 123.637 84.35C123.255 84.2287 122.923 84.0187 122.643 83.72C122.373 83.4213 122.237 83.006 122.237 82.474C122.237 81.9887 122.377 81.578 122.657 81.242C122.947 80.8967 123.325 80.64 123.791 80.472C124.267 80.2947 124.785 80.206 125.345 80.206H125.625C126.12 80.206 126.587 80.29 127.025 80.458C127.473 80.6167 127.833 80.8453 128.103 81.144C128.374 81.4333 128.509 81.7647 128.509 82.138C128.509 82.2127 128.505 82.2827 128.495 82.348C128.486 82.404 128.481 82.4367 128.481 82.446H126.689C126.689 81.886 126.26 81.606 125.401 81.606C125.009 81.606 124.692 81.662 124.449 81.774C124.216 81.886 124.099 82.04 124.099 82.236C124.099 82.4693 124.225 82.6327 124.477 82.726C124.739 82.8193 125.145 82.908 125.695 82.992C126.321 83.0947 126.825 83.2067 127.207 83.328C127.599 83.44 127.94 83.65 128.229 83.958C128.519 84.2567 128.663 84.6813 128.663 85.232C128.663 86.0813 128.365 86.6973 127.767 87.08C127.17 87.4533 126.409 87.64 125.485 87.64H125.023C124.445 87.64 123.927 87.5513 123.469 87.374C123.012 87.1967 122.653 86.9447 122.391 86.618C122.139 86.2913 122.013 85.918 122.013 85.498L122.027 85.218H123.819V85.316Z" fill="#060C3C"/>
<rect x="82" y="191.5" width="122" height="6" rx="3" fill="#B4B6C4"/>
<rect x="52" y="191.5" width="20" height="6" rx="3" fill="#B4B6C4"/>
<rect x="82" y="205.5" width="122" height="6" rx="3" fill="#B4B6C4"/>
<rect x="52" y="205.5" width="20" height="6" rx="3" fill="#B4B6C4"/>
<path d="M134.237 109.156C128.04 107.838 121.586 108.517 115.798 111.094C110.01 113.67 105.187 118.013 102.019 123.5C98.8516 128.987 97.5021 135.335 98.1643 141.636C98.8266 147.937 101.466 153.866 105.706 158.574C109.945 163.282 115.566 166.527 121.763 167.844C127.96 169.162 134.414 168.483 140.202 165.906C145.99 163.33 150.813 158.987 153.981 153.5C157.148 148.013 158.498 141.665 157.836 135.364L128 138.5L134.237 109.156Z" fill="#0064E9"/>
<path d="M140.165 102.313C146.752 103.826 152.69 107.385 157.128 112.481C161.567 117.576 164.279 123.946 164.875 130.677L133 133.5L140.165 102.313Z" fill="#FFDC60"/>
<g filter="url(#filter5_d_1101_698)">
<rect x="327" y="373.5" width="236" height="152" rx="6" fill="white"/>
</g>
<path d="M519.63 393.954C520.261 393.954 520.811 394.093 521.28 394.372C521.749 394.643 522.112 395.036 522.369 395.549C522.626 396.055 522.754 396.653 522.754 397.342V398.112C522.754 398.801 522.626 399.403 522.369 399.916C522.112 400.422 521.749 400.814 521.28 401.093C520.811 401.364 520.261 401.5 519.63 401.5H517.012V393.954H519.63ZM518.09 394.933V400.521H519.63C520.283 400.521 520.785 400.319 521.137 399.916C521.496 399.505 521.676 398.904 521.676 398.112V397.342C521.676 396.565 521.5 395.971 521.148 395.56C520.803 395.142 520.297 394.933 519.63 394.933H518.09ZM526.547 395.769C527.288 395.769 527.838 395.916 528.197 396.209C528.564 396.502 528.747 396.928 528.747 397.485V400.4C528.747 400.532 528.776 400.631 528.835 400.697C528.894 400.756 528.967 400.785 529.055 400.785C529.224 400.785 529.392 400.734 529.561 400.631V401.39C529.312 401.537 529.029 401.61 528.714 401.61C528.399 401.61 528.164 401.522 528.01 401.346C527.856 401.163 527.772 400.913 527.757 400.598C527.302 401.273 526.646 401.61 525.788 401.61C525.172 401.61 524.71 401.478 524.402 401.214C524.101 400.943 523.951 400.517 523.951 399.938C523.951 399.483 524.068 399.128 524.303 398.871C524.538 398.607 524.926 398.416 525.469 398.299C526.012 398.182 526.76 398.123 527.713 398.123V397.606C527.713 397.232 527.603 396.972 527.383 396.825C527.163 396.671 526.844 396.594 526.426 396.594C526.03 396.594 525.722 396.671 525.502 396.825C525.282 396.979 525.172 397.195 525.172 397.474V397.606H524.16C524.145 397.503 524.138 397.382 524.138 397.243C524.138 396.986 524.241 396.744 524.446 396.517C524.651 396.29 524.93 396.11 525.282 395.978C525.634 395.839 526.023 395.769 526.448 395.769H526.547ZM527.713 398.926C526.943 398.926 526.36 398.966 525.964 399.047C525.575 399.12 525.315 399.234 525.183 399.388C525.051 399.542 524.985 399.755 524.985 400.026C524.985 400.532 525.37 400.785 526.14 400.785C526.411 400.785 526.668 400.719 526.91 400.587C527.152 400.448 527.346 400.253 527.493 400.004C527.64 399.755 527.713 399.469 527.713 399.146V398.926ZM531.826 393.58V394.537H530.748V393.58H531.826ZM531.804 395.879V401.5H530.77V395.879H531.804ZM534.706 393.58V401.5H533.672V393.58H534.706ZM539.057 401.28C538.808 401.896 538.577 402.365 538.364 402.688C538.152 403.018 537.935 403.242 537.715 403.359C537.495 403.484 537.239 403.546 536.945 403.546C536.674 403.546 536.417 403.495 536.175 403.392V402.545C536.417 402.648 536.601 402.699 536.725 402.699C537.026 402.699 537.275 402.596 537.473 402.391C537.679 402.193 537.847 401.878 537.979 401.445L535.79 395.879H536.89L538.507 400.026H538.551L540.146 395.879H541.158L539.057 401.28Z" fill="#5D6180"/>
<path d="M352.072 403.416C351.764 403.537 351.363 403.598 350.868 403.598C350.392 403.598 350.005 403.481 349.706 403.248C349.407 403.015 349.258 402.623 349.258 402.072C349.258 401.269 349.151 400.644 348.936 400.196C348.731 399.748 348.339 399.524 347.76 399.524H346.136V403.5H344.008V393.896H348.306C349.221 393.896 349.986 394.083 350.602 394.456C351.227 394.829 351.54 395.436 351.54 396.276C351.54 396.612 351.465 396.943 351.316 397.27C351.167 397.597 350.957 397.877 350.686 398.11C350.425 398.343 350.135 398.488 349.818 398.544V398.614C350.229 398.745 350.588 399.025 350.896 399.454C351.204 399.883 351.358 400.457 351.358 401.176C351.358 402.203 351.596 402.791 352.072 402.94V403.416ZM348.236 397.83C348.544 397.83 348.805 397.727 349.02 397.522C349.244 397.317 349.356 397.069 349.356 396.78V396.682C349.356 396.374 349.249 396.122 349.034 395.926C348.829 395.721 348.563 395.618 348.236 395.618H346.136V397.83H348.236ZM359.871 400.826C359.871 401.451 359.721 401.979 359.423 402.408C359.124 402.828 358.727 403.141 358.233 403.346C357.747 403.542 357.215 403.64 356.637 403.64H356.413C355.75 403.64 355.153 403.5 354.621 403.22C354.089 402.94 353.669 402.539 353.361 402.016C353.062 401.484 352.913 400.854 352.913 400.126V399.72C352.913 399.001 353.067 398.376 353.375 397.844C353.683 397.312 354.098 396.906 354.621 396.626C355.153 396.346 355.75 396.206 356.413 396.206H356.637C357.215 396.206 357.752 396.327 358.247 396.57C358.741 396.803 359.138 397.149 359.437 397.606C359.735 398.054 359.885 398.586 359.885 399.202V400.266H354.985V400.602C354.985 401.069 355.12 401.461 355.391 401.778C355.671 402.086 356.049 402.24 356.525 402.24C356.954 402.24 357.29 402.123 357.533 401.89C357.785 401.647 357.911 401.293 357.911 400.826H359.871ZM356.427 397.606C356.016 397.606 355.68 397.751 355.419 398.04C355.167 398.329 355.022 398.698 354.985 399.146H357.813C357.813 398.67 357.701 398.297 357.477 398.026C357.262 397.746 356.912 397.606 356.427 397.606ZM365.386 403.5H363.076L360.57 396.346H362.74L364.294 401.134H364.364L365.918 396.346H367.906L365.386 403.5ZM375.552 400.826C375.552 401.451 375.403 401.979 375.104 402.408C374.806 402.828 374.409 403.141 373.914 403.346C373.429 403.542 372.897 403.64 372.318 403.64H372.094C371.432 403.64 370.834 403.5 370.302 403.22C369.77 402.94 369.35 402.539 369.042 402.016C368.744 401.484 368.594 400.854 368.594 400.126V399.72C368.594 399.001 368.748 398.376 369.056 397.844C369.364 397.312 369.78 396.906 370.302 396.626C370.834 396.346 371.432 396.206 372.094 396.206H372.318C372.897 396.206 373.434 396.327 373.928 396.57C374.423 396.803 374.82 397.149 375.118 397.606C375.417 398.054 375.566 398.586 375.566 399.202V400.266H370.666V400.602C370.666 401.069 370.802 401.461 371.072 401.778C371.352 402.086 371.73 402.24 372.206 402.24C372.636 402.24 372.972 402.123 373.214 401.89C373.466 401.647 373.592 401.293 373.592 400.826H375.552ZM372.108 397.606C371.698 397.606 371.362 397.751 371.1 398.04C370.848 398.329 370.704 398.698 370.666 399.146H373.494C373.494 398.67 373.382 398.297 373.158 398.026C372.944 397.746 372.594 397.606 372.108 397.606ZM378.842 397.396C379.43 396.603 380.191 396.206 381.124 396.206C381.852 396.206 382.449 396.402 382.916 396.794C383.392 397.186 383.63 397.755 383.63 398.502V403.5H381.586V398.95C381.586 398.586 381.479 398.287 381.264 398.054C381.059 397.811 380.793 397.69 380.466 397.69C380.102 397.69 379.789 397.83 379.528 398.11C379.267 398.381 379.136 398.712 379.136 399.104V403.5H377.092V396.346H378.618L378.842 397.396ZM391.955 401.82C391.955 401.96 391.997 402.067 392.081 402.142C392.165 402.207 392.259 402.24 392.361 402.24C392.455 402.24 392.557 402.221 392.669 402.184C392.781 402.147 392.87 402.114 392.935 402.086V403.346C392.59 403.542 392.179 403.64 391.703 403.64C390.77 403.64 390.229 403.299 390.079 402.618C389.491 403.299 388.773 403.64 387.923 403.64C387.195 403.64 386.593 403.444 386.117 403.052C385.651 402.66 385.417 402.091 385.417 401.344V396.346H387.461V400.896C387.461 401.26 387.564 401.563 387.769 401.806C387.984 402.039 388.255 402.156 388.581 402.156C388.945 402.156 389.258 402.021 389.519 401.75C389.781 401.47 389.911 401.134 389.911 400.742V396.346H391.955V401.82ZM400.654 400.826C400.654 401.451 400.504 401.979 400.206 402.408C399.907 402.828 399.51 403.141 399.016 403.346C398.53 403.542 397.998 403.64 397.42 403.64H397.196C396.533 403.64 395.936 403.5 395.404 403.22C394.872 402.94 394.452 402.539 394.144 402.016C393.845 401.484 393.696 400.854 393.696 400.126V399.72C393.696 399.001 393.85 398.376 394.158 397.844C394.466 397.312 394.881 396.906 395.404 396.626C395.936 396.346 396.533 396.206 397.196 396.206H397.42C397.998 396.206 398.535 396.327 399.03 396.57C399.524 396.803 399.921 397.149 400.22 397.606C400.518 398.054 400.668 398.586 400.668 399.202V400.266H395.768V400.602C395.768 401.069 395.903 401.461 396.174 401.778C396.454 402.086 396.832 402.24 397.308 402.24C397.737 402.24 398.073 402.123 398.316 401.89C398.568 401.647 398.694 401.293 398.694 400.826H400.654ZM397.21 397.606C396.799 397.606 396.463 397.751 396.202 398.04C395.95 398.329 395.805 398.698 395.768 399.146H398.596C398.596 398.67 398.484 398.297 398.26 398.026C398.045 397.746 397.695 397.606 397.21 397.606ZM407.286 399.692C407.286 400.401 407.477 400.952 407.86 401.344C408.252 401.727 408.742 401.918 409.33 401.918C409.908 401.918 410.361 401.745 410.688 401.4C411.014 401.055 411.178 400.537 411.178 399.846H409.008V398.278H413.208V401.596C413.208 402.063 413.217 402.473 413.236 402.828C413.264 403.183 413.282 403.407 413.292 403.5H412.102C411.98 403.164 411.868 402.805 411.766 402.422C411.467 402.805 411.075 403.103 410.59 403.318C410.114 403.533 409.605 403.64 409.064 403.64H408.994C408.228 403.64 407.542 403.467 406.936 403.122C406.338 402.777 405.867 402.282 405.522 401.638C405.186 400.994 405.018 400.243 405.018 399.384V398.012C405.018 397.153 405.195 396.402 405.55 395.758C405.904 395.114 406.399 394.619 407.034 394.274C407.678 393.929 408.406 393.756 409.218 393.756H409.414C410.114 393.756 410.753 393.905 411.332 394.204C411.91 394.493 412.368 394.909 412.704 395.45C413.04 395.982 413.208 396.603 413.208 397.312H411.164C411.164 396.705 410.986 396.248 410.632 395.94C410.277 395.632 409.829 395.478 409.288 395.478C408.7 395.478 408.219 395.674 407.846 396.066C407.472 396.449 407.286 396.995 407.286 397.704V399.692ZM419.077 398.796C419.077 398.507 418.997 398.259 418.839 398.054C418.68 397.839 418.428 397.732 418.083 397.732C417.756 397.732 417.504 397.863 417.327 398.124C417.159 398.376 417.075 398.693 417.075 399.076V403.5H415.059V396.346H416.571L416.823 397.396C416.86 397.293 416.953 397.149 417.103 396.962C417.261 396.775 417.485 396.603 417.775 396.444C418.073 396.285 418.423 396.206 418.825 396.206C419.469 396.206 419.963 396.407 420.309 396.808C420.663 397.209 420.841 397.741 420.841 398.404C420.841 398.544 420.831 398.684 420.813 398.824C420.803 398.964 420.794 399.062 420.785 399.118H419.077V398.796ZM428.81 400.126C428.81 400.845 428.656 401.47 428.348 402.002C428.05 402.534 427.634 402.94 427.102 403.22C426.57 403.5 425.973 403.64 425.31 403.64H425.086C424.424 403.64 423.826 403.5 423.294 403.22C422.762 402.94 422.342 402.534 422.034 402.002C421.736 401.47 421.586 400.845 421.586 400.126V399.72C421.586 399.001 421.736 398.376 422.034 397.844C422.342 397.312 422.762 396.906 423.294 396.626C423.826 396.346 424.424 396.206 425.086 396.206H425.31C425.973 396.206 426.57 396.346 427.102 396.626C427.634 396.906 428.05 397.312 428.348 397.844C428.656 398.376 428.81 399.001 428.81 399.72V400.126ZM426.738 399.356C426.738 398.787 426.594 398.353 426.304 398.054C426.024 397.755 425.656 397.606 425.198 397.606C424.741 397.606 424.368 397.755 424.078 398.054C423.798 398.353 423.658 398.787 423.658 399.356V400.49C423.658 401.059 423.798 401.493 424.078 401.792C424.368 402.091 424.741 402.24 425.198 402.24C425.656 402.24 426.024 402.091 426.304 401.792C426.594 401.493 426.738 401.059 426.738 400.49V399.356ZM435.104 399.51C434.6 401.283 434.218 402.613 433.956 403.5H431.674L429.49 396.346H431.604L432.836 400.77H432.92C433.163 399.911 433.35 399.267 433.48 398.838L434.194 396.346H436.238L437.484 400.77H437.568C438.128 398.81 438.544 397.335 438.814 396.346H440.802L438.618 403.5H436.364L435.188 399.51H435.104ZM445.693 403.374C445.506 403.449 445.259 403.509 444.951 403.556C444.652 403.612 444.386 403.64 444.153 403.64C443.434 403.64 442.893 403.486 442.529 403.178C442.165 402.87 441.983 402.357 441.983 401.638V397.746H441.199V396.346H442.053L442.767 394.064H444.027V396.346H445.693V397.746H444.027V401.288C444.027 401.661 444.097 401.913 444.237 402.044C444.386 402.175 444.582 402.24 444.825 402.24C444.937 402.24 445.081 402.221 445.259 402.184C445.436 402.147 445.581 402.105 445.693 402.058V403.374ZM449.054 397.046C449.595 396.486 450.258 396.206 451.042 396.206C451.77 396.206 452.367 396.402 452.834 396.794C453.31 397.186 453.548 397.755 453.548 398.502V403.5H451.504V398.95C451.504 398.586 451.397 398.287 451.182 398.054C450.977 397.811 450.711 397.69 450.384 397.69C450.02 397.69 449.707 397.83 449.446 398.11C449.185 398.381 449.054 398.712 449.054 399.104V403.5H447.01V393.42H449.054V397.046Z" fill="#060C3C"/>
<path d="M351 457.5H369V509.5H351V457.5Z" fill="#0064E9"/>
<path d="M385 429.5H403V509.5H385V429.5Z" fill="#FFDC60"/>
<path d="M419 468.5H437V509.5H419V468.5Z" fill="#0064E9"/>
<path d="M453 449.5H471V509.5H453V449.5Z" fill="#FFDC60"/>
<path d="M487 485.5H505V509.5H487V485.5Z" fill="#0064E9"/>
<path d="M521 440.5H539V509.5H521V440.5Z" fill="#FFDC60"/>
<defs>
<filter id="filter0_d_1101_698" x="9" y="236.496" width="324" height="205.008" filterUnits="userSpaceOnUse" color-interpolation-filters="sRGB">
<feFlood flood-opacity="0" result="BackgroundImageFix"/>
<feColorMatrix in="SourceAlpha" type="matrix" values="0 0 0 0 0 0 0 0 0 0 0 0 0 0 0 0 0 0 127 0" result="hardAlpha"/>
<feMorphology radius="2" operator="erode" in="SourceAlpha" result="effect1_dropShadow_1101_698"/>
<feOffset dy="8"/>
<feGaussianBlur stdDeviation="20"/>
<feColorMatrix type="matrix" values="0 0 0 0 0.0235294 0 0 0 0 0.0470588 0 0 0 0 0.231373 0 0 0 0.08 0"/>
<feBlend mode="normal" in2="BackgroundImageFix" result="effect1_dropShadow_1101_698"/>
<feBlend mode="normal" in="SourceGraphic" in2="effect1_dropShadow_1101_698" result="shape"/>
</filter>
<filter id="filter1_d_1101_698" x="130" y="398" width="176" height="176" filterUnits="userSpaceOnUse" color-interpolation-filters="sRGB">
<feFlood flood-opacity="0" result="BackgroundImageFix"/>
<feColorMatrix in="SourceAlpha" type="matrix" values="0 0 0 0 0 0 0 0 0 0 0 0 0 0 0 0 0 0 127 0" result="hardAlpha"/>
<feMorphology radius="2" operator="erode" in="SourceAlpha" result="effect1_dropShadow_1101_698"/>
<feOffset dy="8"/>
<feGaussianBlur stdDeviation="20"/>
<feColorMatrix type="matrix" values="0 0 0 0 0.0235294 0 0 0 0 0.0470588 0 0 0 0 0.231373 0 0 0 0.08 0"/>
<feBlend mode="normal" in2="BackgroundImageFix" result="effect1_dropShadow_1101_698"/>
<feBlend mode="normal" in="SourceGraphic" in2="effect1_dropShadow_1101_698" result="shape"/>
</filter>
<filter id="filter2_d_1101_698" x="212" y="0" width="376" height="280" filterUnits="userSpaceOnUse" color-interpolation-filters="sRGB">
<feFlood flood-opacity="0" result="BackgroundImageFix"/>
<feColorMatrix in="SourceAlpha" type="matrix" values="0 0 0 0 0 0 0 0 0 0 0 0 0 0 0 0 0 0 127 0" result="hardAlpha"/>
<feMorphology radius="2" operator="erode" in="SourceAlpha" result="effect1_dropShadow_1101_698"/>
<feOffset dy="8"/>
<feGaussianBlur stdDeviation="20"/>
<feColorMatrix type="matrix" values="0 0 0 0 0.0235294 0 0 0 0 0.0470588 0 0 0 0 0.231373 0 0 0 0.08 0"/>
<feBlend mode="normal" in2="BackgroundImageFix" result="effect1_dropShadow_1101_698"/>
<feBlend mode="normal" in="SourceGraphic" in2="effect1_dropShadow_1101_698" result="shape"/>
</filter>
<filter id="filter3_d_1101_698" x="289" y="235.5" width="279" height="152" filterUnits="userSpaceOnUse" color-interpolation-filters="sRGB">
<feFlood flood-opacity="0" result="BackgroundImageFix"/>
<feColorMatrix in="SourceAlpha" type="matrix" values="0 0 0 0 0 0 0 0 0 0 0 0 0 0 0 0 0 0 127 0" result="hardAlpha"/>
<feMorphology radius="2" operator="erode" in="SourceAlpha" result="effect1_dropShadow_1101_698"/>
<feOffset dy="8"/>
<feGaussianBlur stdDeviation="20"/>
<feColorMatrix type="matrix" values="0 0 0 0 0.0235294 0 0 0 0 0.0470588 0 0 0 0 0.231373 0 0 0 0.08 0"/>
<feBlend mode="normal" in2="BackgroundImageFix" result="effect1_dropShadow_1101_698"/>
<feBlend mode="normal" in="SourceGraphic" in2="effect1_dropShadow_1101_698" result="shape"/>
</filter>
<filter id="filter4_d_1101_698" x="0" y="27.5" width="256" height="252" filterUnits="userSpaceOnUse" color-interpolation-filters="sRGB">
<feFlood flood-opacity="0" result="BackgroundImageFix"/>
<feColorMatrix in="SourceAlpha" type="matrix" values="0 0 0 0 0 0 0 0 0 0 0 0 0 0 0 0 0 0 127 0" result="hardAlpha"/>
<feMorphology radius="2" operator="erode" in="SourceAlpha" result="effect1_dropShadow_1101_698"/>
<feOffset dy="8"/>
<feGaussianBlur stdDeviation="20"/>
<feColorMatrix type="matrix" values="0 0 0 0 0.0235294 0 0 0 0 0.0470588 0 0 0 0 0.231373 0 0 0 0.08 0"/>
<feBlend mode="normal" in2="BackgroundImageFix" result="effect1_dropShadow_1101_698"/>
<feBlend mode="normal" in="SourceGraphic" in2="effect1_dropShadow_1101_698" result="shape"/>
</filter>
<filter id="filter5_d_1101_698" x="289" y="343.5" width="312" height="228" filterUnits="userSpaceOnUse" color-interpolation-filters="sRGB">
<feFlood flood-opacity="0" result="BackgroundImageFix"/>
<feColorMatrix in="SourceAlpha" type="matrix" values="0 0 0 0 0 0 0 0 0 0 0 0 0 0 0 0 0 0 127 0" result="hardAlpha"/>
<feMorphology radius="2" operator="erode" in="SourceAlpha" result="effect1_dropShadow_1101_698"/>
<feOffset dy="8"/>
<feGaussianBlur stdDeviation="20"/>
<feColorMatrix type="matrix" values="0 0 0 0 0.0235294 0 0 0 0 0.0470588 0 0 0 0 0.231373 0 0 0 0.08 0"/>
<feBlend mode="normal" in2="BackgroundImageFix" result="effect1_dropShadow_1101_698"/>
<feBlend mode="normal" in="SourceGraphic" in2="effect1_dropShadow_1101_698" result="shape"/>
</filter>
<linearGradient id="paint0_linear_1101_698" x1="416.5" y1="67.181" x2="416.5" y2="198" gradientUnits="userSpaceOnUse">
<stop stop-color="#9374FF"/>
<stop offset="1" stop-color="#9374FF" stop-opacity="0"/>
</linearGradient>
<clipPath id="clip0_1101_698">
<rect width="40" height="39.6947" fill="white" transform="translate(67 285.351)"/>
</clipPath>
<clipPath id="clip1_1101_698">
<rect width="40" height="40" fill="white" transform="translate(343 281.5)"/>
</clipPath>
</defs>
</svg>
