<svg width="297" height="68" viewBox="0 0 297 68" fill="none" xmlns="http://www.w3.org/2000/svg">
<rect width="297" height="68" rx="4" fill="white"/>
<path d="M50.8937 33.58C51.7884 33.7707 52.507 34.218 53.0497 34.922C53.5924 35.6113 53.8637 36.4033 53.8637 37.298C53.8637 38.5887 53.409 39.6153 52.4997 40.378C51.605 41.126 50.351 41.5 48.7377 41.5H41.5437V26.056H48.4957C50.065 26.056 51.2897 26.4153 52.1697 27.134C53.0644 27.8527 53.5117 28.828 53.5117 30.06C53.5117 30.9693 53.2697 31.7247 52.7857 32.326C52.3164 32.9273 51.6857 33.3453 50.8937 33.58ZM45.3057 32.304H47.7697C48.3857 32.304 48.855 32.172 49.1777 31.908C49.515 31.6293 49.6837 31.226 49.6837 30.698C49.6837 30.17 49.515 29.7667 49.1777 29.488C48.855 29.2093 48.3857 29.07 47.7697 29.07H45.3057V32.304ZM48.0777 38.464C48.7084 38.464 49.1924 38.3247 49.5297 38.046C49.8817 37.7527 50.0577 37.3347 50.0577 36.792C50.0577 36.2493 49.8744 35.824 49.5077 35.516C49.1557 35.208 48.6644 35.054 48.0337 35.054H45.3057V38.464H48.0777ZM61.6336 41.676C60.431 41.676 59.3456 41.4193 58.3776 40.906C57.4243 40.3927 56.669 39.6593 56.1116 38.706C55.569 37.7527 55.2976 36.638 55.2976 35.362C55.2976 34.1007 55.5763 32.9933 56.1336 32.04C56.691 31.072 57.4536 30.3313 58.4216 29.818C59.3896 29.3047 60.475 29.048 61.6776 29.048C62.8803 29.048 63.9656 29.3047 64.9336 29.818C65.9016 30.3313 66.6643 31.072 67.2216 32.04C67.779 32.9933 68.0576 34.1007 68.0576 35.362C68.0576 36.6233 67.7716 37.738 67.1996 38.706C66.6423 39.6593 65.8723 40.3927 64.8896 40.906C63.9216 41.4193 62.8363 41.676 61.6336 41.676ZM61.6336 38.42C62.3523 38.42 62.961 38.156 63.4596 37.628C63.973 37.1 64.2296 36.3447 64.2296 35.362C64.2296 34.3793 63.9803 33.624 63.4816 33.096C62.9976 32.568 62.3963 32.304 61.6776 32.304C60.9443 32.304 60.3356 32.568 59.8516 33.096C59.3676 33.6093 59.1256 34.3647 59.1256 35.362C59.1256 36.3447 59.3603 37.1 59.8296 37.628C60.3136 38.156 60.915 38.42 61.6336 38.42ZM75.6415 41.676C74.4388 41.676 73.3535 41.4193 72.3855 40.906C71.4321 40.3927 70.6768 39.6593 70.1195 38.706C69.5768 37.7527 69.3055 36.638 69.3055 35.362C69.3055 34.1007 69.5841 32.9933 70.1415 32.04C70.6988 31.072 71.4615 30.3313 72.4295 29.818C73.3975 29.3047 74.4828 29.048 75.6855 29.048C76.8881 29.048 77.9735 29.3047 78.9415 29.818C79.9095 30.3313 80.6721 31.072 81.2295 32.04C81.7868 32.9933 82.0655 34.1007 82.0655 35.362C82.0655 36.6233 81.7795 37.738 81.2075 38.706C80.6501 39.6593 79.8801 40.3927 78.8975 40.906C77.9295 41.4193 76.8441 41.676 75.6415 41.676ZM75.6415 38.42C76.3601 38.42 76.9688 38.156 77.4675 37.628C77.9808 37.1 78.2375 36.3447 78.2375 35.362C78.2375 34.3793 77.9881 33.624 77.4895 33.096C77.0055 32.568 76.4041 32.304 75.6855 32.304C74.9521 32.304 74.3435 32.568 73.8595 33.096C73.3755 33.6093 73.1335 34.3647 73.1335 35.362C73.1335 36.3447 73.3681 37.1 73.8375 37.628C74.3215 38.156 74.9228 38.42 75.6415 38.42ZM91.5633 41.5L87.8233 36.352V41.5H84.0613V25.22H87.8233V34.218L91.5413 29.224H96.1833L91.0793 35.384L96.2273 41.5H91.5633ZM111.937 38.772H106.173L105.249 41.5H101.311L106.899 26.056H111.255L116.843 41.5H112.861L111.937 38.772ZM110.969 35.868L109.055 30.214L107.163 35.868H110.969ZM122.568 33.756C122.568 32.2307 122.898 30.874 123.558 29.686C124.218 28.4833 125.134 27.552 126.308 26.892C127.496 26.2173 128.838 25.88 130.334 25.88C132.167 25.88 133.736 26.364 135.042 27.332C136.347 28.3 137.22 29.62 137.66 31.292H133.524C133.216 30.6467 132.776 30.1553 132.204 29.818C131.646 29.4807 131.008 29.312 130.29 29.312C129.131 29.312 128.192 29.7153 127.474 30.522C126.755 31.3287 126.396 32.4067 126.396 33.756C126.396 35.1053 126.755 36.1833 127.474 36.99C128.192 37.7967 129.131 38.2 130.29 38.2C131.008 38.2 131.646 38.0313 132.204 37.694C132.776 37.3567 133.216 36.8653 133.524 36.22H137.66C137.22 37.892 136.347 39.212 135.042 40.18C133.736 41.1333 132.167 41.61 130.334 41.61C128.838 41.61 127.496 41.28 126.308 40.62C125.134 39.9453 124.218 39.014 123.558 37.826C122.898 36.638 122.568 35.2813 122.568 33.756ZM139.216 35.34C139.216 34.0787 139.45 32.9713 139.92 32.018C140.404 31.0647 141.056 30.3313 141.878 29.818C142.699 29.3047 143.616 29.048 144.628 29.048C145.493 29.048 146.248 29.224 146.894 29.576C147.554 29.928 148.06 30.39 148.412 30.962V29.224H152.174V41.5H148.412V39.762C148.045 40.334 147.532 40.796 146.872 41.148C146.226 41.5 145.471 41.676 144.606 41.676C143.608 41.676 142.699 41.4193 141.878 40.906C141.056 40.378 140.404 39.6373 139.92 38.684C139.45 37.716 139.216 36.6013 139.216 35.34ZM148.412 35.362C148.412 34.4233 148.148 33.6827 147.62 33.14C147.106 32.5973 146.476 32.326 145.728 32.326C144.98 32.326 144.342 32.5973 143.814 33.14C143.3 33.668 143.044 34.4013 143.044 35.34C143.044 36.2787 143.3 37.0267 143.814 37.584C144.342 38.1267 144.98 38.398 145.728 38.398C146.476 38.398 147.106 38.1267 147.62 37.584C148.148 37.0413 148.412 36.3007 148.412 35.362ZM158.657 25.22V41.5H154.895V25.22H158.657ZM165.146 25.22V41.5H161.384V25.22H165.146ZM193.786 26.056L189.76 41.5H185.206L182.742 31.336L180.19 41.5H175.636L171.72 26.056H175.746L177.968 37.298L180.718 26.056H184.854L187.494 37.298L189.738 26.056H193.786ZM197.565 27.948C196.905 27.948 196.362 27.7573 195.937 27.376C195.526 26.98 195.321 26.496 195.321 25.924C195.321 25.3373 195.526 24.8533 195.937 24.472C196.362 24.076 196.905 23.878 197.565 23.878C198.21 23.878 198.738 24.076 199.149 24.472C199.574 24.8533 199.787 25.3373 199.787 25.924C199.787 26.496 199.574 26.98 199.149 27.376C198.738 27.7573 198.21 27.948 197.565 27.948ZM199.435 29.224V41.5H195.673V29.224H199.435ZM209.003 38.31V41.5H207.089C205.725 41.5 204.662 41.17 203.899 40.51C203.136 39.8353 202.755 38.7427 202.755 37.232V32.348H201.259V29.224H202.755V26.232H206.517V29.224H208.981V32.348H206.517V37.276C206.517 37.6427 206.605 37.9067 206.781 38.068C206.957 38.2293 207.25 38.31 207.661 38.31H209.003ZM218.644 29.092C220.052 29.092 221.182 29.5613 222.032 30.5C222.883 31.424 223.308 32.7 223.308 34.328V41.5H219.568V34.834C219.568 34.0127 219.356 33.3747 218.93 32.92C218.505 32.4653 217.933 32.238 217.214 32.238C216.496 32.238 215.924 32.4653 215.498 32.92C215.073 33.3747 214.86 34.0127 214.86 34.834V41.5H211.098V25.22H214.86V30.874C215.242 30.3313 215.762 29.8987 216.422 29.576C217.082 29.2533 217.823 29.092 218.644 29.092ZM234.281 26.056V35.296C234.281 36.22 234.508 36.9313 234.963 37.43C235.417 37.9287 236.085 38.178 236.965 38.178C237.845 38.178 238.519 37.9287 238.989 37.43C239.458 36.9313 239.693 36.22 239.693 35.296V26.056H243.455V35.274C243.455 36.6527 243.161 37.8187 242.575 38.772C241.988 39.7253 241.196 40.444 240.199 40.928C239.216 41.412 238.116 41.654 236.899 41.654C235.681 41.654 234.589 41.4193 233.621 40.95C232.667 40.466 231.912 39.7473 231.355 38.794C230.797 37.826 230.519 36.6527 230.519 35.274V26.056H234.281ZM251.09 41.676C250.02 41.676 249.066 41.4927 248.23 41.126C247.394 40.7593 246.734 40.2607 246.25 39.63C245.766 38.9847 245.495 38.266 245.436 37.474H249.154C249.198 37.8993 249.396 38.244 249.748 38.508C250.1 38.772 250.533 38.904 251.046 38.904C251.516 38.904 251.875 38.816 252.124 38.64C252.388 38.4493 252.52 38.2073 252.52 37.914C252.52 37.562 252.337 37.3053 251.97 37.144C251.604 36.968 251.01 36.7773 250.188 36.572C249.308 36.3667 248.575 36.154 247.988 35.934C247.402 35.6993 246.896 35.34 246.47 34.856C246.045 34.3573 245.832 33.69 245.832 32.854C245.832 32.15 246.023 31.512 246.404 30.94C246.8 30.3533 247.372 29.8913 248.12 29.554C248.883 29.2167 249.785 29.048 250.826 29.048C252.366 29.048 253.576 29.4293 254.456 30.192C255.351 30.9547 255.864 31.9667 255.996 33.228H252.52C252.462 32.8027 252.271 32.4653 251.948 32.216C251.64 31.9667 251.23 31.842 250.716 31.842C250.276 31.842 249.939 31.93 249.704 32.106C249.47 32.2673 249.352 32.4947 249.352 32.788C249.352 33.14 249.536 33.404 249.902 33.58C250.284 33.756 250.87 33.932 251.662 34.108C252.572 34.3427 253.312 34.5773 253.884 34.812C254.456 35.032 254.955 35.3987 255.38 35.912C255.82 36.4107 256.048 37.0853 256.062 37.936C256.062 38.6547 255.857 39.3 255.446 39.872C255.05 40.4293 254.471 40.8693 253.708 41.192C252.96 41.5147 252.088 41.676 251.09 41.676Z" fill="#0064E9"/>
</svg>
