<svg width="24" height="24" viewBox="0 0 24 24" fill="none" xmlns="http://www.w3.org/2000/svg">
<path opacity="0.4" d="M17.6107 0H6.4C2.31467 0 0 2.31467 0 6.4V17.6C0 21.6853 2.31467 24 6.4 24H17.6107C21.696 24 24 21.6853 24 17.6V6.4C24 2.31467 21.696 0 17.6107 0Z" fill="#CCDBEF"/>
<path d="M6.44244 8.84277C5.89844 8.84277 5.45044 9.29077 5.45044 9.84544V18.0908C5.45044 18.6348 5.89844 19.0828 6.44244 19.0828C6.99711 19.0828 7.44511 18.6348 7.44511 18.0908V9.84544C7.44511 9.29077 6.99711 8.84277 6.44244 8.84277Z" fill="#0064E9"/>
<path d="M12.0425 4.90674C11.4985 4.90674 11.0505 5.35474 11.0505 5.9094V18.0907C11.0505 18.6347 11.4985 19.0827 12.0425 19.0827C12.5972 19.0827 13.0452 18.6347 13.0452 18.0907V5.9094C13.0452 5.35474 12.5972 4.90674 12.0425 4.90674Z" fill="#FFDC60"/>
<path d="M17.5679 13.1948C17.0132 13.1948 16.5652 13.6428 16.5652 14.1975V18.0908C16.5652 18.6348 17.0132 19.0828 17.5572 19.0828C18.1119 19.0828 18.5599 18.6348 18.5599 18.0908V14.1975C18.5599 13.6428 18.1119 13.1948 17.5679 13.1948Z" fill="#0064E9"/>
</svg>
