<svg width="65" height="65" viewBox="0 0 65 65" fill="none" xmlns="http://www.w3.org/2000/svg">
<circle cx="32.5" cy="32.5" r="32.5" fill="white"/>
<path d="M37.9993 36.2771L35.3522 36.025C35.3103 35.9409 35.2681 35.8571 35.2262 35.7308L36.9067 33.6719C37.5368 32.8736 37.4949 31.739 36.7806 31.0249L34.89 29.1342C34.1758 28.42 33.0412 28.3781 32.2429 29.0082L30.1841 30.6887C30.0999 30.6468 30.0161 30.6046 29.8898 30.5626L29.6803 27.958C29.5961 26.9496 28.714 26.1934 27.7055 26.1934H25.0584C24.05 26.1934 23.2096 26.9495 23.0837 27.958L22.8316 30.6051C22.7475 30.647 22.6637 30.6892 22.5374 30.7311L20.4785 29.0506C19.6801 28.4205 18.5456 28.4624 17.8314 29.1767L15.9408 31.0673C15.2265 31.7816 15.1846 32.9161 15.8147 33.7144L17.4952 35.7733C17.4533 35.8574 17.4111 35.9412 17.3692 36.0675L14.7221 36.3196C13.7561 36.3612 13 37.2015 13 38.2519V40.8989C13 41.9074 13.7561 42.7477 14.7647 42.8737L17.4118 43.1257C17.4537 43.2099 17.4959 43.2937 17.5378 43.42L15.8573 45.4788C15.2272 46.2772 15.2691 47.4117 15.9833 48.1259L17.874 50.0166C18.5882 50.7308 19.7227 50.7727 20.521 50.1426L22.5799 48.4621C22.664 48.504 22.7478 48.5462 22.8742 48.5881L23.1262 51.2352C23.2103 52.2437 24.0506 52.9999 25.101 52.9999H27.748C28.7565 52.9999 29.5968 52.2438 29.7228 51.2352L29.9748 48.5881C30.059 48.5462 30.1428 48.504 30.2691 48.4621L32.328 50.1426C33.1263 50.7727 34.2608 50.7308 34.975 50.0166L36.8657 48.1259C37.5799 47.4117 37.6218 46.2772 36.9917 45.4788L35.3112 43.42C35.3531 43.3359 35.3953 43.2521 35.4372 43.1257L38.0843 42.8737C39.0928 42.7896 39.849 41.9074 39.849 40.8989V38.2519C39.8062 37.2015 39.0079 36.3612 37.9994 36.2771H37.9993ZM34.722 41.193C34.2179 41.2349 33.7977 41.571 33.6297 42.0755C33.5037 42.3697 33.3777 42.6637 33.2516 42.9579C33.0415 43.4201 33.0837 43.9664 33.4196 44.3445L35.3943 46.6973L33.5455 48.5458L31.1505 46.571C30.7724 46.2349 30.2261 46.1929 29.7639 46.4031C29.4697 46.5291 29.1757 46.6551 28.8815 46.7812C28.4193 46.9491 28.0831 47.3694 27.999 47.8735L27.7047 50.9406L25.0576 50.9825L24.7634 47.9154C24.7215 47.4113 24.3853 46.9911 23.8809 46.8231C23.5866 46.739 23.2927 46.571 22.9984 46.445C22.8305 46.3609 22.6203 46.319 22.4102 46.319C22.1159 46.319 21.822 46.4031 21.6118 46.6132L19.2601 48.5458L17.4113 46.7393L19.3861 44.3442C19.7223 43.9661 19.7642 43.4199 19.554 42.9577C19.428 42.6634 19.302 42.3695 19.176 42.0752C19.008 41.613 18.5878 41.2768 18.0836 41.1927L15.0165 40.8985L14.9746 38.2514L18.0417 37.9571C18.5458 37.9152 18.9661 37.579 19.1341 37.0746C19.2601 36.7804 19.3861 36.4864 19.5121 36.1921C19.7223 35.73 19.6801 35.1837 19.3442 34.8056L17.4113 32.4536L19.2601 30.563L21.6551 32.5377C22.0332 32.8739 22.5795 32.9158 23.0417 32.7057C23.3359 32.5796 23.6299 32.4536 23.9242 32.3276C24.3863 32.1597 24.7225 31.7394 24.8066 31.2352L25.1009 28.1682L27.748 28.1262L28.0422 31.1933C28.0841 31.6974 28.4203 32.1177 28.9247 32.2857C29.219 32.3698 29.5129 32.5377 29.8072 32.6638C30.2694 32.8739 30.8157 32.8317 31.1937 32.4958L33.5466 30.5211L35.4372 32.3698L33.4624 34.7649C33.1682 35.143 33.0844 35.6893 33.2945 36.1514C33.4205 36.4457 33.5466 36.7396 33.6726 37.0339C33.8405 37.4961 34.2608 37.8323 34.7649 37.9164L37.832 38.2107L37.8739 40.8156L34.722 41.193Z" fill="#0064E9"/>
<path d="M26.4027 34.6807C23.7137 34.6807 21.5288 36.8656 21.5288 39.5546C21.5288 42.2436 23.7137 44.4285 26.4027 44.4285C29.0918 44.4285 31.2767 42.2436 31.2767 39.5546C31.2767 36.8656 29.0918 34.6807 26.4027 34.6807ZM26.4027 42.4536C24.8061 42.4536 23.5036 41.1512 23.5036 39.5544C23.5036 37.9577 24.806 36.6553 26.4027 36.6553C27.9995 36.6553 29.3019 37.9577 29.3019 39.5544C29.2597 41.1511 27.9995 42.4536 26.4027 42.4536Z" fill="#0064E9"/>
<path d="M51.1506 23.1262L48.5035 22.8742C48.4616 22.79 48.4194 22.7062 48.3775 22.5799L50.058 20.521C50.6881 19.7227 50.6462 18.5882 49.9319 17.874L48.0413 15.9833C47.3271 15.2691 46.1925 15.2272 45.3942 15.8573L43.3353 17.5378C43.2512 17.4959 43.1674 17.4537 43.0411 17.4118L42.789 14.7647C42.7049 13.7562 41.8647 13 40.8143 13H38.1672C37.1587 13 36.3184 13.7561 36.1925 14.7647L35.9829 17.4543C35.8988 17.4962 35.815 17.5384 35.6886 17.5803L33.6298 15.8998C32.8314 15.2697 31.6969 15.3116 30.9827 16.0259L29.0921 17.9165C28.3778 18.6307 28.3359 19.7653 28.966 20.5636L30.6465 22.6224C30.5624 22.8745 30.4364 23.0846 30.3523 23.3367C30.1843 23.8408 30.4364 24.429 30.9824 24.5972C31.4865 24.7652 32.0747 24.5131 32.2429 23.9671C32.369 23.6729 32.495 23.3789 32.621 23.0846C32.8312 22.6224 32.789 22.0762 32.4531 21.6981L30.4783 19.3453L32.3271 17.4546L34.7222 19.4294C35.1002 19.7656 35.6465 19.8075 36.1087 19.5973C36.403 19.4713 36.6969 19.3453 36.9912 19.2192C37.4534 19.0513 37.7896 18.631 37.8737 18.1269L38.1679 15.0598L40.815 15.0179L41.1093 18.085C41.1512 18.5891 41.4873 19.0093 41.9918 19.1773C42.286 19.2614 42.58 19.4294 42.8742 19.5554C43.3364 19.7656 43.8827 19.7233 44.2608 19.3875L46.6136 17.4127L48.5042 19.2615L46.5295 21.6566C46.1933 22.0346 46.1514 22.5809 46.3615 23.0431C46.4876 23.3373 46.6136 23.6313 46.7396 23.9256C46.9076 24.3878 47.3278 24.724 47.832 24.8081L50.8991 25.1023L50.941 27.7494L47.8739 28.0437C47.3698 28.0856 46.9495 28.4217 46.7815 28.9261C46.6555 29.2204 46.5295 29.5143 46.4035 29.8086C46.1933 30.2708 46.2355 30.8171 46.5714 31.1952L48.5461 33.548L46.6974 35.4386L44.3023 33.4639C43.9242 33.1277 43.3779 33.0858 42.9158 33.2959C42.6215 33.422 42.3276 33.548 42.0333 33.674C41.5292 33.8419 41.2349 34.4301 41.4032 34.9346C41.5711 35.4387 42.1593 35.7329 42.6637 35.5647C42.9158 35.4806 43.1259 35.3967 43.378 35.2704L45.4368 36.9509C45.8149 37.2452 46.2352 37.4131 46.6974 37.4131C47.2015 37.4131 47.7058 37.203 48.0839 36.8249L49.9745 34.9343C50.6888 34.22 50.7307 33.0855 50.1006 32.2872L48.4201 30.2283C48.462 30.1442 48.5042 30.0604 48.5461 29.9341L51.1932 29.682C52.2016 29.5979 52.9579 28.7577 52.9579 27.7073V25.0602C52.9154 24.093 52.1592 23.2524 51.1507 23.1265L51.1506 23.1262Z" fill="#FFDC60"/>
<path d="M44.3857 26.4452C44.3857 23.7562 42.2008 21.5713 39.5117 21.5713C37.0329 21.5713 34.974 23.4201 34.7219 25.857C34.68 26.4033 35.0581 26.9074 35.6044 26.9493C36.1507 26.9913 36.6548 26.6132 36.6967 26.0669C36.8647 24.6384 38.0833 23.5457 39.5118 23.5457C41.1085 23.5457 42.3688 24.8482 42.3688 26.4027C42.3688 27.8734 41.2764 29.0498 39.8476 29.2178C39.3013 29.2597 38.8814 29.764 38.9652 30.3101C39.0071 30.8142 39.4693 31.1926 39.9736 31.1926H40.0996C42.5788 30.983 44.3856 28.9242 44.3856 26.4453L44.3857 26.4452Z" fill="#FFDC60"/>
</svg>
