<svg width="56" height="56" viewBox="0 0 56 56" fill="none" xmlns="http://www.w3.org/2000/svg">
<circle cx="28" cy="28" r="28" fill="#EBF1F9"/>
<path d="M38.346 23.6058C39.519 23.6058 40.4698 22.8216 40.4698 21.8544C40.4698 20.8871 39.519 20.103 38.346 20.103C37.1731 20.103 36.2223 20.8871 36.2223 21.8544C36.2223 22.8216 37.1731 23.6058 38.346 23.6058Z" fill="#004AAD"/>
<path d="M28.8983 22.1499C27.1008 22.1499 25.3437 22.5895 23.8492 23.4131C22.3547 24.2368 21.1899 25.4074 20.502 26.7771C19.8141 28.1467 19.6342 29.6538 19.9848 31.1078C20.3355 32.5618 21.2011 33.8974 22.472 34.9457C23.743 35.994 25.3624 36.7079 27.1253 36.9971C28.8882 37.2863 30.7155 37.1379 32.3761 36.5705C34.0367 36.0032 35.4561 35.0425 36.4547 33.8098C37.4533 32.5772 37.9863 31.128 37.9863 29.6455C37.9863 27.6575 37.0288 25.751 35.3245 24.3453C33.6201 22.9396 31.3085 22.1499 28.8983 22.1499ZM28.8983 34.5112C27.7315 34.5112 26.5909 34.2258 25.6207 33.6912C24.6506 33.1565 23.8944 32.3966 23.4479 31.5075C23.0014 30.6184 22.8846 29.6401 23.1122 28.6963C23.3398 27.7524 23.9017 26.8854 24.7267 26.2049C25.5518 25.5245 26.603 25.061 27.7473 24.8733C28.8917 24.6856 30.0779 24.7819 31.1559 25.1502C32.2338 25.5185 33.1552 26.1421 33.8034 26.9423C34.4517 27.7424 34.7977 28.6832 34.7977 29.6455C34.7977 30.936 34.1761 32.1736 33.0698 33.0861C31.9634 33.9986 30.4629 34.5112 28.8983 34.5112Z" fill="#004AAD"/>
<path d="M28.8984 17.6798C33.6239 17.6798 34.1844 17.6944 36.0501 17.7649C37.1722 17.7759 38.2837 17.9458 39.3361 18.2673C40.0996 18.5102 40.7929 18.8822 41.3716 19.3594C41.9502 19.8366 42.4013 20.4084 42.6958 21.0381C43.0856 21.906 43.2916 22.8227 43.3049 23.7481C43.3905 25.2868 43.4082 25.749 43.4082 29.6474C43.4082 33.5457 43.3905 34.0055 43.3049 35.5442C43.2916 36.4696 43.0856 37.3863 42.6958 38.2542C42.4013 38.8838 41.9502 39.4557 41.3716 39.9329C40.7929 40.4101 40.0996 40.7821 39.3361 41.025C38.2837 41.3465 37.1722 41.5164 36.0501 41.5274C34.1844 41.5979 33.6239 41.6125 28.8984 41.6125C24.1729 41.6125 23.6125 41.5979 21.7468 41.5274C20.6247 41.5164 19.5131 41.3465 18.4608 41.025C17.6973 40.7821 17.0039 40.4101 16.4253 39.9329C15.8466 39.4557 15.3956 38.8838 15.101 38.2542C14.7113 37.3863 14.5052 36.4696 14.4919 35.5442C14.4064 34.0055 14.3887 33.5433 14.3887 29.6461C14.3887 25.749 14.4064 25.2868 14.4919 23.7481C14.5052 22.8227 14.7113 21.906 15.101 21.0381C15.3956 20.4084 15.8466 19.8366 16.4253 19.3594C17.0039 18.8822 17.6973 18.5102 18.4608 18.2673C19.5131 17.9458 20.6247 17.7759 21.7468 17.7649C23.6125 17.6944 24.1729 17.6798 28.8984 17.6798ZM28.8984 15.05C24.0918 15.05 23.4886 15.0671 21.6008 15.1376C20.133 15.1621 18.6808 15.3916 17.306 15.8163C16.1301 16.1913 15.0622 16.7648 14.1707 17.5C13.2792 18.2352 12.5839 19.1159 12.1292 20.0857C11.6139 21.2199 11.3357 22.418 11.3062 23.6289C11.2207 25.1858 11.2 25.6809 11.2 29.6461C11.2 33.6114 11.2207 34.1077 11.3062 35.6646C11.3358 36.8751 11.6141 38.0728 12.1292 39.2066C12.5839 40.1763 13.2792 41.0571 14.1707 41.7923C15.0622 42.5275 16.1301 43.1009 17.306 43.4759C18.6812 43.9009 20.1339 44.1304 21.6023 44.1547C23.4901 44.2252 24.0918 44.2422 28.8984 44.2422C33.705 44.2422 34.3082 44.2252 36.1961 44.1547C37.6644 44.1304 39.1171 43.9009 40.4924 43.4759C41.6682 43.1009 42.7361 42.5275 43.6276 41.7923C44.5191 41.0571 45.2145 40.1763 45.6691 39.2066C46.1839 38.0723 46.4616 36.8743 46.4907 35.6634C46.5762 34.1065 46.5968 33.6114 46.5968 29.6461C46.5968 25.6809 46.5762 25.1846 46.4907 23.6277C46.461 22.4172 46.1827 21.2195 45.6677 20.0857C45.213 19.1159 44.5176 18.2352 43.6261 17.5C42.7347 16.7648 41.6668 16.1913 40.4909 15.8163C39.1155 15.3918 37.6628 15.1628 36.1946 15.1388C34.3068 15.0659 33.7065 15.05 28.8984 15.05Z" fill="#004AAD"/>
</svg>
