<svg width="39" height="39" viewBox="0 0 39 39" fill="none" xmlns="http://www.w3.org/2000/svg">
<rect width="39" height="39" rx="19.5" fill="#EBF1F9"/>
<path d="M20.6333 24.1982C16.9676 24.1982 13.8748 24.7972 13.8748 27.109C13.8748 29.4216 16.9876 29.9996 20.6333 29.9996C24.2989 29.9996 27.3918 29.4006 27.3918 27.0889C27.3918 24.7762 24.2789 24.1982 20.6333 24.1982Z" fill="#0064E9"/>
<path d="M20.6333 21.9962C23.1154 21.9962 25.1056 19.9945 25.1056 17.4981C25.1056 15.0008 23.1154 13 20.6333 13C18.1511 13 16.1609 15.0008 16.1609 17.4981C16.1609 19.9945 18.1511 21.9962 20.6333 21.9962Z" fill="#0064E9"/>
<path d="M30.3434 18.5457C30.9855 16.0196 29.1028 13.751 26.7053 13.751C26.4447 13.751 26.1954 13.7797 25.9519 13.8285C25.9195 13.8361 25.8834 13.8524 25.8643 13.8811C25.8424 13.9175 25.8586 13.9663 25.8824 13.9978C26.6026 15.014 27.0164 16.2512 27.0164 17.5793C27.0164 18.8519 26.6368 20.0384 25.9709 21.023C25.9024 21.1244 25.9633 21.2612 26.0841 21.2823C26.2515 21.3119 26.4228 21.3272 26.5978 21.332C28.3436 21.378 29.9105 20.2479 30.3434 18.5457Z" fill="#0064E9"/>
<path d="M31.745 24.6893C31.4253 24.0042 30.6538 23.5344 29.4808 23.3038C28.9271 23.1679 27.4287 22.9765 26.0349 23.0024C26.014 23.0052 26.0026 23.0196 26.0007 23.0292C25.9978 23.0426 26.0035 23.0655 26.0311 23.0799C26.6752 23.4004 29.1649 24.7945 28.8519 27.7349C28.8386 27.8622 28.9404 27.9722 29.0669 27.9531C29.6796 27.865 31.256 27.5244 31.745 26.4633C32.0152 25.9025 32.0152 25.2509 31.745 24.6893Z" fill="#0064E9"/>
<path d="M15.4226 13.8285C15.1801 13.7787 14.9298 13.751 14.6692 13.751C12.2717 13.751 10.389 16.0196 11.0321 18.5457C11.464 20.2479 13.0309 21.378 14.7767 21.332C14.9517 21.3272 15.1239 21.311 15.2904 21.2823C15.4112 21.2612 15.4721 21.1244 15.4036 21.023C14.7377 20.0374 14.3581 18.8519 14.3581 17.5793C14.3581 16.2502 14.7729 15.013 15.493 13.9978C15.5159 13.9663 15.533 13.9175 15.5102 13.8811C15.4911 13.8514 15.4559 13.8361 15.4226 13.8285Z" fill="#0064E9"/>
<path d="M11.4667 23.1067C10.2936 23.3373 9.52301 23.8071 9.20335 24.4922C8.93222 25.0539 8.93222 25.7055 9.20335 26.2671C9.69236 27.3273 11.2688 27.6689 11.8814 27.756C12.008 27.7751 12.1088 27.666 12.0955 27.5378C11.7825 24.5984 14.2722 23.2043 14.9173 22.8837C14.9439 22.8684 14.9496 22.8464 14.9467 22.8321C14.9448 22.8225 14.9344 22.8082 14.9134 22.8062C13.5187 22.7795 12.0213 22.9708 11.4667 23.1067Z" fill="#0064E9"/>
</svg>
