<svg width="56" height="56" viewBox="0 0 56 56" fill="none" xmlns="http://www.w3.org/2000/svg">
<circle cx="28" cy="28" r="28" fill="#EBF1F9"/>
<path d="M17.613 19.216C19.6083 19.216 21.2259 17.8822 21.2259 16.2369C21.2259 14.5916 19.6083 13.2578 17.613 13.2578C15.6176 13.2578 14 14.5916 14 16.2369C14 17.8822 15.6176 19.216 17.613 19.216Z" fill="#004AAD"/>
<path d="M24.6382 21.474V38.0049H30.862V29.83C30.862 27.6729 31.3541 25.5839 34.5972 25.5839C37.7958 25.5839 37.8354 28.0501 37.8354 29.9662V38.0063H44.0624V28.9407C44.0624 24.4876 42.8999 21.0654 36.5887 21.0654C33.5585 21.0654 31.5274 22.4368 30.6968 23.7346H30.6126V21.474H24.6382ZM14.496 21.474H20.7296V38.0049H14.496V21.474Z" fill="#004AAD"/>
</svg>
