<svg width="24" height="22" viewBox="0 0 24 22" fill="none" xmlns="http://www.w3.org/2000/svg">
<path d="M17.9268 0C19.536 0 21.084 0.636 22.2228 1.7772C23.3628 2.916 24 4.452 24 6.06V15.54C24 18.888 21.276 21.6 17.9268 21.6H6.072C2.7228 21.6 0 18.888 0 15.54V6.06C0 2.712 2.7108 0 6.072 0H17.9268ZM19.284 6.24C19.032 6.2268 18.792 6.312 18.6108 6.48L13.2 10.8C12.504 11.3772 11.5068 11.3772 10.8 10.8L5.4 6.48C5.0268 6.204 4.5108 6.24 4.2 6.564C3.876 6.888 3.84 7.404 4.1148 7.764L4.272 7.92L9.732 12.18C10.404 12.708 11.2188 12.996 12.072 12.996C12.9228 12.996 13.752 12.708 14.4228 12.18L19.836 7.848L19.932 7.752C20.2188 7.404 20.2188 6.9 19.9188 6.552C19.752 6.3732 19.5228 6.264 19.284 6.24Z" fill="black"/>
</svg>
