<svg width="24" height="25" viewBox="0 0 24 25" fill="none" xmlns="http://www.w3.org/2000/svg">
<path opacity="0.2" d="M17 9.5C17 13.37 13.64 16.5 9.5 16.5L8.57001 17.62L8.02 18.28C7.55 18.84 6.65 18.72 6.34 18.05L5 15.1C3.18 13.82 2 11.79 2 9.5C2 5.63 5.36 2.5 9.5 2.5C12.52 2.5 15.13 4.17001 16.3 6.57001C16.75 7.46001 17 8.45 17 9.5Z" fill="#004AAD"/>
<path d="M22.0003 13.3598C22.0003 15.6498 20.8203 17.6798 19.0003 18.9598L17.6603 21.9098C17.3503 22.5798 16.4503 22.7098 15.9803 22.1398L14.5003 20.3598C12.0803 20.3598 9.92031 19.2898 8.57031 17.6198L9.50031 16.4998C13.6403 16.4998 17.0003 13.3698 17.0003 9.49982C17.0003 8.44982 16.7503 7.45982 16.3003 6.56982C19.5703 7.31982 22.0003 10.0798 22.0003 13.3598Z" fill="#004AAD"/>
<path d="M12 10.25H7C6.59 10.25 6.25 9.91 6.25 9.5C6.25 9.09 6.59 8.75 7 8.75H12C12.41 8.75 12.75 9.09 12.75 9.5C12.75 9.91 12.41 10.25 12 10.25Z" fill="#004AAD"/>
</svg>
