<svg width="513" height="660" viewBox="0 0 513 660" fill="none" xmlns="http://www.w3.org/2000/svg">
<path d="M359.978 30.1334L514.362 184.438C517.751 187.827 519.655 192.423 519.655 197.215C519.655 202.007 517.751 206.603 514.362 209.993L500.798 223.55C497.409 226.94 495.505 231.536 495.505 236.328C495.505 241.12 497.409 245.716 500.798 249.106L542.96 291.246" stroke="#009E74" stroke-width="2" stroke-miterlimit="10"/>
<path d="M436.005 184.372L281.621 30.0681C278.232 26.6785 276.328 22.0825 276.328 17.2904C276.328 12.4983 278.232 7.90233 281.621 4.5127L295.185 -9.04455C298.574 -12.4342 300.478 -17.0302 300.478 -21.8223C300.478 -26.6144 298.574 -31.2103 295.185 -34.6L253 -76.7178" stroke="#009E74" stroke-width="2" stroke-miterlimit="10"/>
<path d="M407.523 390.283L561.908 544.587C565.297 547.977 567.201 552.573 567.201 557.365C567.201 562.157 565.297 566.753 561.908 570.143L548.344 583.7C544.955 587.09 543.051 591.686 543.051 596.478C543.051 601.27 544.955 605.866 548.344 609.256L590.506 651.396" stroke="#009E74" stroke-width="2" stroke-miterlimit="10"/>
<path d="M483.576 544.527L329.192 390.223C325.803 386.833 323.899 382.237 323.899 377.445C323.899 372.653 325.803 368.057 329.192 364.667L342.756 351.11C344.438 349.431 345.772 347.438 346.682 345.243C347.592 343.049 348.06 340.696 348.06 338.321C348.06 335.945 347.592 333.593 346.682 331.399C345.772 329.204 344.438 327.211 342.756 325.532L300.616 283.414" stroke="#009E74" stroke-width="2" stroke-miterlimit="10"/>
<path d="M107.996 90.8944L262.381 245.266C264.062 246.945 265.396 248.939 266.306 251.133C267.217 253.328 267.685 255.68 267.685 258.055C267.685 260.431 267.217 262.783 266.306 264.977C265.396 267.172 264.062 269.166 262.381 270.844L248.816 284.402C247.135 286.08 245.801 288.074 244.891 290.268C243.981 292.463 243.512 294.815 243.512 297.191C243.512 299.566 243.981 301.918 244.891 304.113C245.801 306.307 247.135 308.301 248.816 309.98L290.979 352.12" stroke="#009E74" stroke-width="2" stroke-miterlimit="10"/>
<path d="M184.118 245.269L29.6433 90.8517C27.9618 89.1729 26.6278 87.1793 25.7176 84.9848C24.8075 82.7904 24.339 80.4382 24.339 78.0627C24.339 75.6872 24.8075 73.3349 25.7176 71.1405C26.6278 68.9461 27.9618 66.9525 29.6433 65.2737L43.2076 51.7164C46.5968 48.3268 48.5007 43.7308 48.5007 38.9387C48.5007 34.1466 46.5968 29.5506 43.2076 26.161L1 -15.9569" stroke="#009E74" stroke-width="2" stroke-miterlimit="10"/>
<path d="M329.334 468.414L483.719 622.741C487.108 626.13 489.012 630.726 489.012 635.519C489.012 640.311 487.108 644.907 483.719 648.296L470.154 661.854C466.765 665.243 464.861 669.839 464.861 674.631C464.861 679.423 466.765 684.019 470.154 687.409L512.317 729.549" stroke="#009E74" stroke-width="2" stroke-miterlimit="10"/>
<path d="M405.379 622.608L250.995 468.304C249.313 466.625 247.979 464.631 247.069 462.437C246.159 460.242 245.69 457.89 245.69 455.515C245.69 453.139 246.159 450.787 247.069 448.593C247.979 446.398 249.313 444.405 250.995 442.726L264.559 429.168C266.241 427.49 267.575 425.496 268.485 423.302C269.395 421.107 269.863 418.755 269.863 416.379C269.863 414.004 269.395 411.652 268.485 409.457C267.575 407.263 266.241 405.269 264.559 403.59L222.374 361.563" stroke="#009E74" stroke-width="2" stroke-miterlimit="10"/>
<path d="M461.304 288.817L615.688 443.121C619.078 446.511 620.981 451.107 620.981 455.899C620.981 460.691 619.078 465.287 615.688 468.676L602.124 482.234C598.735 485.623 596.831 490.219 596.831 495.011C596.831 499.803 598.735 504.399 602.124 507.789L644.286 549.929" stroke="#009E74" stroke-width="2" stroke-miterlimit="10"/>
<path d="M537.349 443.045L383.055 288.741C379.666 285.351 377.762 280.755 377.762 275.963C377.762 271.171 379.666 266.575 383.055 263.185L396.619 249.628C400.008 246.238 401.912 241.642 401.912 236.85C401.912 232.058 400.008 227.462 396.619 224.073L354.344 182" stroke="#009E74" stroke-width="2" stroke-miterlimit="10"/>
<path d="M160.134 -12.2142L314.518 142.09C317.908 145.48 319.811 150.076 319.811 154.868C319.811 159.66 317.908 164.256 314.518 167.645L300.954 181.203C297.565 184.592 295.661 189.188 295.661 193.98C295.661 198.772 297.565 203.368 300.954 206.758L343.117 248.898" stroke="#009E74" stroke-width="2" stroke-miterlimit="10"/>
<path d="M236.115 142.029L81.776 -12.32C80.0944 -13.9988 78.7605 -15.9924 77.8503 -18.1869C76.9401 -20.3813 76.4717 -22.7335 76.4717 -25.109C76.4717 -27.4845 76.9401 -29.8367 77.8503 -32.0312C78.7605 -34.2256 80.0944 -36.2192 81.776 -37.898L95.3403 -51.4553C97.0219 -53.1341 98.3558 -55.1277 99.266 -57.3221C100.176 -59.5166 100.645 -61.8688 100.645 -64.2443C100.645 -66.6198 100.176 -68.972 99.266 -71.1665C98.3558 -73.3609 97.0219 -75.3545 95.3403 -77.0333L53.1553 -119.083" stroke="#009E74" stroke-width="2" stroke-miterlimit="10"/>
<path d="M374.902 -111.229L529.287 43.075C532.676 46.4646 534.58 51.0606 534.58 55.8527C534.58 60.6448 532.676 65.2408 529.287 68.6304L515.723 82.1877C512.333 85.5773 510.43 90.1733 510.43 94.9654C510.43 99.7575 512.333 104.353 515.723 107.743L557.885 149.884" stroke="#009E74" stroke-width="2" stroke-miterlimit="10"/>
<path d="M450.884 43.0097L296.545 -111.294C294.863 -112.973 293.529 -114.967 292.619 -117.161C291.709 -119.356 291.24 -121.708 291.24 -124.083C291.24 -126.459 291.709 -128.811 292.619 -131.006C293.529 -133.2 294.863 -135.194 296.545 -136.872L310.109 -150.43C311.79 -152.109 313.124 -154.102 314.035 -156.297C314.945 -158.491 315.413 -160.843 315.413 -163.219C315.413 -165.594 314.945 -167.946 314.035 -170.141C313.124 -172.335 311.79 -174.329 310.109 -176.008L267.924 -218.08" stroke="#009E74" stroke-width="2" stroke-miterlimit="10"/>
<path d="M689.365 124.001L534.98 -30.3936C531.591 -33.7833 529.687 -38.3793 529.687 -43.1714C529.687 -47.9634 531.591 -52.5594 534.98 -55.9491L548.544 -69.5063C551.934 -72.8959 553.837 -77.4919 553.837 -82.284C553.837 -87.0761 551.934 -91.6721 548.544 -95.0617L506.359 -137.089" stroke="#009E74" stroke-width="2" stroke-miterlimit="10"/>
</svg>
