<svg width="65" height="65" viewBox="0 0 65 65" fill="none" xmlns="http://www.w3.org/2000/svg">
<circle cx="32.5" cy="32.5" r="32.5" fill="white"/>
<path d="M44.287 40.5273C46.8604 37.0073 48.0102 32.6458 47.5071 28.3139C47.0039 23.982 44.8849 20.0006 41.5733 17.164C38.2617 14.3274 34.0016 12.8448 29.6441 13.0129C25.287 13.181 21.1535 14.9872 18.0704 18.0704C14.9869 21.1538 13.1809 25.2866 13.0129 29.6441C12.8448 34.0012 14.3271 38.2615 17.1638 41.5726C20.0004 44.8842 23.9825 47.0035 28.3137 47.5066C32.6452 48.0097 37.0066 46.8597 40.5271 44.2865L48.3994 52.1574H48.3991C48.8914 52.6831 49.5757 52.9864 50.2955 52.9986C51.0154 53.0109 51.7094 52.7307 52.2189 52.222C52.7287 51.7136 53.0103 51.0202 52.9997 50.3003C52.9891 49.5805 52.687 48.8956 52.1624 48.4022L44.287 40.5273ZM14.3785 30.3363C14.3785 26.1042 16.0595 22.0451 19.0519 19.0532C22.0444 16.0607 26.1032 14.3798 30.335 14.3798C34.5669 14.3798 38.6255 16.0608 41.6181 19.0532C44.6106 22.0457 46.2918 26.1044 46.2918 30.3363C46.2918 34.5682 44.6105 38.6268 41.6181 41.6194C38.6256 44.6119 34.5669 46.2931 30.335 46.2931C26.1045 46.2881 22.0488 44.6055 19.0569 41.6138C16.0656 38.6224 14.3826 34.5667 14.3778 30.3364L14.3785 30.3363ZM43.4542 41.5724L44.7679 42.886L42.889 44.7649L41.5717 43.454C42.2462 42.8758 42.8757 42.2469 43.4542 41.5724ZM51.2182 51.2256C50.9656 51.4668 50.6294 51.6012 50.2799 51.6004C49.9307 51.5998 49.5951 51.4641 49.3433 51.2217L43.8323 45.7079L45.7111 43.829L51.2255 49.3428H51.2258C51.4751 49.5927 51.6151 49.9316 51.6142 50.2851C51.6137 50.6382 51.4723 50.9768 51.2216 51.2256L51.2182 51.2256Z" fill="#0064E9"/>
<path d="M37.6484 37.6493C38.1774 37.6493 38.685 37.4392 39.0589 37.0652C39.4329 36.6912 39.643 36.1837 39.643 35.6547V23.687C39.643 23.158 39.4329 22.6507 39.0589 22.2767C38.685 21.9028 38.1774 21.6924 37.6484 21.6924H23.0215C22.4925 21.6924 21.9852 21.9028 21.6109 22.2767C21.2369 22.6507 21.0269 23.158 21.0269 23.687V35.6547C21.0269 36.1837 21.2369 36.6912 21.6109 37.0652C21.9852 37.4392 22.4925 37.6493 23.0215 37.6493H28.0233L27.2256 39.6439H26.3459C25.9786 39.6439 25.6809 39.9417 25.6809 40.309C25.6809 40.676 25.9786 40.9737 26.3459 40.9737H32.916C32.9419 40.9793 32.9681 40.9835 32.9945 40.9857C33.0148 40.9826 33.0351 40.9787 33.0549 40.9737H34.3243C34.6914 40.9737 34.9891 40.676 34.9891 40.309C34.9891 39.9417 34.6914 39.6439 34.3243 39.6439H33.44L32.6422 37.6493H37.6484ZM29.6699 35.6547C29.6699 35.3859 29.8319 35.1435 30.0804 35.0406C30.3289 34.9376 30.6149 34.9944 30.805 35.1847C30.9953 35.3748 31.0521 35.6608 30.9491 35.9093C30.8462 36.1578 30.6038 36.3197 30.335 36.3197C29.9677 36.3197 29.6699 36.022 29.6699 35.6547ZM37.6484 36.3195L32.2072 36.3197C32.3702 35.8915 32.3702 35.4182 32.2072 34.9899H38.3135V35.6547C38.3135 35.8311 38.2433 36.0003 38.1187 36.125C37.994 36.2496 37.8248 36.3197 37.6484 36.3197V36.3195ZM23.0215 23.0225H37.6484C37.8248 23.0225 37.994 23.0926 38.1187 23.2173C38.2433 23.342 38.3135 23.5112 38.3135 23.6873V33.6604H22.3566V23.6873C22.3566 23.3203 22.654 23.0225 23.0213 23.0225L23.0215 23.0225ZM22.3567 35.6548V34.9901H28.463H28.4627C28.2997 35.4183 28.2997 35.8916 28.4627 36.3199H23.0215C22.6542 36.3199 22.3567 36.0221 22.3567 35.6548ZM32.0078 39.6441H28.6572L29.455 37.6494H31.2094L32.0078 39.6441Z" fill="#FFDC60"/>
<path d="M33.8172 16.126C33.6455 16.0834 33.464 16.1109 33.3127 16.2025C33.1613 16.294 33.0528 16.4421 33.0107 16.6137C32.9687 16.7854 32.9971 16.9669 33.0892 17.118C33.1813 17.2688 33.3299 17.3768 33.5019 17.4179C36.7974 18.2215 39.6616 20.2529 41.5095 23.0971C43.3578 25.9415 44.0504 29.384 43.446 32.7218C42.8416 36.0596 40.9856 39.0407 38.2575 41.0564C35.5293 43.0722 32.1345 43.9696 28.7667 43.5667C25.3989 43.1637 22.3118 41.49 20.1364 38.8876C17.9607 36.2853 16.8607 32.9505 17.061 29.5642C17.2611 26.1783 18.7465 22.9963 21.2136 20.6682C23.6807 18.3402 26.9434 17.0422 30.3354 17.0388C30.7024 17.0388 31.0001 16.7411 31.0001 16.374C31.0001 16.0067 30.7024 15.709 30.3354 15.709C26.6124 15.7134 23.0315 17.1387 20.3238 19.6938C17.6163 22.2491 15.9862 25.7416 15.7667 29.4581C15.5471 33.1747 16.7548 36.8346 19.1426 39.6912C21.5304 42.5473 24.9186 44.3844 28.6149 44.8269C32.3114 45.2696 36.0377 44.2843 39.0317 42.0723C42.0264 39.8607 44.0636 36.5891 44.7276 32.9256C45.3918 29.2625 44.6321 25.4843 42.6044 22.362C40.5763 19.2399 37.4333 17.0095 33.8167 16.1264L33.8172 16.126Z" fill="#0064E9"/>
<path d="M24.3516 32.331H36.3192C36.6863 32.331 36.984 32.0333 36.984 31.666C36.984 31.2989 36.6863 31.0012 36.3192 31.0012H35.6542V28.3418C35.6542 27.9745 35.3567 27.6768 34.9894 27.6768C34.6221 27.6768 34.3246 27.9745 34.3246 28.3418V31.0012H32.33V29.6714C32.33 29.3043 32.0323 29.0066 31.665 29.0066C31.2979 29.0066 31.0002 29.3043 31.0002 29.6714V31.0012H29.0056V28.3418C29.0056 27.9745 28.7078 27.6768 28.3408 27.6768C27.9735 27.6768 27.6757 27.9745 27.6757 28.3418V31.0012H25.6811V29.6714C25.6811 29.3043 25.3837 29.0066 25.0164 29.0066C24.649 29.0066 24.3516 29.3043 24.3516 29.6714V31.0012C23.9843 31.0012 23.6865 31.2989 23.6865 31.666C23.6865 32.0333 23.9842 32.331 24.3516 32.331Z" fill="#FFDC60"/>
<path d="M25.0159 27.6768C25.1364 27.6768 25.2547 27.644 25.3576 27.5819L28.3404 25.7927L31.0098 27.3943C31.3991 27.6298 31.8822 27.6484 32.2884 27.4436L35.951 25.6157C36.2796 25.4518 36.4132 25.0522 36.249 24.7236C36.0848 24.395 35.6852 24.2617 35.3566 24.4256L31.6938 26.254L29.0236 24.6518H29.0238C28.8171 24.528 28.5808 24.4626 28.3399 24.4626C28.0992 24.4626 27.8626 24.528 27.6562 24.6518L24.6734 26.4416C24.4169 26.5952 24.2944 26.9013 24.3743 27.1896C24.4542 27.4779 24.7168 27.6774 25.0159 27.6768Z" fill="#FFDC60"/>
</svg>
