<svg width="166" height="166" viewBox="0 0 166 166" fill="none" xmlns="http://www.w3.org/2000/svg">
<g filter="url(#filter0_d_1221_892)">
<rect x="38" y="30" width="90" height="90" rx="6" fill="#0064E9"/>
</g>
<path fill-rule="evenodd" clip-rule="evenodd" d="M83.9999 58.6999C93.5545 58.6999 101.3 66.4455 101.3 76.0003C101.3 85.5552 93.5547 93.3007 83.9999 93.3007C74.4451 93.3007 66.6995 85.5552 66.6995 76.0003C66.6995 66.4455 74.4451 58.6999 83.9999 58.6999ZM84.8163 55.4839V57.0848C84.545 57.0733 84.2733 57.0662 83.9999 57.0662C83.7261 57.0662 83.454 57.0737 83.1835 57.0848V55.4839C81.4849 55.1104 80.2139 53.5971 80.2139 51.786C80.2139 49.6949 81.9093 48 83.9999 48C86.091 48 87.7859 49.6953 87.7859 51.786C87.7859 53.597 86.5149 55.1107 84.8163 55.4839ZM96.7974 62.0474C97.199 62.4155 97.5845 62.801 97.9526 63.2026L99.0796 62.0755C99.6678 62.4514 100.367 62.6698 101.117 62.6698C103.208 62.6698 104.902 60.9745 104.902 58.8838C104.902 56.7928 103.207 55.0979 101.117 55.0979C99.0254 55.0979 97.3305 56.7932 97.3305 58.8838C97.3305 59.6337 97.5485 60.3327 97.9249 60.9207L96.7974 62.0474ZM102.915 75.1837H104.516C104.89 73.4851 106.403 72.2141 108.214 72.2141C110.305 72.2141 112 73.9094 112 76.0001C112 78.0912 110.305 79.7861 108.214 79.7861C106.403 79.7861 104.89 78.5151 104.516 76.8165H102.915C102.927 76.5452 102.934 76.2735 102.934 76.0001C102.934 75.7263 102.926 75.4542 102.915 75.1837ZM97.9526 88.7974C97.5845 89.199 97.199 89.5845 96.7974 89.9526L97.9245 91.0796C97.5486 91.6678 97.3302 92.3667 97.3302 93.1165C97.3302 95.2076 99.0255 96.9025 101.116 96.9025C103.207 96.9025 104.902 95.2072 104.902 93.1165C104.902 91.0254 103.207 89.3305 101.116 89.3305C100.366 89.3305 99.6673 89.5485 99.0793 89.9249L97.9526 88.7974ZM84.8163 94.9152V96.5161C86.5149 96.8896 87.7859 98.4029 87.7859 100.214C87.7859 102.305 86.0906 104 83.9999 104C81.9088 104 80.2139 102.305 80.2139 100.214C80.2139 98.4033 81.4849 96.89 83.1835 96.5161V94.9152C83.4548 94.9268 83.7265 94.9338 83.9999 94.9338C84.2737 94.9338 84.5458 94.9263 84.8163 94.9152ZM71.2026 89.9526C70.801 89.5845 70.4155 89.199 70.0474 88.7974L68.9204 89.9245C68.3322 89.5486 67.6333 89.3302 66.8835 89.3302C64.7924 89.3302 63.0975 91.0255 63.0975 93.1162C63.0975 95.2073 64.7928 96.9021 66.8835 96.9021C68.9746 96.9021 70.6695 95.2068 70.6695 93.1162C70.6695 92.3663 70.4515 91.6673 70.0751 91.0793L71.2026 89.9526ZM65.0848 76.8163H63.4839C63.1104 78.5149 61.5971 79.7859 59.786 79.7859C57.6949 79.7859 56 78.0906 56 75.9999C56 73.9088 57.6953 72.2139 59.786 72.2139C61.5967 72.2139 63.11 73.4849 63.4839 75.1835H65.0848C65.0733 75.4548 65.0662 75.7265 65.0662 75.9999C65.0662 76.2737 65.0737 76.5458 65.0848 76.8163ZM70.0474 63.2026C70.4155 62.801 70.801 62.4155 71.2026 62.0474L70.0755 60.9204C70.4514 60.3322 70.6698 59.6333 70.6698 58.8835C70.6698 56.7924 68.9745 55.0975 66.8838 55.0975C64.7928 55.0975 63.0979 56.7928 63.0979 58.8835C63.0979 60.9746 64.7932 62.6695 66.8838 62.6695C67.6337 62.6695 68.3327 62.4515 68.9207 62.0751L70.0474 63.2026ZM81.5415 81.5078L82.7745 83.1675C82.9759 82.9413 82.9498 82.5604 82.7579 82.3023L82.0366 81.3312C81.8708 81.3878 81.7053 81.4474 81.5415 81.5078ZM93.8869 73.4854H96.4118C96.8792 73.4854 97.2584 73.1062 97.2584 72.6388C97.2584 72.1714 96.8792 71.7922 96.4118 71.7922H93.8869C93.4195 71.7922 93.0403 72.1714 93.0403 72.6388C93.0398 73.1062 93.4191 73.4854 93.8869 73.4854ZM93.8687 69.4356L95.9415 68.2386C96.3456 68.0046 96.4833 67.4884 96.2492 67.0844C96.0152 66.6803 95.499 66.5426 95.095 66.7767L93.0221 67.9736C92.618 68.2077 92.4803 68.7238 92.7144 69.1279C92.9481 69.532 93.465 69.6697 93.8687 69.4356ZM90.9909 66.7758L92.2532 64.5897C92.4852 64.1856 92.3458 63.6707 91.9426 63.4382C91.5385 63.2062 91.0236 63.3456 90.7912 63.7488L89.5289 65.935C89.2969 66.3391 89.4362 66.854 89.8395 67.0864C90.2436 67.3185 90.7585 67.1795 90.9909 66.7758ZM83.3831 64.6815C82.5882 65.1405 82.3135 66.1662 82.7722 66.9615L89.6191 78.8198C90.0782 79.6148 91.1038 79.8894 91.8992 79.4307C92.6941 78.9716 92.9688 77.946 92.51 77.1506L85.6631 65.2923C85.2037 64.4974 84.178 64.2224 83.3831 64.6815ZM75.6035 74.8709L72.7965 76.4918C71.0904 77.4761 70.5006 79.6777 71.4858 81.3833C72.4701 83.0893 74.6717 83.6791 76.3772 82.6939L79.1843 81.073L75.6035 74.8709ZM89.7477 69.101L91.2536 71.7087C91.4567 71.1818 91.4289 70.5718 91.125 70.044C90.8197 69.5179 90.3052 69.1883 89.7477 69.101ZM80.1645 82.3929L77.9159 83.6912L81.2709 88.1802C81.3937 88.3452 81.565 88.4366 81.7701 88.4552C81.9752 88.4738 82.158 88.4118 82.3107 88.2741L83.1631 87.5003C83.436 87.2525 83.4708 86.8418 83.2507 86.5461L80.1645 82.3929ZM77.0832 74.1683L80.5325 80.1426C82.9954 79.1938 85.3979 78.6401 87.5456 78.4965L82.0157 68.9178C80.818 70.7058 79.1363 72.5098 77.0832 74.1683Z" fill="white"/>
<defs>
<filter id="filter0_d_1221_892" x="0" y="0" width="166" height="166" filterUnits="userSpaceOnUse" color-interpolation-filters="sRGB">
<feFlood flood-opacity="0" result="BackgroundImageFix"/>
<feColorMatrix in="SourceAlpha" type="matrix" values="0 0 0 0 0 0 0 0 0 0 0 0 0 0 0 0 0 0 127 0" result="hardAlpha"/>
<feMorphology radius="2" operator="erode" in="SourceAlpha" result="effect1_dropShadow_1221_892"/>
<feOffset dy="8"/>
<feGaussianBlur stdDeviation="20"/>
<feColorMatrix type="matrix" values="0 0 0 0 0.0235294 0 0 0 0 0.0470588 0 0 0 0 0.231373 0 0 0 0.08 0"/>
<feBlend mode="normal" in2="BackgroundImageFix" result="effect1_dropShadow_1221_892"/>
<feBlend mode="normal" in="SourceGraphic" in2="effect1_dropShadow_1221_892" result="shape"/>
</filter>
</defs>
</svg>
