<svg width="529" height="536" viewBox="0 0 529 536" fill="none" xmlns="http://www.w3.org/2000/svg">
<rect width="92.5263" height="92.5263" transform="matrix(-1.19249e-08 1 1 1.19249e-08 368.228 442.345)" fill="#0064E9" fill-opacity="0.1"/>
<rect width="67.8526" height="67.8526" transform="matrix(-1.19249e-08 1 1 1.19249e-08 460.754 373.881)" fill="#0064E9" fill-opacity="0.1"/>
<rect width="61.6842" height="61.6842" transform="matrix(-1.19249e-08 1 1 1.19249e-08 157.474 380.947)" fill="#0064E9" fill-opacity="0.1"/>
<rect width="133.649" height="133.649" transform="matrix(1 -3.30913e-08 -3.05195e-08 -1 119.435 226.737)" fill="#0064E9" fill-opacity="0.1"/>
<rect width="113.088" height="113.088" transform="matrix(1 -2.82896e-08 -3.55875e-08 -1 6.34741 93.0879)" fill="#0064E9" fill-opacity="0.1"/>
<rect width="92.5263" height="92.5263" transform="matrix(1 -3.30913e-08 -3.05195e-08 -1 253.084 93.0889)" fill="#0064E9" fill-opacity="0.1"/>
<rect x="244.86" y="442.632" width="123.368" height="123.368" transform="rotate(-90 244.86 442.632)" fill="#0064E9" fill-opacity="0.1"/>
<rect x="325.049" y="226.737" width="41.1228" height="41.1228" transform="rotate(-90 325.049 226.737)" fill="#0064E9" fill-opacity="0.1"/>
<rect x="481.316" y="138.323" width="45.2351" height="45.2351" transform="rotate(-90 481.316 138.323)" fill="#0064E9" fill-opacity="0.1"/>
<rect x="6.34741" y="190.755" width="61.6842" height="61.6842" transform="rotate(-90 6.34741 190.755)" fill="#0064E9" fill-opacity="0.1"/>
<rect x="244.86" y="535.158" width="92.5263" height="61.6842" transform="rotate(-90 244.86 535.158)" fill="#0064E9" fill-opacity="0.1"/>
<rect x="-43" y="458.054" width="71.9649" height="71.9649" transform="rotate(-90 -43 458.054)" fill="#0064E9" fill-opacity="0.1"/>
<rect x="-43" y="328.517" width="34.9544" height="71.9649" transform="rotate(-90 -43 328.517)" fill="#0064E9" fill-opacity="0.1"/>
<rect x="28.965" y="386.089" width="92.5263" height="92.5263" transform="rotate(-90 28.965 386.089)" fill="#0064E9" fill-opacity="0.1"/>
<rect width="88.414" height="88.414" transform="matrix(1 -3.30913e-08 -3.05195e-08 -1 438.137 226.737)" fill="#0064E9" fill-opacity="0.1"/>
<rect width="45.2351" height="45.2351" transform="matrix(1 -3.30913e-08 -3.05195e-08 -1 437.109 93.0879)" fill="#0064E9" fill-opacity="0.1"/>
<rect x="497.765" y="535.158" width="30.8421" height="30.8421" transform="rotate(-90 497.765 535.158)" fill="#0064E9" fill-opacity="0.1"/>
<rect x="170.839" y="31.4038" width="30.8421" height="30.8421" transform="rotate(-90 170.839 31.4038)" fill="#0064E9" fill-opacity="0.1"/>
</svg>
