<svg width="545" height="543" viewBox="0 0 545 543" fill="none" xmlns="http://www.w3.org/2000/svg">
<rect width="92.5263" height="92.5263" transform="matrix(-1.19249e-08 1 1 1.19249e-08 411.228 449.345)" fill="#0064E9" fill-opacity="0.1"/>
<rect width="67.8526" height="67.8526" transform="matrix(-1.19249e-08 1 1 1.19249e-08 503.754 380.881)" fill="#0064E9" fill-opacity="0.1"/>
<rect width="61.6842" height="61.6842" transform="matrix(-1.19249e-08 1 1 1.19249e-08 200.474 387.947)" fill="#0064E9" fill-opacity="0.1"/>
<rect width="133.649" height="133.649" transform="matrix(1 -3.30913e-08 -3.05195e-08 -1 162.435 233.737)" fill="#0064E9" fill-opacity="0.1"/>
<rect width="113.088" height="113.088" transform="matrix(1 -2.82896e-08 -3.55875e-08 -1 49.3474 100.088)" fill="#0064E9" fill-opacity="0.1"/>
<rect width="92.5263" height="92.5263" transform="matrix(1 -3.30913e-08 -3.05195e-08 -1 296.084 100.089)" fill="#0064E9" fill-opacity="0.1"/>
<rect x="287.86" y="449.632" width="123.368" height="123.368" transform="rotate(-90 287.86 449.632)" fill="#0064E9" fill-opacity="0.1"/>
<rect x="368.049" y="233.737" width="41.1228" height="41.1228" transform="rotate(-90 368.049 233.737)" fill="#0064E9" fill-opacity="0.1"/>
<rect x="524.316" y="145.323" width="45.2351" height="45.2351" transform="rotate(-90 524.316 145.323)" fill="#0064E9" fill-opacity="0.1"/>
<rect x="49.3474" y="197.755" width="61.6842" height="61.6842" transform="rotate(-90 49.3474 197.755)" fill="#0064E9" fill-opacity="0.1"/>
<rect x="287.86" y="542.158" width="92.5263" height="61.6842" transform="rotate(-90 287.86 542.158)" fill="#0064E9" fill-opacity="0.1"/>
<rect y="465.054" width="71.9649" height="71.9649" transform="rotate(-90 0 465.054)" fill="#0064E9" fill-opacity="0.1"/>
<rect y="335.517" width="34.9544" height="71.9649" transform="rotate(-90 0 335.517)" fill="#0064E9" fill-opacity="0.1"/>
<rect x="71.9648" y="393.089" width="92.5263" height="92.5263" transform="rotate(-90 71.9648 393.089)" fill="#0064E9" fill-opacity="0.1"/>
<rect width="88.414" height="88.414" transform="matrix(1 -3.30913e-08 -3.05195e-08 -1 481.137 233.737)" fill="#0064E9" fill-opacity="0.1"/>
<rect width="45.2351" height="45.2351" transform="matrix(1 -3.30913e-08 -3.05195e-08 -1 480.109 100.088)" fill="#0064E9" fill-opacity="0.1"/>
<rect x="540.765" y="542.158" width="30.8421" height="30.8421" transform="rotate(-90 540.765 542.158)" fill="#0064E9" fill-opacity="0.1"/>
<rect x="213.839" y="38.4043" width="30.8421" height="30.8421" transform="rotate(-90 213.839 38.4043)" fill="#0064E9" fill-opacity="0.1"/>
</svg>
