<svg width="764" height="754" viewBox="0 0 764 754" fill="none" xmlns="http://www.w3.org/2000/svg">
<rect width="125.667" height="125.667" transform="matrix(-1.19249e-08 1 1 1.19249e-08 558.785 627.943)" fill="#0064E9" fill-opacity="0.1"/>
<rect width="92.1556" height="92.1556" transform="matrix(-1.19249e-08 1 1 1.19249e-08 684.452 534.958)" fill="#0064E9" fill-opacity="0.1"/>
<rect width="83.7778" height="83.7778" transform="matrix(-1.19249e-08 1 1 1.19249e-08 272.544 544.556)" fill="#0064E9" fill-opacity="0.1"/>
<rect width="181.519" height="181.519" transform="matrix(1 -3.30913e-08 -3.05195e-08 -1 220.881 335.112)" fill="#0064E9" fill-opacity="0.1"/>
<rect width="153.593" height="153.593" transform="matrix(1 -2.82896e-08 -3.55875e-08 -1 67.2881 153.592)" fill="#0064E9" fill-opacity="0.1"/>
<rect width="125.667" height="125.667" transform="matrix(1 -3.30913e-08 -3.05195e-08 -1 402.399 153.593)" fill="#0064E9" fill-opacity="0.1"/>
<rect x="391.229" y="628.333" width="167.556" height="167.556" transform="rotate(-90 391.229 628.333)" fill="#0064E9" fill-opacity="0.1"/>
<rect x="500.141" y="335.111" width="55.8519" height="55.8519" transform="rotate(-90 500.141 335.111)" fill="#0064E9" fill-opacity="0.1"/>
<rect x="712.377" y="215.03" width="61.4371" height="61.4371" transform="rotate(-90 712.377 215.03)" fill="#0064E9" fill-opacity="0.1"/>
<rect x="67.2881" y="286.241" width="83.7778" height="83.7778" transform="rotate(-90 67.2881 286.241)" fill="#0064E9" fill-opacity="0.1"/>
<rect x="391.229" y="754" width="125.667" height="83.7778" transform="rotate(-90 391.229 754)" fill="#0064E9" fill-opacity="0.1"/>
<rect x="0.266113" y="649.278" width="97.7408" height="97.7408" transform="rotate(-90 0.266113 649.278)" fill="#0064E9" fill-opacity="0.1"/>
<rect x="0.266113" y="473.345" width="47.4741" height="97.7408" transform="rotate(-90 0.266113 473.345)" fill="#0064E9" fill-opacity="0.1"/>
<rect x="98.0068" y="551.538" width="125.667" height="125.667" transform="rotate(-90 98.0068 551.538)" fill="#0064E9" fill-opacity="0.1"/>
<rect width="120.082" height="120.082" transform="matrix(1 -3.30913e-08 -3.05195e-08 -1 653.733 335.111)" fill="#0064E9" fill-opacity="0.1"/>
<rect width="61.4371" height="61.4371" transform="matrix(1 -3.30913e-08 -3.05195e-08 -1 652.337 153.592)" fill="#0064E9" fill-opacity="0.1"/>
<rect x="734.718" y="754" width="41.8889" height="41.8889" transform="rotate(-90 734.718 754)" fill="#0064E9" fill-opacity="0.1"/>
<rect x="290.695" y="69.8145" width="41.8889" height="41.8889" transform="rotate(-90 290.695 69.8145)" fill="#0064E9" fill-opacity="0.1"/>
</svg>
