<svg width="566" height="353" viewBox="0 0 566 353" fill="none" xmlns="http://www.w3.org/2000/svg">
<g clip-path="url(#clip0_1101_897)">
<path d="M137.09 317.501L137.72 303.35C144.28 299.843 151.598 297.991 159.037 297.954C148.799 306.325 150.078 322.46 143.137 333.717C140.945 337.211 137.995 340.167 134.505 342.366C131.016 344.565 127.076 345.951 122.978 346.42L114.41 351.666C113.235 345.112 113.494 338.381 115.17 331.937C116.846 325.493 119.899 319.488 124.12 314.338C126.516 311.472 129.263 308.919 132.297 306.74C134.349 312.15 137.09 317.501 137.09 317.501Z" fill="#F2F2F2"/>
<path d="M502.673 23.8825H103.823C103.656 23.8788 103.497 23.8097 103.379 23.69C103.262 23.5703 103.197 23.4095 103.197 23.242C103.197 23.0746 103.262 22.9137 103.379 22.794C103.497 22.6743 103.656 22.6052 103.823 22.6016H502.673C502.84 22.6052 503 22.6743 503.117 22.794C503.234 22.9137 503.299 23.0746 503.299 23.242C503.299 23.4095 503.234 23.5703 503.117 23.69C503 23.8097 502.84 23.8788 502.673 23.8825Z" fill="#CACACA"/>
<path d="M117.924 14.916C121.73 14.916 124.816 11.7619 124.816 7.8711C124.816 3.9803 121.73 0.826172 117.924 0.826172C114.118 0.826172 111.033 3.9803 111.033 7.8711C111.033 11.7619 114.118 14.916 117.924 14.916Z" fill="#3F3D56"/>
<path d="M141.731 14.916C145.537 14.916 148.622 11.7619 148.622 7.8711C148.622 3.9803 145.537 0.826172 141.731 0.826172C137.925 0.826172 134.839 3.9803 134.839 7.8711C134.839 11.7619 137.925 14.916 141.731 14.916Z" fill="#3F3D56"/>
<path d="M165.537 14.916C169.343 14.916 172.429 11.7619 172.429 7.8711C172.429 3.9803 169.343 0.826172 165.537 0.826172C161.731 0.826172 158.646 3.9803 158.646 7.8711C158.646 11.7619 161.731 14.916 165.537 14.916Z" fill="#3F3D56"/>
<path d="M488.407 2.57227H471.496C471.161 2.57892 470.841 2.71675 470.607 2.95616C470.372 3.19557 470.24 3.51746 470.24 3.85272C470.24 4.18799 470.372 4.50988 470.607 4.74929C470.841 4.9887 471.161 5.12653 471.496 5.13318H488.407C488.742 5.12653 489.061 4.9887 489.296 4.74929C489.53 4.50988 489.662 4.18799 489.662 3.85272C489.662 3.51746 489.53 3.19557 489.296 2.95616C489.061 2.71675 488.742 2.57892 488.407 2.57227Z" fill="#3F3D56"/>
<path d="M488.407 7.37891H471.496C471.161 7.38556 470.841 7.52339 470.607 7.7628C470.372 8.00221 470.24 8.3241 470.24 8.65937C470.24 8.99463 470.372 9.31652 470.607 9.55593C470.841 9.79534 471.161 9.93317 471.496 9.93982H488.407C488.742 9.93317 489.061 9.79534 489.296 9.55593C489.53 9.31652 489.662 8.99463 489.662 8.65937C489.662 8.3241 489.53 8.00221 489.296 7.7628C489.061 7.52339 488.742 7.38556 488.407 7.37891Z" fill="#3F3D56"/>
<path d="M488.407 12.1787H471.496C471.161 12.1854 470.841 12.3232 470.607 12.5626C470.372 12.802 470.24 13.1239 470.24 13.4592C470.24 13.7944 470.372 14.1163 470.607 14.3557C470.841 14.5951 471.161 14.733 471.496 14.7396H488.407C488.742 14.733 489.061 14.5951 489.296 14.3557C489.53 14.1163 489.662 13.7944 489.662 13.4592C489.662 13.1239 489.53 12.802 489.296 12.5626C489.061 12.3232 488.742 12.1854 488.407 12.1787Z" fill="#3F3D56"/>
<path d="M414.234 74.085H140.474C139.125 74.085 137.832 74.6205 136.877 75.5737C135.923 76.527 135.386 77.82 135.384 79.169V208.394C135.385 209.744 135.922 211.038 136.876 211.992C137.831 212.946 139.125 213.483 140.474 213.485H414.234C415.583 213.482 416.875 212.945 417.828 211.99C418.781 211.036 419.317 209.743 419.318 208.394V79.169C419.317 77.821 418.78 76.5287 417.827 75.5755C416.874 74.6224 415.582 74.0863 414.234 74.085Z" fill="#3F3D56"/>
<path d="M341.923 136.342C340.575 136.343 339.282 136.879 338.329 137.832C337.376 138.786 336.84 140.078 336.839 141.426V177.928C336.84 179.277 337.376 180.57 338.329 181.524C339.282 182.478 340.574 183.016 341.923 183.019H419.318V136.342H341.923Z" fill="#0064E9"/>
<path opacity="0.5" d="M549.455 183.016H341.925C340.576 183.014 339.283 182.478 338.329 181.524C337.375 180.57 336.839 179.277 336.837 177.928V141.427C336.839 140.078 337.375 138.785 338.329 137.831C339.283 136.877 340.576 136.34 341.925 136.339H549.455C550.803 136.34 552.097 136.877 553.051 137.831C554.005 138.785 554.541 140.078 554.543 141.427V177.928C554.541 179.277 554.004 180.57 553.051 181.524C552.097 182.478 550.804 183.014 549.455 183.016Z" fill="#0064E9"/>
<path d="M369.991 170.267C374.55 170.267 378.247 166.57 378.247 162.01C378.247 157.45 374.55 153.754 369.991 153.754C365.431 153.754 361.734 157.45 361.734 162.01C361.734 166.57 365.431 170.267 369.991 170.267Z" fill="white"/>
<path d="M543.025 159.611H393.839C393.187 159.611 392.562 159.352 392.1 158.891C391.639 158.43 391.38 157.805 391.38 157.153C391.38 156.501 391.639 155.875 392.1 155.414C392.562 154.953 393.187 154.694 393.839 154.694H543.025C543.677 154.694 544.302 154.953 544.763 155.414C545.224 155.875 545.483 156.501 545.483 157.153C545.483 157.805 545.224 158.43 544.763 158.891C544.302 159.352 543.677 159.611 543.025 159.611Z" fill="white"/>
<path d="M486.362 169.327H393.839C393.187 169.327 392.561 169.068 392.1 168.606C391.639 168.145 391.38 167.52 391.38 166.868C391.38 166.216 391.639 165.59 392.1 165.129C392.561 164.668 393.187 164.409 393.839 164.409H486.362C487.014 164.409 487.64 164.668 488.101 165.129C488.562 165.59 488.821 166.216 488.821 166.868C488.821 167.52 488.562 168.145 488.101 168.606C487.64 169.068 487.014 169.327 486.362 169.327Z" fill="white"/>
<path d="M95.5021 344.934L102.647 344.933L106.047 317.373H95.5009L95.5021 344.934Z" fill="#FFB6B6"/>
<path d="M93.6797 342.601L95.6909 342.6L103.543 339.407L107.751 342.6H107.752C110.13 342.6 112.411 343.545 114.093 345.227C115.774 346.908 116.719 349.189 116.719 351.567V351.859L93.6801 351.86L93.6797 342.601Z" fill="#2F2E41"/>
<path d="M30.9398 335.643L37.3352 338.831L52.6717 315.681L43.2335 310.977L30.9398 335.643Z" fill="#FFB6B6"/>
<path d="M30.3494 332.742L32.1495 333.639L40.6014 334.284L42.9436 339.019L42.9441 339.019C45.0726 340.08 46.6924 341.943 47.4473 344.199C48.2022 346.454 48.0304 348.917 46.9696 351.045L46.8396 351.306L26.2194 341.029L30.3494 332.742Z" fill="#2F2E41"/>
<path d="M98.668 219.764L53.2363 220.949L54.0264 243.072C54.0264 243.072 53.2363 248.998 54.8165 250.578C56.3968 252.158 57.1869 252.158 56.3968 254.924C55.6067 257.689 53.564 284.112 53.564 284.112C53.564 284.112 34.9175 317.082 35.7076 317.872C36.4978 318.662 37.2879 317.872 36.4978 319.847C35.7077 321.823 34.9175 321.033 35.7076 321.823C36.4075 322.577 37.0669 323.369 37.6829 324.193H50.5604C50.5604 324.193 51.2805 320.243 51.2805 319.847C51.2805 319.452 52.0707 317.082 52.0707 316.687C52.0707 316.292 74.5695 292.454 74.5695 292.454L79.3102 252.949L90.7668 291.664C90.7668 291.664 90.7669 325.639 91.557 326.429C92.3471 327.22 92.3471 326.825 91.952 328.405C91.557 329.985 89.9767 329.59 91.1619 330.775C92.3471 331.96 92.7422 329.985 92.3471 331.96L91.952 333.936L107.13 334.105C107.13 334.105 108.71 330.775 107.92 329.59C107.13 328.405 107.177 328.728 108.141 326.789C109.105 324.849 109.5 324.454 109.105 324.059C108.71 323.664 108.71 321.563 108.71 321.563C108.71 321.563 103.014 243.862 103.014 242.677C102.984 242.067 103.096 241.459 103.342 240.9V239.291L101.828 233.591L98.668 219.764Z" fill="#2F2E41"/>
<path d="M548.567 151.168C545.119 151.168 541.748 150.146 538.882 148.23C536.015 146.315 533.78 143.592 532.461 140.406C531.141 137.221 530.796 133.716 531.469 130.334C532.141 126.952 533.802 123.846 536.24 121.408C538.678 118.97 541.784 117.309 545.166 116.637C548.548 115.964 552.053 116.309 555.238 117.629C558.424 118.948 561.147 121.183 563.062 124.05C564.978 126.916 566 130.287 566 133.735C566 138.358 564.163 142.793 560.894 146.062C557.625 149.331 553.191 151.168 548.567 151.168Z" fill="#0064E9"/>
<path d="M555.445 132.015H550.286V126.856C550.286 126.4 550.105 125.963 549.783 125.64C549.46 125.318 549.023 125.137 548.567 125.137C548.111 125.137 547.673 125.318 547.351 125.64C547.028 125.963 546.847 126.4 546.847 126.856V132.015H541.688C541.462 132.015 541.238 132.059 541.029 132.145C540.82 132.232 540.63 132.358 540.47 132.518C540.31 132.678 540.183 132.867 540.096 133.076C540.01 133.285 539.965 133.509 539.965 133.735C539.965 133.961 540.01 134.185 540.096 134.394C540.183 134.603 540.31 134.793 540.47 134.952C540.63 135.112 540.82 135.239 541.029 135.325C541.238 135.411 541.462 135.455 541.688 135.455H546.847V140.614C546.847 141.07 547.028 141.507 547.351 141.83C547.673 142.152 548.111 142.334 548.567 142.334C549.023 142.334 549.46 142.152 549.783 141.83C550.105 141.507 550.286 141.07 550.286 140.614V135.455H555.445C555.902 135.455 556.339 135.274 556.661 134.951C556.984 134.629 557.165 134.191 557.165 133.735C557.165 133.279 556.984 132.842 556.661 132.519C556.339 132.197 555.902 132.015 555.445 132.015Z" fill="white"/>
<path d="M282.511 183.252H216.274C214.924 183.253 213.63 183.79 212.676 184.745C211.722 185.699 211.185 186.993 211.183 188.342V213.485H287.595V188.342C287.593 186.994 287.058 185.701 286.105 184.746C285.152 183.792 283.859 183.255 282.511 183.252Z" fill="#0064E9"/>
<path opacity="0.5" d="M282.508 253.898H216.271C214.922 253.896 213.629 253.36 212.675 252.406C211.721 251.452 211.185 250.159 211.183 248.81V188.34C211.185 186.991 211.721 185.698 212.675 184.744C213.629 183.79 214.922 183.253 216.271 183.252H282.508C283.857 183.253 285.151 183.79 286.104 184.744C287.058 185.698 287.595 186.991 287.596 188.34V248.81C287.595 250.159 287.058 251.452 286.104 252.406C285.151 253.36 283.857 253.896 282.508 253.898Z" fill="#0064E9"/>
<path d="M235.786 211.914C240.346 211.914 244.043 208.218 244.043 203.658C244.043 199.098 240.346 195.401 235.786 195.401C231.227 195.401 227.53 199.098 227.53 203.658C227.53 208.218 231.227 211.914 235.786 211.914Z" fill="white"/>
<path d="M268.79 224.463H229.989C229.337 224.463 228.711 224.204 228.25 223.743C227.789 223.282 227.53 222.657 227.53 222.004C227.53 221.352 227.789 220.727 228.25 220.266C228.711 219.805 229.337 219.546 229.989 219.546H268.79C269.442 219.546 270.067 219.805 270.528 220.266C270.99 220.727 271.249 221.352 271.249 222.004C271.249 222.657 270.99 223.282 270.528 223.743C270.067 224.204 269.442 224.463 268.79 224.463Z" fill="white"/>
<path d="M248.712 234.178H229.989C229.337 234.178 228.711 233.919 228.25 233.458C227.789 232.997 227.53 232.372 227.53 231.719C227.53 231.067 227.789 230.442 228.25 229.981C228.711 229.52 229.337 229.261 229.989 229.261H248.712C249.364 229.261 249.99 229.52 250.451 229.981C250.912 230.442 251.171 231.067 251.171 231.719C251.171 232.372 250.912 232.997 250.451 233.458C249.99 233.919 249.364 234.178 248.712 234.178Z" fill="white"/>
<path d="M214.89 271.645C211.442 271.645 208.072 270.622 205.205 268.707C202.338 266.791 200.104 264.068 198.784 260.883C197.465 257.697 197.12 254.192 197.792 250.81C198.465 247.429 200.125 244.322 202.563 241.884C205.001 239.446 208.108 237.786 211.489 237.113C214.871 236.441 218.376 236.786 221.562 238.105C224.747 239.425 227.47 241.659 229.386 244.526C231.301 247.393 232.324 250.764 232.324 254.212C232.324 258.835 230.487 263.269 227.218 266.539C223.948 269.808 219.514 271.645 214.89 271.645Z" fill="#0064E9"/>
<path d="M221.769 252.492H216.61V247.333C216.61 246.877 216.429 246.439 216.106 246.117C215.784 245.794 215.346 245.613 214.89 245.613C214.434 245.613 213.997 245.794 213.674 246.117C213.352 246.439 213.171 246.877 213.171 247.333V252.492H208.012C207.785 252.492 207.561 252.536 207.352 252.622C207.143 252.708 206.953 252.835 206.793 252.995C206.633 253.154 206.506 253.344 206.42 253.553C206.333 253.762 206.289 253.986 206.289 254.212C206.289 254.438 206.333 254.662 206.42 254.871C206.506 255.079 206.633 255.269 206.793 255.429C206.953 255.589 207.143 255.715 207.352 255.801C207.561 255.888 207.785 255.932 208.012 255.931H213.171V261.09C213.171 261.546 213.352 261.984 213.674 262.306C213.997 262.629 214.434 262.81 214.89 262.81C215.346 262.81 215.784 262.629 216.106 262.306C216.429 261.984 216.61 261.546 216.61 261.09V255.931H221.769C222.225 255.931 222.662 255.75 222.985 255.428C223.307 255.105 223.489 254.668 223.489 254.212C223.489 253.756 223.307 253.318 222.985 252.996C222.662 252.673 222.225 252.492 221.769 252.492Z" fill="white"/>
<path d="M206.821 144.809H140.584C139.235 144.808 137.941 144.271 136.988 143.317C136.034 142.363 135.497 141.07 135.496 139.721V79.2509C135.497 77.902 136.034 76.6087 136.988 75.6549C137.941 74.7011 139.235 74.1646 140.584 74.1631H206.821C208.17 74.1646 209.463 74.7011 210.417 75.6549C211.371 76.6087 211.907 77.902 211.909 79.2509V139.721C211.907 141.07 211.371 142.363 210.417 143.317C209.463 144.271 208.17 144.808 206.821 144.809Z" fill="#0064E9"/>
<path d="M160.099 107.872C164.659 107.872 168.356 104.176 168.356 99.6157C168.356 95.0559 164.659 91.3594 160.099 91.3594C155.539 91.3594 151.843 95.0559 151.843 99.6157C151.843 104.176 155.539 107.872 160.099 107.872Z" fill="#0064E9"/>
<path d="M193.103 117.899H154.302C153.65 117.899 153.024 117.64 152.563 117.178C152.102 116.717 151.843 116.092 151.843 115.44C151.843 114.788 152.102 114.163 152.563 113.702C153.024 113.24 153.65 112.981 154.302 112.981H193.103C193.755 112.981 194.38 113.24 194.841 113.702C195.302 114.163 195.561 114.788 195.561 115.44C195.561 116.092 195.302 116.717 194.841 117.178C194.38 117.64 193.755 117.899 193.103 117.899Z" fill="#0064E9"/>
<path d="M173.025 127.614H154.302C153.65 127.614 153.024 127.355 152.563 126.894C152.102 126.432 151.843 125.807 151.843 125.155C151.843 124.503 152.102 123.878 152.563 123.416C153.024 122.955 153.65 122.696 154.302 122.696H173.025C173.677 122.696 174.303 122.955 174.764 123.416C175.225 123.878 175.484 124.503 175.484 125.155C175.484 125.807 175.225 126.432 174.764 126.894C174.303 127.355 173.677 127.614 173.025 127.614Z" fill="#0064E9"/>
<path opacity="0.5" d="M206.821 144.809H140.584C139.235 144.808 137.941 144.271 136.988 143.317C136.034 142.363 135.497 141.07 135.496 139.721V79.2509C135.497 77.902 136.034 76.6087 136.988 75.6549C137.941 74.7011 139.235 74.1646 140.584 74.1631H206.821C208.17 74.1646 209.463 74.7011 210.417 75.6549C211.371 76.6087 211.907 77.902 211.909 79.2509V139.721C211.907 141.07 211.371 142.363 210.417 143.317C209.463 144.271 208.17 144.808 206.821 144.809Z" fill="#0064E9"/>
<path d="M160.099 107.872C164.659 107.872 168.356 104.176 168.356 99.6157C168.356 95.0559 164.659 91.3594 160.099 91.3594C155.539 91.3594 151.843 95.0559 151.843 99.6157C151.843 104.176 155.539 107.872 160.099 107.872Z" fill="white"/>
<path d="M193.103 117.899H154.302C153.65 117.899 153.024 117.64 152.563 117.178C152.102 116.717 151.843 116.092 151.843 115.44C151.843 114.788 152.102 114.163 152.563 113.702C153.024 113.24 153.65 112.981 154.302 112.981H193.103C193.755 112.981 194.38 113.24 194.841 113.702C195.302 114.163 195.561 114.788 195.561 115.44C195.561 116.092 195.302 116.717 194.841 117.178C194.38 117.64 193.755 117.899 193.103 117.899Z" fill="white"/>
<path d="M173.025 127.614H154.302C153.65 127.614 153.024 127.355 152.563 126.894C152.102 126.432 151.843 125.807 151.843 125.155C151.843 124.503 152.102 123.878 152.563 123.416C153.024 122.955 153.65 122.696 154.302 122.696H173.025C173.677 122.696 174.303 122.955 174.764 123.416C175.225 123.878 175.484 124.503 175.484 125.155C175.484 125.807 175.225 126.432 174.764 126.894C174.303 127.355 173.677 127.614 173.025 127.614Z" fill="white"/>
<path d="M141.95 87.211C149.266 87.211 155.196 81.2805 155.196 73.9649C155.196 66.6492 149.266 60.7188 141.95 60.7188C134.635 60.7188 128.704 66.6492 128.704 73.9649C128.704 81.2805 134.635 87.211 141.95 87.211Z" fill="#FFDC60"/>
<path d="M178.299 351.398C178.3 351.497 178.28 351.595 178.243 351.686C178.205 351.777 178.15 351.86 178.08 351.93C178.01 351.999 177.928 352.055 177.836 352.092C177.745 352.13 177.647 352.149 177.549 352.149H0.750616C0.551541 352.149 0.360616 352.07 0.219849 351.929C0.0790813 351.788 0 351.597 0 351.398C0 351.199 0.0790813 351.008 0.219849 350.867C0.360616 350.727 0.551541 350.647 0.750616 350.647H177.549C177.647 350.647 177.745 350.666 177.836 350.704C177.927 350.742 178.01 350.797 178.08 350.867C178.15 350.936 178.205 351.019 178.243 351.11C178.28 351.202 178.3 351.299 178.299 351.398Z" fill="#CCCCCC"/>
<path d="M139.119 109.051C139.664 110.573 139.588 112.249 138.908 113.716C138.229 115.183 137 116.325 135.487 116.894C135.152 117.019 134.807 117.115 134.455 117.179L130.957 138.599L122.75 131.022L127.33 111.842C127.161 110.226 127.634 108.608 128.648 107.338C129.662 106.068 131.135 105.248 132.749 105.056C134.106 104.9 135.476 105.211 136.634 105.937C137.791 106.663 138.668 107.761 139.119 109.051L139.119 109.051Z" fill="#FFB6B6"/>
<path d="M78.5562 157.587C78.5562 157.587 84.9253 149.172 108.038 149.402L121.156 144.636L124.154 117.153L134.648 119.652L133.149 153.63L110.663 166.622L81.1814 172.618L78.5562 157.587Z" fill="#3F3D56"/>
<path d="M75.172 140.055C82.748 140.055 88.8896 133.914 88.8896 126.338C88.8896 118.762 82.748 112.62 75.172 112.62C67.5959 112.62 61.4543 118.762 61.4543 126.338C61.4543 133.914 67.5959 140.055 75.172 140.055Z" fill="#FFB6B6"/>
<path d="M51.9547 230.348C51.9304 230.348 51.9061 230.345 51.8827 230.339C51.6295 230.268 51.4294 230.212 52.3434 222.309L53.3298 216.062L52.3668 210.547L50.747 208.927L53.3503 206.324L55.535 200.118L51.7549 194.517L47.418 171.61C46.6724 167.657 47.2518 163.569 49.0663 159.979C50.8808 156.389 53.8291 153.498 57.4539 151.754L62.4734 150.287L64.2997 146.938C64.8126 145.998 65.5677 145.211 66.4868 144.661C67.4059 144.111 68.4555 143.816 69.5267 143.808L78.7187 143.739C79.6461 143.732 80.5625 143.94 81.396 144.347C82.2296 144.754 82.9576 145.348 83.5231 146.083L86.7299 150.252L100.028 154.769L97.8232 202.279C98.1735 202.572 98.4591 202.935 98.662 203.344C98.8648 203.753 98.9806 204.2 99.0019 204.656C99.0232 205.113 98.9496 205.568 98.7857 205.995C98.6218 206.421 98.3712 206.809 98.0498 207.133C97.9115 207.273 97.8016 207.386 97.7339 207.461C97.5097 207.78 97.9303 210.157 98.4498 212.176L99.1159 215.268C98.9021 215.421 98.7224 215.616 98.588 215.842C98.4536 216.068 98.3674 216.319 98.3349 216.58C98.3025 216.84 98.3244 217.105 98.3994 217.357C98.4743 217.608 98.6006 217.842 98.7704 218.043L99.6197 219.046C99.7876 220.304 99.4498 221.577 98.6803 222.586C97.9108 223.595 96.7725 224.258 95.515 224.429C83.3617 226.083 52.0182 230.348 51.9547 230.348Z" fill="#3F3D56"/>
<path d="M71.6628 139.385C71.6041 139.255 71.5457 139.126 71.4874 138.996C71.5099 138.997 71.5321 139 71.5546 139.001L71.6628 139.385Z" fill="#2F2E41"/>
<path d="M61.073 113.244C61.7243 112.63 62.5709 112.264 63.4647 112.21C64.3517 112.239 65.2512 113.04 65.0675 113.908C66.6968 111.024 69.2902 108.805 72.3924 107.642C75.4946 106.478 78.9074 106.445 82.0318 107.547C84.2365 108.325 86.3985 109.881 86.905 112.164C86.9543 112.763 87.133 113.344 87.4287 113.868C87.685 114.147 88.0176 114.346 88.3855 114.439C88.7533 114.533 89.1404 114.516 89.4991 114.392L89.5208 114.386C89.6436 114.344 89.7761 114.34 89.9012 114.374C90.0263 114.408 90.1383 114.479 90.2227 114.578C90.307 114.676 90.3599 114.798 90.3744 114.927C90.3889 115.055 90.3643 115.186 90.304 115.301L89.6802 116.464C90.4665 116.639 91.2836 116.622 92.0618 116.413C92.1911 116.379 92.3276 116.386 92.4528 116.433C92.578 116.48 92.6856 116.564 92.761 116.675C92.8363 116.785 92.8756 116.916 92.8736 117.05C92.8715 117.183 92.8282 117.313 92.7495 117.421C91.7128 118.839 90.3593 119.996 88.7968 120.799C87.2344 121.602 85.506 122.03 83.7492 122.047C81.2568 122.032 78.7387 121.173 76.313 121.746C75.3746 121.968 74.4978 122.397 73.7468 123.002C72.9958 123.607 72.3898 124.372 71.9731 125.242C71.5565 126.111 71.3398 127.063 71.339 128.027C71.3382 128.991 71.5533 129.944 71.9685 130.814C71.2233 129.999 69.7828 130.192 69.0206 130.991C68.6695 131.419 68.4101 131.914 68.2582 132.446C68.1064 132.978 68.0654 133.536 68.1378 134.085C68.3411 135.765 68.84 137.396 69.6114 138.903C66.664 138.812 63.8155 137.819 61.4506 136.058C59.0856 134.296 57.3182 131.852 56.3872 129.054C55.4561 126.256 55.4061 123.239 56.2441 120.412C57.0821 117.585 58.7676 115.083 61.073 113.245L61.073 113.244Z" fill="black"/>
<path d="M57.2988 250.023C55.9873 249.077 55.1 247.654 54.8283 246.06C54.5567 244.466 54.9224 242.829 55.8465 241.502C56.0515 241.209 56.282 240.935 56.5354 240.683L47.2787 221.052L58.3341 222.644L65.4295 241.042C66.485 242.278 67.0119 243.879 66.8963 245.5C66.7806 247.121 66.0317 248.631 64.8114 249.705C63.7811 250.602 62.4761 251.123 61.1109 251.18C59.7457 251.238 58.4014 250.83 57.2988 250.023H57.2988Z" fill="#FFB6B6"/>
<path d="M54.4954 239.303L39.7657 206.198L39.6182 180.052L44.2613 165.929C44.8912 164.013 45.8989 162.242 47.2247 160.722C48.5505 159.202 50.1676 157.963 51.9804 157.079C53.7931 156.194 55.7648 155.682 57.7788 155.573C59.7928 155.464 61.8084 155.759 63.7063 156.442L63.8085 156.479L63.8514 156.579C64.023 156.979 67.9173 166.612 56.366 186.428L54.0413 199.987L62.1985 231.068L54.4954 239.303Z" fill="#3F3D56"/>
</g>
<defs>
<clipPath id="clip0_1101_897">
<rect width="566" height="351.322" fill="white" transform="translate(0 0.826172)"/>
</clipPath>
</defs>
</svg>
