<svg width="651" height="405" viewBox="0 0 651 405" fill="none" xmlns="http://www.w3.org/2000/svg">
<g clip-path="url(#clip0_637_815)">
<path d="M157.513 364.509L158.236 348.25C165.774 344.221 174.182 342.092 182.729 342.05C170.966 351.667 172.436 370.207 164.46 383.14C161.942 387.155 158.552 390.551 154.543 393.078C150.533 395.605 146.007 397.197 141.298 397.736L131.454 403.763C130.103 396.233 130.401 388.499 132.327 381.095C134.253 373.691 137.761 366.792 142.61 360.874C145.363 357.581 148.52 354.648 152.006 352.144C154.363 358.361 157.513 364.509 157.513 364.509Z" fill="#F2F2F2"/>
<path d="M577.557 27.1487H119.29C119.098 27.1444 118.915 27.0651 118.78 26.9275C118.646 26.79 118.57 26.6052 118.57 26.4128C118.57 26.2204 118.646 26.0356 118.78 25.8981C118.915 25.7606 119.098 25.6812 119.29 25.6769H577.557C577.75 25.6812 577.933 25.7606 578.067 25.8981C578.202 26.0356 578.277 26.2204 578.277 26.4128C578.277 26.6052 578.202 26.79 578.067 26.9275C577.933 27.0651 577.75 27.1444 577.557 27.1487Z" fill="#CACACA"/>
<path d="M135.492 16.8466C139.865 16.8466 143.41 13.2226 143.41 8.75221C143.41 4.28178 139.865 0.657776 135.492 0.657776C131.119 0.657776 127.574 4.28178 127.574 8.75221C127.574 13.2226 131.119 16.8466 135.492 16.8466Z" fill="#3F3D56"/>
<path d="M162.845 16.8466C167.218 16.8466 170.763 13.2226 170.763 8.75221C170.763 4.28178 167.218 0.657776 162.845 0.657776C158.472 0.657776 154.927 4.28178 154.927 8.75221C154.927 13.2226 158.472 16.8466 162.845 16.8466Z" fill="#3F3D56"/>
<path d="M190.198 16.8466C194.571 16.8466 198.116 13.2226 198.116 8.75221C198.116 4.28178 194.571 0.657776 190.198 0.657776C185.825 0.657776 182.28 4.28178 182.28 8.75221C182.28 13.2226 185.825 16.8466 190.198 16.8466Z" fill="#3F3D56"/>
<path d="M561.166 2.66406H541.736C541.351 2.67171 540.984 2.83007 540.714 3.10515C540.444 3.38022 540.293 3.75007 540.293 4.13527C540.293 4.52048 540.444 4.89033 540.714 5.1654C540.984 5.44048 541.351 5.59884 541.736 5.60649H561.166C561.551 5.59884 561.918 5.44048 562.187 5.1654C562.457 4.89033 562.608 4.52048 562.608 4.13527C562.608 3.75007 562.457 3.38022 562.187 3.10515C561.918 2.83007 561.551 2.67171 561.166 2.66406Z" fill="#3F3D56"/>
<path d="M561.166 8.18655H541.736C541.351 8.1942 540.984 8.35256 540.714 8.62764C540.444 8.90271 540.293 9.27256 540.293 9.65777C540.293 10.043 540.444 10.4128 540.714 10.6879C540.984 10.963 541.351 11.1213 541.736 11.129H561.166C561.551 11.1213 561.918 10.963 562.187 10.6879C562.457 10.4128 562.608 10.043 562.608 9.65777C562.608 9.27256 562.457 8.90271 562.187 8.62764C561.918 8.35256 561.551 8.1942 561.166 8.18655Z" fill="#3F3D56"/>
<path d="M561.166 13.7018H541.736C541.351 13.7094 540.984 13.8678 540.714 14.1429C540.444 14.4179 540.293 14.7878 540.293 15.173C540.293 15.5582 540.444 15.9281 540.714 16.2031C540.984 16.4782 541.351 16.6366 541.736 16.6442H561.166C561.551 16.6366 561.918 16.4782 562.187 16.2031C562.457 15.9281 562.608 15.5582 562.608 15.173C562.608 14.7878 562.457 14.4179 562.187 14.1429C561.918 13.8678 561.551 13.7094 561.166 13.7018Z" fill="#3F3D56"/>
<path d="M475.943 84.8296H161.401C159.851 84.8297 158.365 85.4449 157.268 86.5402C156.171 87.6354 155.554 89.1211 155.552 90.671V239.148C155.554 240.698 156.171 242.185 157.267 243.281C158.364 244.378 159.85 244.994 161.401 244.996H475.943C477.493 244.993 478.978 244.375 480.073 243.279C481.168 242.183 481.783 240.697 481.785 239.148V90.671C481.783 89.1222 481.167 87.6374 480.072 86.5423C478.977 85.4471 477.492 84.8312 475.943 84.8296Z" fill="#3F3D56"/>
<path d="M392.86 156.361C391.311 156.363 389.826 156.979 388.731 158.074C387.636 159.169 387.02 160.654 387.018 162.202V204.143C387.02 205.692 387.635 207.178 388.73 208.274C389.825 209.371 391.31 209.988 392.86 209.991H481.785V156.361H392.86Z" fill="#6C63FF"/>
<path opacity="0.5" d="M631.308 209.988H392.863C391.313 209.987 389.827 209.37 388.731 208.274C387.635 207.178 387.019 205.692 387.017 204.142V162.204C387.019 160.654 387.635 159.168 388.731 158.072C389.827 156.976 391.313 156.36 392.863 156.358H631.308C632.858 156.36 634.344 156.976 635.44 158.072C636.536 159.168 637.152 160.654 637.154 162.204V204.142C637.152 205.692 636.536 207.178 635.44 208.274C634.344 209.37 632.858 209.987 631.308 209.988Z" fill="#004AAD"/>
<path d="M425.109 195.341C430.348 195.341 434.595 191.093 434.595 185.854C434.595 180.615 430.348 176.368 425.109 176.368C419.87 176.368 415.622 180.615 415.622 185.854C415.622 191.093 419.87 195.341 425.109 195.341Z" fill="white"/>
<path d="M623.92 183.098H452.51C451.761 183.098 451.042 182.8 450.513 182.271C449.983 181.741 449.685 181.022 449.685 180.273C449.685 179.524 449.983 178.805 450.513 178.276C451.042 177.746 451.761 177.448 452.51 177.448H623.92C624.669 177.448 625.388 177.746 625.918 178.276C626.447 178.805 626.745 179.524 626.745 180.273C626.745 181.022 626.447 181.741 625.918 182.271C625.388 182.8 624.669 183.098 623.92 183.098Z" fill="white"/>
<path d="M558.817 194.26H452.51C451.761 194.26 451.042 193.963 450.512 193.433C449.983 192.903 449.685 192.185 449.685 191.435C449.685 190.686 449.983 189.968 450.512 189.438C451.042 188.908 451.761 188.61 452.51 188.61H558.817C559.566 188.61 560.285 188.908 560.814 189.438C561.344 189.968 561.642 190.686 561.642 191.435C561.642 192.185 561.344 192.903 560.814 193.433C560.285 193.963 559.566 194.26 558.817 194.26Z" fill="white"/>
<path d="M109.729 396.028L117.939 396.027L121.845 364.361H109.728L109.729 396.028Z" fill="#FFB6B6"/>
<path d="M107.635 393.347L109.946 393.347L118.968 389.678L123.803 393.346H123.804C126.537 393.347 129.157 394.432 131.089 396.364C133.022 398.297 134.107 400.917 134.107 403.65V403.985L107.636 403.986L107.635 393.347Z" fill="#2F2E41"/>
<path d="M35.549 385.354L42.8971 389.016L60.5183 362.417L49.6741 357.012L35.549 385.354Z" fill="#FFB6B6"/>
<path d="M34.8706 382.021L36.9388 383.051L46.6498 383.792L49.341 389.232L49.3416 389.233C51.7871 390.452 53.6483 392.593 54.5157 395.184C55.383 397.775 55.1856 400.605 53.9668 403.05L53.8174 403.35L30.1253 391.542L34.8706 382.021Z" fill="#2F2E41"/>
<path d="M113.367 252.211L61.1671 253.573L62.0749 278.992C62.0749 278.992 61.1671 285.8 62.9827 287.616C64.7984 289.432 65.7062 289.432 64.7984 292.609C63.8906 295.786 61.5436 326.145 61.5436 326.145C61.5436 326.145 40.1193 364.027 41.0272 364.935C41.935 365.843 42.8428 364.935 41.935 367.204C41.0272 369.474 40.1193 368.566 41.0272 369.474C41.8313 370.341 42.5889 371.25 43.2967 372.197H58.0926C58.0926 372.197 58.92 367.658 58.92 367.204C58.92 366.75 59.8278 364.027 59.8278 363.573C59.8278 363.119 85.6783 335.73 85.6783 335.73L91.1252 290.339L104.289 334.823C104.289 334.823 104.289 373.859 105.196 374.767C106.104 375.675 106.104 375.221 105.65 377.036C105.196 378.852 103.381 378.398 104.743 379.76C106.104 381.122 106.558 378.852 106.104 381.122L105.65 383.391L123.089 383.586C123.089 383.586 124.905 379.76 123.997 378.398C123.089 377.036 123.144 377.408 124.251 375.18C125.359 372.951 125.813 372.497 125.359 372.043C124.905 371.589 124.905 369.175 124.905 369.175C124.905 369.175 118.36 279.899 118.36 278.538C118.326 277.837 118.455 277.138 118.737 276.496V274.647L116.998 268.098L113.367 252.211Z" fill="#2F2E41"/>
<path d="M630.288 173.397C626.327 173.397 622.454 172.222 619.16 170.021C615.866 167.82 613.299 164.692 611.783 161.032C610.267 157.372 609.87 153.344 610.643 149.459C611.416 145.573 613.323 142.004 616.125 139.203C618.926 136.402 622.495 134.494 626.38 133.721C630.266 132.948 634.293 133.345 637.953 134.861C641.613 136.377 644.742 138.944 646.943 142.238C649.144 145.532 650.318 149.405 650.318 153.367C650.318 158.679 648.208 163.774 644.452 167.53C640.695 171.287 635.601 173.397 630.288 173.397Z" fill="#004AAD"/>
<path d="M638.192 151.391H632.264V145.463C632.264 144.939 632.056 144.437 631.685 144.066C631.315 143.695 630.812 143.487 630.288 143.487C629.764 143.487 629.262 143.695 628.891 144.066C628.52 144.437 628.312 144.939 628.312 145.463V151.391H622.385C622.125 151.39 621.868 151.441 621.627 151.54C621.387 151.639 621.169 151.785 620.985 151.968C620.801 152.152 620.655 152.37 620.556 152.61C620.456 152.85 620.405 153.107 620.405 153.367C620.405 153.626 620.456 153.884 620.556 154.124C620.655 154.364 620.801 154.582 620.985 154.765C621.169 154.949 621.387 155.094 621.627 155.193C621.868 155.292 622.125 155.343 622.385 155.342H628.312V161.27C628.312 161.794 628.52 162.297 628.891 162.667C629.262 163.038 629.764 163.246 630.288 163.246C630.812 163.246 631.315 163.038 631.685 162.667C632.056 162.297 632.264 161.794 632.264 161.27V155.342H638.192C638.716 155.342 639.218 155.134 639.589 154.764C639.959 154.393 640.167 153.891 640.167 153.367C640.167 152.843 639.959 152.34 639.589 151.97C639.218 151.599 638.716 151.391 638.192 151.391Z" fill="white"/>
<path d="M324.597 210.26H248.492C246.942 210.261 245.455 210.878 244.359 211.974C243.262 213.071 242.646 214.558 242.644 216.108V244.996H330.438V216.108C330.437 214.559 329.821 213.073 328.726 211.977C327.631 210.88 326.146 210.263 324.597 210.26Z" fill="#6C63FF"/>
<path opacity="0.5" d="M324.594 291.43H248.49C246.94 291.428 245.454 290.812 244.358 289.716C243.262 288.62 242.646 287.134 242.644 285.584V216.105C242.646 214.555 243.262 213.07 244.358 211.974C245.454 210.878 246.94 210.261 248.49 210.26H324.594C326.144 210.261 327.63 210.878 328.726 211.974C329.822 213.07 330.439 214.555 330.44 216.105V285.584C330.439 287.134 329.822 288.62 328.726 289.716C327.63 290.812 326.144 291.428 324.594 291.43Z" fill="#004AAD"/>
<path d="M270.912 243.192C276.151 243.192 280.398 238.945 280.398 233.706C280.398 228.467 276.151 224.219 270.912 224.219C265.673 224.219 261.426 228.467 261.426 233.706C261.426 238.945 265.673 243.192 270.912 243.192Z" fill="white"/>
<path d="M308.832 257.611H264.251C263.502 257.611 262.783 257.313 262.253 256.783C261.724 256.254 261.426 255.535 261.426 254.786C261.426 254.037 261.724 253.318 262.253 252.788C262.783 252.259 263.502 251.961 264.251 251.961H308.832C309.581 251.961 310.3 252.259 310.83 252.788C311.359 253.318 311.657 254.037 311.657 254.786C311.657 255.535 311.359 256.254 310.83 256.783C310.3 257.313 309.581 257.611 308.832 257.611Z" fill="white"/>
<path d="M285.764 268.773H264.251C263.502 268.773 262.783 268.475 262.253 267.946C261.723 267.416 261.426 266.697 261.426 265.948C261.426 265.199 261.723 264.48 262.253 263.951C262.783 263.421 263.502 263.123 264.251 263.123H285.764C286.513 263.123 287.231 263.421 287.761 263.951C288.291 264.48 288.589 265.199 288.589 265.948C288.589 266.697 288.291 267.416 287.761 267.946C287.231 268.475 286.513 268.773 285.764 268.773Z" fill="white"/>
<path d="M246.903 311.821C242.942 311.821 239.069 310.646 235.775 308.446C232.481 306.245 229.914 303.116 228.398 299.456C226.882 295.796 226.485 291.769 227.258 287.883C228.031 283.998 229.938 280.429 232.74 277.628C235.541 274.826 239.11 272.919 242.995 272.146C246.881 271.373 250.908 271.769 254.568 273.285C258.228 274.802 261.357 277.369 263.558 280.663C265.759 283.957 266.933 287.829 266.933 291.791C266.933 297.103 264.823 302.198 261.067 305.955C257.31 309.711 252.215 311.821 246.903 311.821Z" fill="#004AAD"/>
<path d="M254.807 289.815H248.879V283.888C248.879 283.364 248.671 282.861 248.3 282.49C247.93 282.12 247.427 281.912 246.903 281.912C246.379 281.912 245.877 282.12 245.506 282.49C245.135 282.861 244.927 283.364 244.927 283.888V289.815H239C238.74 289.815 238.483 289.866 238.242 289.965C238.002 290.064 237.784 290.209 237.6 290.393C237.416 290.576 237.27 290.794 237.171 291.034C237.071 291.274 237.02 291.531 237.02 291.791C237.02 292.051 237.071 292.308 237.171 292.548C237.27 292.788 237.416 293.006 237.6 293.19C237.784 293.373 238.002 293.519 238.242 293.618C238.483 293.717 238.74 293.767 239 293.767H244.927V299.695C244.927 300.219 245.135 300.721 245.506 301.092C245.877 301.462 246.379 301.67 246.903 301.67C247.427 301.67 247.93 301.462 248.3 301.092C248.671 300.721 248.879 300.219 248.879 299.695V293.767H254.807C255.331 293.767 255.833 293.559 256.204 293.188C256.574 292.818 256.782 292.315 256.782 291.791C256.782 291.267 256.574 290.765 256.204 290.394C255.833 290.023 255.331 289.815 254.807 289.815Z" fill="white"/>
<path d="M237.631 166.091H161.527C159.977 166.089 158.491 165.472 157.395 164.376C156.299 163.28 155.682 161.794 155.681 160.245V90.7659C155.683 89.2161 156.299 87.7302 157.395 86.6343C158.491 85.5383 159.977 84.9219 161.527 84.9202H237.631C239.181 84.9219 240.667 85.5383 241.763 86.6343C242.859 87.7302 243.475 89.2161 243.477 90.7659V160.245C243.475 161.794 242.859 163.28 241.763 164.376C240.667 165.472 239.181 166.089 237.631 166.091Z" fill="#6C63FF"/>
<path d="M183.95 123.651C189.189 123.651 193.436 119.404 193.436 114.164C193.436 108.925 189.189 104.678 183.95 104.678C178.71 104.678 174.463 108.925 174.463 114.164C174.463 119.404 178.71 123.651 183.95 123.651Z" fill="#6C63FF"/>
<path d="M221.87 135.17H177.288C176.539 135.17 175.821 134.873 175.291 134.343C174.761 133.813 174.463 133.095 174.463 132.346C174.463 131.596 174.761 130.878 175.291 130.348C175.821 129.818 176.539 129.521 177.288 129.521H221.87C222.619 129.521 223.337 129.818 223.867 130.348C224.397 130.878 224.695 131.596 224.695 132.346C224.695 133.095 224.397 133.813 223.867 134.343C223.337 134.873 222.619 135.17 221.87 135.17Z" fill="#6C63FF"/>
<path d="M198.801 146.333H177.288C176.539 146.333 175.82 146.035 175.291 145.505C174.761 144.976 174.463 144.257 174.463 143.508C174.463 142.759 174.761 142.04 175.291 141.51C175.82 140.98 176.539 140.683 177.288 140.683H198.801C199.55 140.683 200.269 140.98 200.799 141.51C201.328 142.04 201.626 142.759 201.626 143.508C201.626 144.257 201.328 144.976 200.799 145.505C200.269 146.035 199.55 146.333 198.801 146.333Z" fill="#6C63FF"/>
<path opacity="0.5" d="M237.631 166.091H161.527C159.977 166.089 158.491 165.472 157.395 164.376C156.299 163.28 155.682 161.794 155.681 160.245V90.7659C155.683 89.2161 156.299 87.7302 157.395 86.6343C158.491 85.5383 159.977 84.9219 161.527 84.9202H237.631C239.181 84.9219 240.667 85.5383 241.763 86.6343C242.859 87.7302 243.475 89.2161 243.477 90.7659V160.245C243.475 161.794 242.859 163.28 241.763 164.376C240.667 165.472 239.181 166.089 237.631 166.091Z" fill="#004AAD"/>
<path d="M183.95 123.651C189.189 123.651 193.436 119.404 193.436 114.164C193.436 108.925 189.189 104.678 183.95 104.678C178.71 104.678 174.463 108.925 174.463 114.164C174.463 119.404 178.71 123.651 183.95 123.651Z" fill="white"/>
<path d="M221.87 135.17H177.288C176.539 135.17 175.821 134.873 175.291 134.343C174.761 133.813 174.463 133.095 174.463 132.346C174.463 131.596 174.761 130.878 175.291 130.348C175.821 129.818 176.539 129.521 177.288 129.521H221.87C222.619 129.521 223.337 129.818 223.867 130.348C224.397 130.878 224.695 131.596 224.695 132.346C224.695 133.095 224.397 133.813 223.867 134.343C223.337 134.873 222.619 135.17 221.87 135.17Z" fill="white"/>
<path d="M198.801 146.333H177.288C176.539 146.333 175.82 146.035 175.291 145.505C174.761 144.976 174.463 144.257 174.463 143.508C174.463 142.759 174.761 142.04 175.291 141.51C175.82 140.98 176.539 140.683 177.288 140.683H198.801C199.55 140.683 200.269 140.98 200.799 141.51C201.328 142.04 201.626 142.759 201.626 143.508C201.626 144.257 201.328 144.976 200.799 145.505C200.269 146.035 199.55 146.333 198.801 146.333Z" fill="white"/>
<path d="M163.097 99.9114C171.502 99.9114 178.316 93.0974 178.316 84.6919C178.316 76.2864 171.502 69.4725 163.097 69.4725C154.691 69.4725 147.877 76.2864 147.877 84.6919C147.877 93.0974 154.691 99.9114 163.097 99.9114Z" fill="#FF6584"/>
<path d="M204.861 403.455C204.861 403.568 204.839 403.681 204.796 403.785C204.753 403.89 204.689 403.985 204.609 404.066C204.529 404.146 204.434 404.209 204.329 404.252C204.224 404.296 204.112 404.318 203.999 404.317H0.862437C0.633705 404.317 0.414338 404.227 0.2526 404.065C0.0908622 403.903 0 403.684 0 403.455C0 403.226 0.0908622 403.007 0.2526 402.845C0.414338 402.683 0.633705 402.593 0.862437 402.593H203.999C204.112 402.592 204.224 402.614 204.329 402.658C204.434 402.701 204.529 402.764 204.609 402.844C204.689 402.925 204.753 403.02 204.796 403.125C204.839 403.229 204.861 403.342 204.861 403.455Z" fill="#CCCCCC"/>
<path d="M159.844 125.005C160.47 126.754 160.383 128.68 159.602 130.365C158.821 132.051 157.409 133.363 155.67 134.017C155.286 134.161 154.889 134.27 154.485 134.344L150.466 158.955L141.037 150.25L146.299 128.213C146.104 126.356 146.648 124.497 147.813 123.038C148.978 121.578 150.67 120.636 152.524 120.415C154.084 120.236 155.658 120.593 156.989 121.427C158.319 122.261 159.326 123.523 159.844 125.005L159.844 125.005Z" fill="#FFB6B6"/>
<path d="M90.2588 180.772C90.2588 180.772 97.5768 171.103 124.132 171.368L139.205 165.892L142.65 134.315L154.706 137.185L152.984 176.226L127.148 191.153L93.2751 198.042L90.2588 180.772Z" fill="#3F3D56"/>
<path d="M86.3706 160.629C95.0752 160.629 102.132 153.572 102.132 144.868C102.132 136.163 95.0752 129.106 86.3706 129.106C77.6659 129.106 70.6094 136.163 70.6094 144.868C70.6094 153.572 77.6659 160.629 86.3706 160.629Z" fill="#FFB6B6"/>
<path d="M59.6944 264.373C59.6665 264.373 59.6387 264.369 59.6117 264.362C59.3208 264.28 59.0909 264.216 60.141 255.136L61.2744 247.959L60.1679 241.621L58.3068 239.76L61.298 236.769L63.8081 229.639L59.4649 223.203L54.4819 196.884C53.6253 192.342 54.2909 187.645 56.3758 183.52C58.4606 179.395 61.8481 176.073 66.0129 174.07L71.7802 172.385L73.8786 168.537C74.4678 167.456 75.3355 166.553 76.3915 165.92C77.4475 165.288 78.6534 164.95 79.8842 164.941L90.4455 164.861C91.5111 164.853 92.564 165.092 93.5217 165.56C94.4794 166.027 95.3159 166.709 95.9656 167.554L99.6502 172.344L114.93 177.534L112.396 232.122C112.799 232.459 113.127 232.875 113.36 233.346C113.593 233.816 113.726 234.329 113.75 234.853C113.775 235.378 113.69 235.901 113.502 236.391C113.314 236.881 113.026 237.326 112.656 237.699C112.498 237.859 112.371 237.99 112.294 238.076C112.036 238.442 112.519 241.174 113.116 243.494L113.881 247.046C113.636 247.221 113.429 247.446 113.275 247.705C113.12 247.965 113.021 248.253 112.984 248.553C112.947 248.852 112.972 249.156 113.058 249.446C113.144 249.735 113.289 250.003 113.484 250.234L114.46 251.386C114.653 252.832 114.265 254.295 113.381 255.454C112.497 256.614 111.189 257.375 109.744 257.572C95.7802 259.472 59.7674 264.373 59.6944 264.373Z" fill="#3F3D56"/>
<path d="M82.3385 159.857C82.2712 159.709 82.204 159.56 82.1371 159.411C82.1629 159.412 82.1884 159.415 82.2143 159.416L82.3385 159.857Z" fill="#2F2E41"/>
<path d="M70.1711 129.823C70.9194 129.117 71.8921 128.697 72.9191 128.635C73.9383 128.668 74.9718 129.588 74.7607 130.586C76.6327 127.271 79.6124 124.722 83.1768 123.386C86.7412 122.049 90.6624 122.011 94.2523 123.277C96.7854 124.171 99.2695 125.959 99.8513 128.581C99.908 129.27 100.113 129.938 100.453 130.539C100.748 130.861 101.13 131.089 101.552 131.196C101.975 131.303 102.42 131.284 102.832 131.142L102.857 131.134C102.998 131.086 103.15 131.081 103.294 131.121C103.438 131.16 103.566 131.242 103.663 131.355C103.76 131.468 103.821 131.608 103.838 131.756C103.854 131.904 103.826 132.054 103.757 132.186L103.04 133.522C103.943 133.724 104.882 133.704 105.776 133.464C105.925 133.425 106.082 133.433 106.226 133.487C106.369 133.541 106.493 133.638 106.58 133.764C106.666 133.891 106.711 134.042 106.709 134.195C106.707 134.349 106.657 134.498 106.566 134.622C105.375 136.252 103.82 137.581 102.025 138.503C100.23 139.426 98.2439 139.917 96.2255 139.937C93.3618 139.92 90.4686 138.933 87.6815 139.591C86.6033 139.846 85.5958 140.339 84.733 141.034C83.8701 141.729 83.1738 142.608 82.6951 143.607C82.2164 144.607 81.9674 145.7 81.9665 146.808C81.9656 147.916 82.2127 149.01 82.6898 150.01C81.8336 149.073 80.1785 149.295 79.3026 150.213C78.8993 150.705 78.6012 151.274 78.4267 151.885C78.2523 152.497 78.2052 153.138 78.2884 153.768C78.5219 155.699 79.0952 157.573 79.9815 159.304C76.5951 159.2 73.3222 158.059 70.6049 156.035C67.8877 154.011 65.857 151.202 64.7872 147.987C63.7174 144.773 63.6601 141.307 64.6229 138.059C65.5857 134.81 67.5223 131.936 70.1711 129.823L70.1711 129.823Z" fill="#2F2E41"/>
<path d="M65.8346 286.978C64.3277 285.891 63.3083 284.255 62.9962 282.424C62.6841 280.592 63.1042 278.712 64.1661 277.187C64.4016 276.851 64.6664 276.536 64.9575 276.246L54.3218 253.69L67.0242 255.52L75.1766 276.659C76.3894 278.079 76.9948 279.918 76.8619 281.781C76.729 283.643 75.8685 285.379 74.4664 286.612C73.2826 287.643 71.7833 288.241 70.2147 288.307C68.6461 288.374 67.1015 287.905 65.8347 286.978H65.8346Z" fill="#FFB6B6"/>
<path d="M62.6138 274.662L45.6897 236.625L45.5202 206.583L50.855 190.356C51.5788 188.155 52.7366 186.121 54.2599 184.374C55.7832 182.628 57.6412 181.204 59.724 180.188C61.8068 179.172 64.0722 178.584 66.3863 178.458C68.7003 178.332 71.0161 178.672 73.1968 179.456L73.3142 179.499L73.3635 179.613C73.5607 180.074 78.0351 191.141 64.763 213.909L62.092 229.489L71.4643 265.199L62.6138 274.662Z" fill="#3F3D56"/>
</g>
<defs>
<clipPath id="clip0_637_815">
<rect width="650.318" height="403.66" fill="white" transform="translate(0 0.657776)"/>
</clipPath>
</defs>
</svg>
