<svg width="65" height="65" viewBox="0 0 65 65" fill="none" xmlns="http://www.w3.org/2000/svg">
<circle cx="32.5" cy="32.5" r="32.5" fill="white"/>
<path d="M21.4227 25.5858L30.604 16.4045C30.7677 16.2408 30.983 16.1585 31.1977 16.1585H35.1341L33.6554 14.6798H21.9984C21.3612 14.6798 20.7816 14.941 20.3616 15.3613L20.325 15.3961C19.9267 15.8111 19.6804 16.3769 19.6804 16.9984V45.8431C19.6804 46.4824 19.9408 47.062 20.3587 47.4799C20.5848 47.706 20.8566 47.8855 21.1585 48.0036V26.1974C21.1585 25.9564 21.2601 25.7388 21.4233 25.5856L21.4227 25.5858ZM37.5076 16.1586H43.2015C44.3009 16.1586 45.3017 16.6087 46.0256 17.333C46.7496 18.0569 47.2 19.0577 47.2 20.1571V49.0018C47.2 50.1018 46.7499 51.1019 46.0256 51.8259L45.9755 51.8719C45.2545 52.5695 44.274 53 43.2015 53H25.1568C24.06 53 23.0611 52.5502 22.3356 51.8256L22.3312 51.8212C21.7797 51.2692 21.3885 50.5587 21.2327 49.7673C20.4413 49.6115 19.7306 49.2202 19.1788 48.6688L19.1744 48.6644C18.4498 47.939 18 46.9403 18 45.8432V16.9985C18 15.926 18.4305 14.9455 19.1281 14.2245L19.1741 14.1744C19.8981 13.4504 20.8982 13 21.9982 13H34.0023C34.217 13.0006 34.4316 13.0829 34.5959 13.2466L37.5076 16.1586ZM27.3449 45.0842C26.8813 45.0842 26.505 44.7079 26.505 44.2443C26.505 43.7807 26.8813 43.4044 27.3449 43.4044H41.0119C41.4755 43.4044 41.8518 43.7807 41.8518 44.2443C41.8518 44.7079 41.4755 45.0842 41.0119 45.0842H27.3449ZM27.3449 36.0469C26.8813 36.0469 26.505 35.6706 26.505 35.207C26.505 34.7434 26.8813 34.367 27.3449 34.367H41.0119C41.4755 34.367 41.8518 34.7434 41.8518 35.207C41.8518 35.6706 41.4755 36.0469 41.0119 36.0469H27.3449ZM27.3449 40.5661C26.8813 40.5661 26.505 40.1898 26.505 39.7262C26.505 39.2625 26.8813 38.8862 27.3449 38.8862H41.0119C41.4755 38.8862 41.8518 39.2626 41.8518 39.7262C41.8518 40.1898 41.4755 40.5661 41.0119 40.5661H27.3449ZM32.0369 17.8385V23.0395C32.0369 24.1395 31.5868 25.1397 30.8625 25.8636L30.8125 25.9096C30.0914 26.6072 29.1109 27.0377 28.0384 27.0377H22.8374V49.0013C22.8374 49.6407 23.0978 50.2203 23.5157 50.6382C23.9368 51.0593 24.5164 51.3197 25.1557 51.3197H43.2005C43.8219 51.3197 44.3877 51.0731 44.8027 50.6751L44.8376 50.6385C45.2575 50.2185 45.5191 49.6386 45.5191 49.0016V20.1569C45.5191 19.5202 45.2578 18.9401 44.8376 18.5201C44.4176 18.1001 43.8374 17.8386 43.2007 17.8386L32.0369 17.8385ZM24.0245 25.3576H28.0382C28.6597 25.3576 29.2255 25.111 29.6405 24.713L29.6753 24.6764C30.0953 24.2565 30.3568 23.6766 30.3568 23.0396V19.0259L24.0247 25.3579L24.0245 25.3576Z" fill="#0064E9"/>
</svg>
