<svg width="498" height="536" viewBox="0 0 498 536" fill="none" xmlns="http://www.w3.org/2000/svg">
<g clip-path="url(#clip0_637_768)">
<path d="M315.896 304.061L100.629 359.495C93.3266 361.366 85.5803 360.265 79.0892 356.432C72.598 352.6 67.8922 346.349 66.0042 339.051L0.90168 86.2371C-0.969907 78.9349 0.131417 71.1886 3.96405 64.6975C7.79668 58.2064 14.0476 53.5006 21.3455 51.6125L221.617 0.0404053L272.876 22.9878L336.34 269.436C338.211 276.738 337.11 284.485 333.277 290.976C329.445 297.467 323.194 302.173 315.896 304.061Z" fill="#F2F2F2"/>
<path d="M23.3864 59.539C18.1895 60.8836 13.7381 64.2347 11.0087 68.8571C8.27945 73.4796 7.49517 78.9959 8.82798 84.1959L73.9305 337.01C75.275 342.207 78.6261 346.658 83.2486 349.388C87.871 352.117 93.3874 352.901 98.5873 351.568L313.855 296.134C319.052 294.79 323.503 291.439 326.232 286.816C328.962 282.194 329.746 276.678 328.413 271.478L265.933 28.8477L220.885 8.68091L23.3864 59.539Z" fill="white"/>
<path d="M272.329 24.292L239.014 32.8711C236.582 33.4974 234 33.1319 231.838 31.855C229.675 30.5781 228.108 28.4944 227.482 26.0622L221.146 1.45586C221.118 1.34813 221.121 1.23477 221.155 1.12877C221.189 1.02277 221.251 0.928421 221.336 0.856549C221.421 0.784676 221.525 0.738186 221.635 0.722412C221.745 0.706638 221.857 0.722215 221.959 0.767361L272.422 23.1779C272.534 23.2278 272.628 23.3114 272.691 23.4171C272.754 23.5228 272.782 23.6454 272.772 23.7679C272.761 23.8903 272.713 24.0066 272.634 24.1005C272.555 24.1944 272.448 24.2613 272.329 24.292Z" fill="#F2F2F2"/>
<path d="M254.802 240.19L156.794 265.428C156.192 265.583 155.565 265.618 154.95 265.531C154.334 265.444 153.741 265.236 153.206 264.92C152.671 264.604 152.203 264.185 151.829 263.688C151.455 263.191 151.183 262.626 151.028 262.024C150.873 261.421 150.838 260.795 150.925 260.179C151.013 259.563 151.22 258.971 151.536 258.435C151.852 257.9 152.271 257.432 152.768 257.058C153.265 256.685 153.83 256.413 154.433 256.258L252.441 231.019C253.043 230.864 253.67 230.829 254.285 230.917C254.901 231.004 255.493 231.211 256.029 231.527C256.564 231.844 257.032 232.262 257.406 232.759C257.78 233.256 258.052 233.822 258.207 234.424C258.362 235.026 258.397 235.653 258.31 236.268C258.222 236.884 258.015 237.476 257.699 238.012C257.383 238.547 256.964 239.015 256.467 239.389C255.97 239.762 255.404 240.035 254.802 240.19Z" fill="#CCCCCC"/>
<path d="M277.701 250.794L160.779 280.903C159.563 281.216 158.272 281.033 157.191 280.395C156.11 279.756 155.326 278.715 155.013 277.498C154.7 276.282 154.883 274.992 155.521 273.91C156.16 272.829 157.202 272.046 158.418 271.733L275.34 241.624C276.555 241.312 277.845 241.495 278.925 242.134C280.006 242.773 280.789 243.814 281.102 245.029C281.414 246.245 281.232 247.535 280.595 248.616C279.957 249.696 278.916 250.48 277.701 250.794Z" fill="#CCCCCC"/>
<path d="M116.793 295.825C126.035 295.825 133.528 288.332 133.528 279.09C133.528 269.848 126.035 262.355 116.793 262.355C107.55 262.355 100.058 269.848 100.058 279.09C100.058 288.332 107.55 295.825 116.793 295.825Z" fill="#E6E6E6"/>
<path d="M244.381 196.394L114.217 229.9C110.455 230.864 106.464 230.296 103.121 228.321C99.7768 226.347 97.3529 223.126 96.3806 219.367L69.1029 113.399C68.1391 109.638 68.7068 105.647 70.6815 102.303C72.6562 98.9596 75.8766 96.5358 79.6362 95.5635L209.801 62.057C213.563 61.0932 217.553 61.6609 220.897 63.6356C224.241 65.6103 226.665 68.8307 227.637 72.5903L254.914 178.558C255.878 182.319 255.311 186.31 253.336 189.654C251.361 192.997 248.141 195.421 244.381 196.394Z" fill="white"/>
<path d="M244.381 196.394L114.217 229.9C110.455 230.864 106.464 230.296 103.121 228.321C99.7768 226.347 97.3529 223.126 96.3806 219.367L69.1029 113.399C68.1391 109.638 68.7068 105.647 70.6815 102.303C72.6562 98.9596 75.8766 96.5358 79.6362 95.5635L209.801 62.057C213.563 61.0932 217.553 61.6609 220.897 63.6356C224.241 65.6103 226.665 68.8307 227.637 72.5903L254.914 178.558C255.878 182.319 255.311 186.31 253.336 189.654C251.361 192.997 248.141 195.421 244.381 196.394ZM80.0658 97.2322C76.7485 98.0901 73.907 100.229 72.1646 103.179C70.4222 106.13 69.9213 109.651 70.7717 112.97L98.0494 218.937C98.9073 222.255 101.046 225.096 103.996 226.838C106.947 228.581 110.468 229.082 113.787 228.231L243.952 194.725C247.269 193.867 250.11 191.728 251.853 188.778C253.595 185.827 254.096 182.306 253.246 178.987L225.968 73.0198C225.11 69.7026 222.971 66.861 220.021 65.1187C217.071 63.3763 213.55 62.8754 210.23 63.7258L80.0658 97.2322Z" fill="#E6E6E6"/>
<path d="M203.197 97.6875L137.505 114.598C136.931 114.758 136.317 114.694 135.788 114.419C135.259 114.145 134.853 113.679 134.654 113.117C134.562 112.823 134.53 112.514 134.561 112.208C134.592 111.901 134.685 111.604 134.834 111.335C134.983 111.066 135.186 110.83 135.43 110.642C135.673 110.453 135.953 110.317 136.251 110.24L203.122 93.0264C205.823 94.3951 205.112 97.1946 203.197 97.6877L203.197 97.6875Z" fill="#F2F2F2"/>
<path d="M206.163 109.21L140.471 126.121C139.897 126.281 139.283 126.217 138.754 125.942C138.225 125.667 137.82 125.202 137.621 124.64C137.528 124.346 137.496 124.037 137.527 123.73C137.558 123.424 137.651 123.127 137.8 122.858C137.95 122.589 138.152 122.353 138.396 122.165C138.639 121.976 138.919 121.84 139.217 121.763L206.088 104.549C208.789 105.918 208.078 108.717 206.163 109.21L206.163 109.21Z" fill="#F2F2F2"/>
<path d="M127.959 136.337L107.91 141.498C107.255 141.666 106.561 141.567 105.979 141.223C105.397 140.879 104.975 140.319 104.806 139.664L98.7154 116.005C98.5475 115.351 98.6463 114.656 98.99 114.074C99.3338 113.492 99.8944 113.07 100.549 112.901L120.597 107.74C121.252 107.572 121.947 107.671 122.529 108.015C123.111 108.359 123.533 108.919 123.702 109.573L129.792 133.232C129.96 133.887 129.861 134.582 129.518 135.164C129.174 135.746 128.613 136.168 127.959 136.337V136.337Z" fill="#E6E6E6"/>
<path d="M212.046 132.853L111.787 158.661C111.213 158.821 110.599 158.758 110.07 158.483C109.541 158.208 109.136 157.742 108.937 157.18C108.844 156.887 108.812 156.577 108.843 156.271C108.874 155.964 108.967 155.668 109.116 155.398C109.265 155.129 109.468 154.893 109.712 154.705C109.955 154.517 110.235 154.38 110.533 154.303L211.971 128.191C214.672 129.56 213.961 132.36 212.046 132.853L212.046 132.853Z" fill="#F2F2F2"/>
<path d="M215.013 144.379L114.754 170.187C114.18 170.347 113.566 170.284 113.037 170.009C112.508 169.734 112.103 169.269 111.904 168.706C111.811 168.413 111.779 168.103 111.81 167.797C111.841 167.491 111.934 167.194 112.083 166.925C112.233 166.655 112.435 166.419 112.679 166.231C112.922 166.043 113.202 165.906 113.5 165.829L214.938 139.718C217.639 141.086 216.928 143.886 215.013 144.379V144.379Z" fill="#F2F2F2"/>
<path d="M217.978 155.898L117.719 181.706C117.145 181.866 116.531 181.802 116.002 181.528C115.473 181.253 115.068 180.787 114.869 180.225C114.776 179.931 114.744 179.622 114.775 179.316C114.806 179.009 114.899 178.713 115.048 178.443C115.198 178.174 115.4 177.938 115.644 177.75C115.887 177.562 116.167 177.425 116.465 177.348L217.903 151.236C220.604 152.605 219.893 155.405 217.978 155.898Z" fill="#F2F2F2"/>
<path d="M220.945 167.423L120.686 193.231C120.112 193.392 119.498 193.328 118.969 193.053C118.44 192.778 118.035 192.313 117.835 191.75C117.743 191.457 117.711 191.147 117.742 190.841C117.773 190.535 117.866 190.238 118.015 189.969C118.164 189.699 118.367 189.464 118.611 189.275C118.854 189.087 119.134 188.95 119.432 188.873L220.87 162.762C223.571 164.13 222.86 166.93 220.945 167.423L220.945 167.423Z" fill="#F2F2F2"/>
<path d="M223.91 178.943L123.651 204.751C123.077 204.911 122.463 204.847 121.934 204.573C121.405 204.298 121 203.832 120.801 203.27C120.708 202.977 120.676 202.667 120.707 202.361C120.738 202.054 120.831 201.758 120.98 201.488C121.13 201.219 121.332 200.983 121.576 200.795C121.82 200.607 122.099 200.47 122.397 200.393L223.835 174.281C226.536 175.65 225.825 178.45 223.91 178.943Z" fill="#F2F2F2"/>
<path d="M118.027 284.956C117.663 285.051 117.278 285.024 116.93 284.881L116.908 284.872L112.349 282.939C112.138 282.849 111.946 282.719 111.785 282.555C111.623 282.391 111.496 282.198 111.41 281.984C111.324 281.771 111.281 281.544 111.283 281.314C111.285 281.084 111.332 280.857 111.422 280.646C111.512 280.434 111.643 280.243 111.807 280.082C111.971 279.921 112.165 279.794 112.378 279.708C112.591 279.622 112.819 279.579 113.049 279.582C113.279 279.584 113.506 279.632 113.717 279.722L116.671 280.979L120.542 271.872C120.632 271.661 120.762 271.47 120.926 271.309C121.09 271.148 121.284 271.021 121.496 270.936C121.709 270.85 121.937 270.807 122.166 270.809C122.396 270.811 122.622 270.858 122.833 270.948L122.834 270.948L122.811 271.008L122.835 270.948C123.261 271.13 123.598 271.473 123.771 271.903C123.944 272.333 123.94 272.814 123.759 273.24L119.205 283.947C119.099 284.194 118.938 284.413 118.734 284.588C118.53 284.762 118.289 284.888 118.028 284.954L118.027 284.956Z" fill="white"/>
<path d="M398.464 400.402H176.174C168.636 400.393 161.409 397.395 156.078 392.065C150.748 386.734 147.75 379.508 147.741 371.969V110.908C147.75 103.37 150.748 96.1426 156.078 90.8123C161.409 85.482 168.636 82.4837 176.174 82.4752H382.978L426.896 117.481V371.969C426.888 379.508 423.89 386.734 418.559 392.065C413.229 397.395 406.002 400.393 398.464 400.402Z" fill="#E6E6E6"/>
<path d="M176.174 90.6603C170.806 90.6663 165.659 92.8015 161.863 96.5973C158.068 100.393 155.932 105.54 155.926 110.908V371.969C155.932 377.337 158.068 382.484 161.863 386.28C165.659 390.076 170.806 392.211 176.174 392.217H398.464C403.832 392.211 408.978 390.076 412.774 386.28C416.57 382.484 418.705 377.337 418.711 371.969V121.424L380.115 90.6603H176.174Z" fill="white"/>
<path d="M355.229 166.57H254.023C252.767 166.57 251.563 166.071 250.675 165.183C249.787 164.295 249.288 163.091 249.288 161.835C249.288 160.579 249.787 159.375 250.675 158.487C251.563 157.599 252.767 157.1 254.023 157.1H355.229C356.484 157.1 357.689 157.599 358.576 158.487C359.464 159.375 359.963 160.579 359.963 161.835C359.963 163.091 359.464 164.295 358.576 165.183C357.689 166.071 356.484 166.57 355.229 166.57Z" fill="#004AAD"/>
<path d="M374.759 182.55H254.023C252.768 182.548 251.566 182.049 250.679 181.161C249.792 180.273 249.294 179.07 249.294 177.815C249.294 176.56 249.792 175.357 250.679 174.469C251.566 173.582 252.768 173.082 254.023 173.08H374.759C375.382 173.079 375.998 173.201 376.573 173.439C377.148 173.676 377.671 174.025 378.111 174.465C378.552 174.905 378.901 175.427 379.14 176.002C379.378 176.577 379.501 177.193 379.501 177.815C379.501 178.437 379.378 179.054 379.14 179.628C378.901 180.203 378.552 180.726 378.111 181.165C377.671 181.605 377.148 181.954 376.573 182.191C375.998 182.429 375.382 182.551 374.759 182.55Z" fill="#004AAD"/>
<path d="M355.229 228.711H254.027C252.771 228.711 251.567 229.21 250.679 230.098C249.791 230.986 249.292 232.19 249.292 233.445C249.292 234.701 249.791 235.905 250.679 236.793C251.567 237.681 252.771 238.18 254.027 238.18H355.229C356.485 238.18 357.689 237.681 358.577 236.793C359.465 235.905 359.964 234.701 359.964 233.445C359.964 232.19 359.465 230.986 358.577 230.098C357.689 229.21 356.485 228.711 355.229 228.711Z" fill="#CCCCCC"/>
<path d="M374.761 244.694H254.027C252.771 244.694 251.567 245.192 250.679 246.08C249.791 246.968 249.292 248.172 249.292 249.428C249.292 250.684 249.791 251.888 250.679 252.776C251.567 253.664 252.771 254.162 254.027 254.162H374.761C376.017 254.162 377.221 253.664 378.109 252.776C378.997 251.888 379.496 250.684 379.496 249.428C379.496 248.172 378.997 246.968 378.109 246.08C377.221 245.192 376.017 244.694 374.761 244.694Z" fill="#CCCCCC"/>
<path d="M355.229 309.797H254.023C252.767 309.797 251.563 309.298 250.675 308.41C249.787 307.522 249.288 306.318 249.288 305.062C249.288 303.806 249.787 302.602 250.675 301.714C251.563 300.826 252.767 300.327 254.023 300.327H355.229C356.484 300.327 357.689 300.826 358.576 301.714C359.464 302.602 359.963 303.806 359.963 305.062C359.963 306.318 359.464 307.522 358.576 308.41C357.689 309.298 356.484 309.797 355.229 309.797Z" fill="#CCCCCC"/>
<path d="M374.759 325.776H254.023C252.768 325.775 251.566 325.275 250.679 324.387C249.792 323.5 249.294 322.296 249.294 321.042C249.294 319.787 249.792 318.584 250.679 317.696C251.566 316.808 252.768 316.309 254.023 316.307H374.759C375.382 316.306 375.998 316.428 376.573 316.665C377.148 316.903 377.671 317.252 378.111 317.691C378.552 318.131 378.901 318.653 379.14 319.228C379.378 319.803 379.501 320.419 379.501 321.042C379.501 321.664 379.378 322.28 379.14 322.855C378.901 323.43 378.552 323.952 378.111 324.392C377.671 324.832 377.148 325.18 376.573 325.418C375.998 325.655 375.382 325.777 374.759 325.776Z" fill="#CCCCCC"/>
<path d="M211.878 186.56C221.121 186.56 228.613 179.067 228.613 169.825C228.613 160.583 221.121 153.09 211.878 153.09C202.636 153.09 195.144 160.583 195.144 169.825C195.144 179.067 202.636 186.56 211.878 186.56Z" fill="#004AAD"/>
<path d="M210.22 176.209C209.844 176.21 209.477 176.088 209.176 175.862L209.157 175.848L205.224 172.839C205.042 172.7 204.888 172.526 204.773 172.327C204.657 172.128 204.583 171.909 204.552 171.681C204.522 171.453 204.537 171.221 204.596 170.999C204.655 170.777 204.758 170.569 204.898 170.387C205.037 170.204 205.212 170.051 205.411 169.936C205.61 169.822 205.83 169.747 206.058 169.717C206.286 169.687 206.517 169.703 206.739 169.762C206.961 169.822 207.169 169.925 207.351 170.065L209.898 172.019L215.918 164.166C216.058 163.983 216.232 163.831 216.43 163.716C216.629 163.601 216.848 163.527 217.076 163.496C217.303 163.466 217.534 163.481 217.756 163.541C217.978 163.6 218.185 163.702 218.367 163.842L218.368 163.842L218.331 163.894L218.369 163.842C218.736 164.125 218.977 164.541 219.037 165C219.098 165.46 218.974 165.924 218.692 166.292L211.612 175.525C211.448 175.738 211.237 175.91 210.996 176.028C210.755 176.147 210.49 176.208 210.222 176.207L210.22 176.209Z" fill="white"/>
<path d="M230.333 241.437C230.334 243.635 229.902 245.811 229.061 247.842C228.221 249.873 226.989 251.718 225.435 253.273C223.881 254.828 222.036 256.061 220.006 256.902C217.975 257.744 215.799 258.177 213.601 258.177C213.457 258.18 213.313 258.175 213.17 258.16C209.88 258.076 206.687 257.023 203.992 255.133C201.297 253.243 199.219 250.601 198.019 247.536C196.818 244.471 196.548 241.121 197.242 237.903C197.936 234.685 199.564 231.744 201.921 229.447C204.279 227.15 207.261 225.599 210.496 224.988C213.73 224.378 217.073 224.735 220.105 226.015C223.138 227.294 225.726 229.44 227.545 232.183C229.364 234.926 230.334 238.145 230.333 241.437Z" fill="#CCCCCC"/>
<path d="M211.878 329.787C221.121 329.787 228.613 322.294 228.613 313.052C228.613 303.809 221.121 296.317 211.878 296.317C202.636 296.317 195.144 303.809 195.144 313.052C195.144 322.294 202.636 329.787 211.878 329.787Z" fill="#CCCCCC"/>
<path d="M426.042 118.607H391.639C389.128 118.607 386.719 117.61 384.943 115.834C383.167 114.058 382.17 111.649 382.17 109.138V83.7286C382.17 83.6173 382.201 83.5083 382.26 83.4141C382.319 83.3198 382.404 83.2442 382.504 83.1957C382.604 83.1473 382.716 83.1281 382.826 83.1403C382.937 83.1525 383.042 83.1956 383.129 83.2647L426.409 117.551C426.505 117.628 426.576 117.732 426.61 117.85C426.644 117.968 426.641 118.094 426.6 118.21C426.56 118.326 426.485 118.427 426.384 118.498C426.284 118.569 426.164 118.607 426.042 118.607Z" fill="#CCCCCC"/>
<path d="M230.333 241.437C230.334 243.635 229.902 245.811 229.061 247.842C228.221 249.873 226.988 251.719 225.435 253.273C223.881 254.828 222.036 256.061 220.006 256.902C217.975 257.744 215.799 258.177 213.601 258.178C213.457 258.18 213.313 258.175 213.17 258.16C211.008 252.768 210.175 246.935 210.74 241.152C211.305 235.37 213.253 229.809 216.418 224.937C220.311 225.605 223.843 227.627 226.389 230.646C228.935 233.665 230.332 237.487 230.333 241.437Z" fill="#004AAD"/>
<path d="M249.288 233.45C249.29 232.194 249.79 230.99 250.678 230.101C251.567 229.213 252.771 228.713 254.027 228.711H279.246C280.718 231.707 281.765 234.894 282.356 238.18H254.027C252.772 238.18 251.568 237.681 250.679 236.795C249.791 235.908 249.291 234.705 249.288 233.45Z" fill="#004AAD"/>
<path d="M282.942 244.694C282.943 247.892 282.52 251.076 281.684 254.162H254.027C252.771 254.162 251.567 253.664 250.679 252.776C249.791 251.888 249.292 250.684 249.292 249.428C249.292 248.172 249.791 246.968 250.679 246.08C251.567 245.192 252.771 244.694 254.027 244.694H282.942Z" fill="#004AAD"/>
<path d="M345.339 303.09C344.626 304.26 343.476 305.099 342.143 305.422C340.811 305.745 339.405 305.525 338.234 304.811L277.919 268.021C277.339 267.668 276.835 267.203 276.435 266.655C276.035 266.107 275.746 265.485 275.586 264.825C275.427 264.165 275.398 263.48 275.503 262.81C275.608 262.139 275.844 261.496 276.197 260.916C276.551 260.336 277.015 259.832 277.563 259.432C278.112 259.032 278.734 258.744 279.393 258.584C280.053 258.424 280.738 258.396 281.409 258.5C282.08 258.605 282.723 258.841 283.303 259.195L343.618 295.985C344.789 296.699 345.628 297.848 345.95 299.181C346.273 300.513 346.053 301.919 345.339 303.09Z" fill="#3F3D56"/>
<path d="M285.024 266.3C280.765 273.283 274.53 278.846 267.109 282.286C259.688 285.726 251.414 286.887 243.332 285.625C235.251 284.362 227.725 280.731 221.708 275.191C215.69 269.651 211.45 262.451 209.524 254.502C207.598 246.552 208.073 238.21 210.888 230.53C213.703 222.85 218.732 216.178 225.34 211.357C231.947 206.535 239.836 203.781 248.008 203.443C256.181 203.105 264.27 205.198 271.253 209.458C280.607 215.178 287.311 224.375 289.892 235.031C292.474 245.688 290.723 256.933 285.024 266.3ZM223.237 228.612C220.043 233.85 218.473 239.917 218.727 246.046C218.98 252.175 221.046 258.092 224.662 263.047C228.278 268.003 233.282 271.775 239.042 273.886C244.802 275.998 251.058 276.354 257.021 274.909C262.983 273.465 268.383 270.285 272.537 265.772C276.692 261.258 279.416 255.614 280.363 249.553C281.31 243.492 280.438 237.286 277.859 231.72C275.279 226.155 271.106 221.479 265.869 218.284C258.844 214.01 250.41 212.697 242.418 214.633C234.425 216.569 227.528 221.597 223.237 228.612Z" fill="#3F3D56"/>
<path d="M417.529 251.395C429.216 251.395 438.691 241.921 438.691 230.234C438.691 218.546 429.216 209.072 417.529 209.072C405.842 209.072 396.367 218.546 396.367 230.234C396.367 241.921 405.842 251.395 417.529 251.395Z" fill="#A0616A"/>
<path d="M416.161 348.867C415.753 347.595 415.618 346.252 415.766 344.925C415.913 343.597 416.339 342.316 417.016 341.165C417.693 340.014 418.606 339.019 419.694 338.245C420.783 337.471 422.022 336.936 423.332 336.674C423.747 336.593 424.167 336.542 424.589 336.52L446.88 300.743L426.519 281.386C425.741 280.647 425.117 279.76 424.683 278.778C424.25 277.796 424.015 276.738 423.993 275.665C423.97 274.592 424.161 273.525 424.553 272.526C424.946 271.526 425.532 270.615 426.279 269.844C427.025 269.072 427.917 268.457 428.903 268.032C429.889 267.608 430.95 267.383 432.023 267.37C433.096 267.358 434.161 267.558 435.157 267.959C436.153 268.361 437.059 268.956 437.823 269.709L465.936 297.43L465.993 297.499C466.862 298.822 467.282 300.391 467.19 301.971C467.098 303.552 466.498 305.061 465.481 306.274L434.248 343.213C434.341 343.509 434.419 343.81 434.481 344.114C434.742 345.424 434.723 346.774 434.426 348.076C434.129 349.378 433.561 350.603 432.757 351.67C431.954 352.737 430.934 353.622 429.765 354.267C428.596 354.913 427.303 355.304 425.972 355.415C425.703 355.438 425.436 355.45 425.169 355.45C423.166 355.442 421.216 354.801 419.598 353.619C417.981 352.436 416.778 350.773 416.161 348.867Z" fill="#A0616A"/>
<path d="M382.676 524.749L372.113 524.749L367.088 484.006L382.678 484.007L382.676 524.749Z" fill="#A0616A"/>
<path d="M385.37 534.988L351.311 534.987V534.556C351.31 532.815 351.653 531.092 352.32 529.483C352.986 527.875 353.962 526.413 355.193 525.182C356.424 523.951 357.886 522.975 359.494 522.309C361.103 521.643 362.826 521.3 364.567 521.3H364.568L385.37 521.301L385.37 534.988Z" fill="#2F2E41"/>
<path d="M487.666 510.145L478.59 515.548L453.427 483.113L466.822 475.137L487.666 510.145Z" fill="#A0616A"/>
<path d="M495.219 517.564L465.954 534.988L465.734 534.618C464.843 533.123 464.255 531.466 464.005 529.743C463.755 528.02 463.846 526.265 464.274 524.578C464.702 522.89 465.458 521.303 466.499 519.908C467.54 518.513 468.846 517.336 470.342 516.446L470.342 516.445L488.216 505.803L495.219 517.564Z" fill="#2F2E41"/>
<path d="M365.756 506.806C358.68 423.485 354.47 346.081 380.337 314.505L380.537 314.26L424.07 331.674L424.142 331.83C424.288 332.149 438.766 363.995 435.389 385.416L446.127 434.809L481.138 493.432C481.42 493.904 481.598 494.431 481.661 494.977C481.724 495.523 481.67 496.076 481.503 496.6C481.336 497.123 481.059 497.606 480.692 498.014C480.324 498.423 479.874 498.749 479.371 498.97L464.156 505.665C463.297 506.038 462.333 506.09 461.439 505.811C460.546 505.531 459.782 504.939 459.289 504.143L421.204 442.04L399.692 394.406C399.575 394.147 399.376 393.934 399.126 393.8C398.876 393.666 398.589 393.617 398.309 393.662C398.029 393.707 397.771 393.843 397.576 394.049C397.381 394.255 397.259 394.519 397.228 394.801L385.304 506.891C385.204 507.844 384.755 508.726 384.043 509.366C383.331 510.007 382.406 510.36 381.449 510.359H369.621C368.65 510.353 367.716 509.986 367.002 509.329C366.287 508.672 365.843 507.773 365.756 506.806Z" fill="#2F2E41"/>
<path d="M380.484 315.166L380.277 315.066L380.244 314.838C378.618 303.457 380.543 290.811 385.965 277.252C388.638 270.615 393.605 265.16 399.963 261.88C406.321 258.599 413.646 257.712 420.603 259.38C424.61 260.367 428.369 262.176 431.641 264.692C434.913 267.208 437.626 270.376 439.61 273.995C441.568 277.578 442.761 281.528 443.113 285.595C443.465 289.663 442.968 293.759 441.654 297.624C434.818 317.613 425.951 336.316 425.862 336.503L425.676 336.893L380.484 315.166Z" fill="#004AAD"/>
<path d="M332.988 286.817C334.036 285.989 335.247 285.392 336.542 285.065C337.837 284.739 339.186 284.689 340.502 284.92C341.817 285.151 343.069 285.657 344.175 286.406C345.281 287.154 346.216 288.128 346.92 289.263C347.141 289.624 347.336 289.999 347.505 290.387L388.822 298.737L399.823 272.887C400.243 271.899 400.855 271.004 401.623 270.254C402.391 269.504 403.3 268.914 404.297 268.517C405.295 268.12 406.361 267.925 407.434 267.943C408.507 267.961 409.567 268.191 410.55 268.62C411.534 269.049 412.423 269.669 413.166 270.444C413.909 271.219 414.491 272.133 414.879 273.134C415.266 274.135 415.452 275.203 415.424 276.276C415.397 277.349 415.157 278.406 414.719 279.386L398.599 315.427L398.554 315.504C397.619 316.782 396.297 317.724 394.784 318.191C393.271 318.659 391.648 318.625 390.155 318.097L344.618 301.778C344.373 301.969 344.119 302.147 343.855 302.311C342.72 303.015 341.449 303.47 340.125 303.648C338.801 303.826 337.455 303.722 336.174 303.343C334.894 302.964 333.708 302.319 332.694 301.45C331.68 300.581 330.861 299.507 330.291 298.299C330.174 298.056 330.069 297.809 329.976 297.559C329.282 295.68 329.2 293.629 329.741 291.7C330.282 289.771 331.418 288.062 332.988 286.817Z" fill="#A0616A"/>
<path d="M493.977 252.896C491.938 249.284 488.969 245.976 485.043 244.641C479.972 242.917 474.482 244.753 469.269 245.978C465.253 246.923 461.057 247.501 457.009 246.704C452.961 245.907 449.056 243.551 447.214 239.859C444.504 234.428 446.787 227.952 446.622 221.884C446.537 218.582 445.704 215.341 444.185 212.407C442.665 209.473 440.5 206.923 437.852 204.947C435.203 202.972 432.141 201.623 428.896 201.004C425.651 200.384 422.307 200.509 419.117 201.369C414.126 199.929 409.606 199.796 406.518 203.633C402.634 203.633 398.908 205.176 396.162 207.923C393.415 210.67 391.871 214.395 391.871 218.28H405.877C405.213 221.851 405.972 225.54 407.991 228.56C410.464 232.192 414.763 234.819 415.59 239.135C416.393 243.316 413.55 247.284 410.568 250.324C407.587 253.364 404.128 256.376 403.197 260.531C402.626 263.685 403.274 266.938 405.009 269.633C406.741 272.295 408.89 274.662 411.373 276.643C422.561 286.228 435.858 293.03 450.177 296.494C460.261 298.922 471.291 299.551 480.652 295.085C484.397 293.298 487.735 290.761 490.457 287.63C493.18 284.499 495.23 280.841 496.479 276.885C497.729 272.928 498.152 268.757 497.721 264.63C497.29 260.503 496.016 256.509 493.977 252.896Z" fill="#2F2E41"/>
<path d="M497.138 535.885H333.436C333.208 535.885 332.989 535.794 332.827 535.633C332.666 535.471 332.575 535.252 332.575 535.024C332.575 534.795 332.666 534.576 332.827 534.414C332.989 534.253 333.208 534.162 333.436 534.162H497.138C497.367 534.162 497.586 534.253 497.748 534.414C497.909 534.576 498 534.795 498 535.024C498 535.252 497.909 535.471 497.748 535.633C497.586 535.794 497.367 535.885 497.138 535.885Z" fill="#CCCCCC"/>
</g>
<defs>
<clipPath id="clip0_637_768">
<rect width="498" height="535.845" fill="white" transform="translate(0 0.0404053)"/>
</clipPath>
</defs>
</svg>
