<svg width="39" height="39" viewBox="0 0 39 39" fill="none" xmlns="http://www.w3.org/2000/svg">
<rect width="39" height="39" rx="19.5" fill="#EBF1F9"/>
<path d="M20.6333 24.1987C16.9677 24.1987 13.8748 24.7977 13.8748 27.1094C13.8748 29.4221 16.9877 30.0001 20.6333 30.0001C24.2989 30.0001 27.3918 29.4011 27.3918 27.0893C27.3918 24.7767 24.2789 24.1987 20.6333 24.1987Z" fill="#004AAD"/>
<path d="M20.6333 21.9962C23.1155 21.9962 25.1057 19.9945 25.1057 17.4981C25.1057 15.0008 23.1155 13 20.6333 13C18.1512 13 16.161 15.0008 16.161 17.4981C16.161 19.9945 18.1512 21.9962 20.6333 21.9962Z" fill="#004AAD"/>
<path d="M30.3434 18.5455C30.9856 16.0194 29.1029 13.7507 26.7054 13.7507C26.4448 13.7507 26.1955 13.7794 25.9519 13.8282C25.9196 13.8359 25.8834 13.8522 25.8644 13.8809C25.8425 13.9172 25.8587 13.966 25.8825 13.9976C26.6027 15.0138 27.0165 16.251 27.0165 17.5791C27.0165 18.8517 26.6369 20.0381 25.971 21.0227C25.9025 21.1241 25.9634 21.261 26.0842 21.282C26.2516 21.3117 26.4229 21.327 26.5979 21.3318C28.3437 21.3777 29.9106 20.2477 30.3434 18.5455Z" fill="#004AAD"/>
<path d="M31.745 24.6893C31.4253 24.0042 30.6538 23.5344 29.4808 23.3038C28.9271 23.1679 27.4287 22.9765 26.0349 23.0024C26.014 23.0052 26.0026 23.0196 26.0007 23.0292C25.9978 23.0426 26.0035 23.0655 26.0311 23.0799C26.6752 23.4004 29.1649 24.7945 28.8519 27.7349C28.8386 27.8622 28.9404 27.9722 29.0669 27.9531C29.6796 27.865 31.256 27.5244 31.745 26.4633C32.0152 25.9025 32.0152 25.2509 31.745 24.6893Z" fill="#004AAD"/>
<path d="M15.4227 13.8285C15.1801 13.7787 14.9299 13.751 14.6692 13.751C12.2717 13.751 10.389 16.0196 11.0321 18.5457C11.464 20.2479 13.0309 21.378 14.7767 21.332C14.9517 21.3272 15.1239 21.311 15.2904 21.2823C15.4112 21.2612 15.4721 21.1244 15.4036 21.023C14.7377 20.0374 14.3581 18.8519 14.3581 17.5793C14.3581 16.2502 14.7729 15.013 15.4931 13.9978C15.5159 13.9663 15.533 13.9175 15.5102 13.8811C15.4912 13.8514 15.456 13.8361 15.4227 13.8285Z" fill="#004AAD"/>
<path d="M11.4667 23.1072C10.2936 23.3378 9.52301 23.8076 9.20335 24.4927C8.93222 25.0544 8.93222 25.706 9.20335 26.2676C9.69236 27.3278 11.2688 27.6694 11.8814 27.7565C12.008 27.7756 12.1088 27.6665 12.0955 27.5383C11.7825 24.5989 14.2722 23.2048 14.9173 22.8842C14.9439 22.8689 14.9496 22.8469 14.9467 22.8326C14.9448 22.823 14.9344 22.8086 14.9134 22.8067C13.5187 22.7799 12.0213 22.9713 11.4667 23.1072Z" fill="#004AAD"/>
</svg>
