<svg width="659" height="415" viewBox="0 0 659 415" fill="none" xmlns="http://www.w3.org/2000/svg">
<g clip-path="url(#clip0_637_657)">
<path d="M259.886 331.491H2.64889C1.9466 331.491 1.27329 331.211 0.776698 330.715C0.280104 330.218 0.000778804 329.545 0 328.843V78.0807C0.000778804 77.3784 0.280104 76.705 0.776698 76.2084C1.27329 75.7119 1.9466 75.4325 2.64889 75.4318H259.886C260.588 75.4325 261.261 75.7118 261.758 76.2084C262.255 76.705 262.534 77.3784 262.535 78.0807V328.843C262.534 329.545 262.255 330.218 261.758 330.715C261.261 331.211 260.588 331.491 259.886 331.491Z" fill="#F0F0F0"/>
<path d="M231.925 98.3888H30.6094C29.9072 98.3898 29.2341 98.6693 28.7375 99.1658C28.241 99.6623 27.9616 100.335 27.9605 101.038V257.028C27.9616 257.73 28.241 258.403 28.7375 258.9C29.2341 259.396 29.9072 259.676 30.6094 259.677H231.925C232.628 259.676 233.301 259.396 233.797 258.9C234.294 258.403 234.573 257.73 234.574 257.028V101.038C234.573 100.335 234.294 99.6623 233.797 99.1658C233.301 98.6693 232.628 98.3898 231.925 98.3888Z" fill="white"/>
<path d="M220.447 290.286H42.0879C41.6978 290.286 41.3237 290.131 41.0479 289.855C40.772 289.579 40.6168 289.205 40.6163 288.815V280.574C40.6168 280.184 40.772 279.81 41.0479 279.534C41.3237 279.258 41.6978 279.103 42.0879 279.102H220.447C220.837 279.103 221.211 279.258 221.487 279.534C221.763 279.81 221.918 280.184 221.918 280.574V288.815C221.918 289.205 221.763 289.579 221.487 289.855C221.211 290.131 220.837 290.286 220.447 290.286Z" fill="white"/>
<path d="M158.639 310.3H42.0879C41.6978 310.3 41.3237 310.145 41.0479 309.869C40.772 309.593 40.6168 309.219 40.6163 308.829V300.588C40.6168 300.197 40.772 299.823 41.0479 299.548C41.3237 299.272 41.6978 299.116 42.0879 299.116H158.639C159.029 299.116 159.403 299.272 159.679 299.548C159.955 299.823 160.11 300.197 160.111 300.588V308.829C160.11 309.219 159.955 309.593 159.679 309.869C159.403 310.145 159.029 310.3 158.639 310.3Z" fill="white"/>
<path d="M126.294 204.091C140.43 204.091 151.89 192.631 151.89 178.494C151.89 164.358 140.43 152.898 126.294 152.898C112.157 152.898 100.698 164.358 100.698 178.494C100.698 192.631 112.157 204.091 126.294 204.091Z" fill="#FFB8B8"/>
<path d="M163.743 259.677H106.992L108.846 217.954L109.288 217.489L115.657 210.761H135.924L143.434 218.037L144.041 218.625L160.035 233.954L163.743 259.677Z" fill="#004AAD"/>
<path d="M116.751 259.677H73.8158C73.71 250.259 73.6511 244.62 73.6511 244.62L76.135 243.107C76.1381 243.103 76.1423 243.101 76.1468 243.101H76.1528L103.513 226.489L109.258 217.159L109.288 217.489L110.977 237.156C110.977 237.156 113.767 246.174 116.751 259.677Z" fill="#2F2E41"/>
<path d="M188.913 259.677H143.435C144.123 232.211 140.415 217.159 142.322 217.159L143.435 218.036L156.838 228.62L174.503 235.101H174.515L186.694 239.569L188.831 240.352V241.358C188.837 243.772 188.848 250.371 188.913 259.677Z" fill="#2F2E41"/>
<path d="M102.078 186.502C102.078 186.502 104.253 182.683 103.747 169.925C103.242 157.166 122.67 164.382 138.905 163.165C155.139 161.948 151.703 184.466 151.703 184.466C151.703 184.466 152.874 183.127 155.382 172.259C157.889 161.391 152.196 150.561 152.196 150.561C150.519 139.141 141.482 142.801 141.482 142.801C145.834 144.495 144.998 148.118 144.998 148.118C141.314 141.659 132.277 145.319 132.277 145.319C120.225 137.756 108.009 147.716 108.009 147.716C93.449 151.02 101.988 162.6 101.988 162.6C87.3451 170 102.078 186.502 102.078 186.502Z" fill="#2F2E41"/>
<path d="M79.5492 259.677H61.9075C62.0451 257.503 62.049 255.323 61.9193 253.149C60.8656 248.952 75.6877 243.277 76.135 243.107C76.138 243.103 76.1422 243.101 76.1467 243.101H76.1528L78.9782 244.62L79.5492 259.677Z" fill="#2F2E41"/>
<path d="M192.098 259.677H173.567L171.254 236.838L173.85 234.942C173.85 234.942 174.085 234.995 174.503 235.101H174.515C176.593 235.613 183.021 237.308 186.694 239.569C187.511 240.028 188.236 240.634 188.831 241.358C189.195 241.795 189.377 242.356 189.337 242.924C189.243 243.778 190.326 250.064 192.098 259.677Z" fill="#2F2E41"/>
<path d="M655.94 256.8H398.703C398 256.799 397.327 256.52 396.831 256.024C396.334 255.527 396.055 254.854 396.054 254.151V3.38949C396.055 2.6872 396.334 2.01391 396.831 1.51731C397.327 1.02072 398 0.741382 398.703 0.740601H655.94C656.642 0.741368 657.315 1.02069 657.812 1.51729C658.309 2.01388 658.588 2.6872 658.589 3.38949V254.151C658.588 254.854 658.309 255.527 657.812 256.024C657.315 256.52 656.642 256.799 655.94 256.8Z" fill="#F0F0F0"/>
<path d="M627.979 23.6982H426.664C425.961 23.6992 425.288 23.9787 424.792 24.4752C424.295 24.9717 424.016 25.6449 424.015 26.3471V182.337C424.016 183.04 424.295 183.713 424.792 184.209C425.288 184.706 425.961 184.985 426.664 184.986H627.979C628.682 184.985 629.355 184.706 629.851 184.209C630.348 183.713 630.627 183.04 630.628 182.337V26.3471C630.627 25.6449 630.348 24.9717 629.851 24.4752C629.355 23.9787 628.682 23.6992 627.979 23.6982Z" fill="white"/>
<path d="M616.501 215.595H438.142C437.752 215.595 437.378 215.44 437.102 215.164C436.826 214.888 436.671 214.514 436.67 214.124V205.883C436.671 205.493 436.826 205.119 437.102 204.843C437.378 204.567 437.752 204.412 438.142 204.411H616.501C616.891 204.412 617.265 204.567 617.541 204.843C617.817 205.119 617.972 205.493 617.972 205.883V214.124C617.972 214.514 617.817 214.888 617.541 215.164C617.265 215.44 616.891 215.595 616.501 215.595Z" fill="white"/>
<path d="M554.693 235.609H438.142C437.752 235.609 437.378 235.453 437.102 235.178C436.826 234.902 436.671 234.528 436.67 234.138V225.897C436.671 225.506 436.826 225.132 437.102 224.856C437.378 224.581 437.752 224.425 438.142 224.425H554.693C555.083 224.425 555.457 224.581 555.733 224.856C556.009 225.132 556.164 225.506 556.165 225.897V234.138C556.164 234.528 556.009 234.902 555.733 235.178C555.457 235.453 555.083 235.609 554.693 235.609Z" fill="white"/>
<path d="M576.873 184.986C578.009 180.895 578.892 177.369 579.346 174.873C579.486 174.104 579.5 173.317 579.387 172.542C577.692 160.481 547.07 150.286 543.144 149.026L542.196 138.525L503.652 134.375L498.772 147.808L484.939 152.994C484.438 153.179 483.962 153.424 483.521 153.723C482.36 154.507 481.468 155.627 480.964 156.933C480.46 158.239 480.368 159.669 480.701 161.029L486.593 184.986H576.873V184.986Z" fill="#004AAD"/>
<path d="M496.971 184.986H467.062C468.133 178.311 469.093 172.407 469.717 168.652C472.001 154.983 481.961 153.818 483.52 153.724C483.644 153.712 483.721 153.712 483.727 153.712H490.019L496.971 184.986Z" fill="#004AAD"/>
<path d="M576.873 184.986H584.125C583.484 179.094 581.447 175.127 579.387 172.542C578.012 170.726 576.237 169.249 574.201 168.228L573.654 167.992L567.279 184.986H576.873Z" fill="#004AAD"/>
<path d="M521.418 127.728C536.746 127.728 549.171 115.303 549.171 99.9755C549.171 84.6481 536.746 72.2229 521.418 72.2229C506.091 72.2229 493.666 84.6481 493.666 99.9755C493.666 115.303 506.091 127.728 521.418 127.728Z" fill="#A0616A"/>
<path d="M502.791 86.4546C505.664 89.8546 510.525 90.8135 515.01 91.2034C524.118 92.0025 537.362 90.7066 546.264 88.6518C546.903 94.8089 545.168 101.448 548.793 106.514C550.493 100.382 551.482 94.0741 551.74 87.7157C551.849 84.9888 551.806 82.1678 550.698 79.6646C549.591 77.1614 547.173 75.0363 544.391 75.0143C546.458 73.4462 548.88 72.4112 551.443 72.0007L542.631 67.5724L544.894 65.2491L528.94 64.2728L533.561 61.3377C526.604 60.3823 519.566 60.161 512.562 60.6774C509.311 60.9167 505.912 61.3742 503.278 63.2582C500.644 65.1422 499.122 68.8856 500.758 71.6509C498.71 71.9871 496.783 72.8404 495.158 74.13C493.533 75.4196 492.264 77.1027 491.471 79.0199C490.296 81.9971 490.404 85.3039 490.766 88.4765C491.367 93.5504 492.546 98.539 494.28 103.345" fill="#2F2E41"/>
<path d="M462.807 414.689H205.57C204.868 414.688 204.195 414.408 203.698 413.912C203.201 413.415 202.922 412.742 202.921 412.04V161.278C202.922 160.576 203.201 159.902 203.698 159.406C204.195 158.909 204.868 158.63 205.57 158.629H462.807C463.509 158.63 464.183 158.909 464.679 159.406C465.176 159.902 465.455 160.576 465.456 161.278V412.04C465.455 412.742 465.176 413.415 464.679 413.912C464.183 414.408 463.509 414.688 462.807 414.689Z" fill="#E4E4E4"/>
<path d="M434.847 181.586H233.531C232.829 181.587 232.156 181.867 231.659 182.363C231.162 182.86 230.883 183.533 230.882 184.235V340.226C230.883 340.928 231.162 341.601 231.659 342.098C232.156 342.594 232.829 342.874 233.531 342.875H434.847C435.549 342.874 436.222 342.594 436.719 342.098C437.215 341.601 437.495 340.928 437.496 340.226V184.235C437.495 183.533 437.215 182.86 436.719 182.363C436.222 181.867 435.549 181.587 434.847 181.586Z" fill="white"/>
<path d="M423.368 373.484H245.009C244.619 373.483 244.245 373.328 243.969 373.052C243.693 372.776 243.538 372.402 243.538 372.012V363.771C243.538 363.381 243.693 363.007 243.969 362.731C244.245 362.455 244.619 362.3 245.009 362.299H423.368C423.758 362.3 424.132 362.455 424.408 362.731C424.684 363.007 424.839 363.381 424.84 363.771V372.012C424.839 372.402 424.684 372.776 424.408 373.052C424.132 373.328 423.758 373.483 423.368 373.484Z" fill="white"/>
<path d="M361.561 393.497H245.009C244.619 393.497 244.245 393.342 243.969 393.066C243.693 392.79 243.538 392.416 243.538 392.026V383.785C243.538 383.395 243.693 383.021 243.969 382.745C244.245 382.469 244.619 382.314 245.009 382.313H361.561C361.951 382.314 362.325 382.469 362.601 382.745C362.876 383.021 363.032 383.395 363.032 383.785V392.026C363.032 392.416 362.876 392.79 362.601 393.066C362.325 393.342 361.951 393.497 361.561 393.497Z" fill="white"/>
<path d="M353.997 342.875H313.48L316.006 304.978L330.622 308.351L344.837 302.882L345.214 302.741L345.238 302.729C345.243 302.741 345.247 302.752 345.249 302.765C345.473 303.665 349.935 321.53 353.997 342.875Z" fill="#004AAD"/>
<path d="M378.414 311.164L374.628 342.874H340.482L344.837 302.883L344.879 302.494L345.214 302.741L345.249 302.764L353.673 308.91L378.414 311.164Z" fill="#2F2E41"/>
<path d="M319.473 342.875H288.893L288.451 317.91L310.955 310.446L316.006 304.978C316.006 304.978 317.601 321.43 319.473 342.875Z" fill="#2F2E41"/>
<path d="M393.136 342.875H367.794L369.419 320.159L378.413 311.164C378.413 311.164 385.53 326.092 393.136 342.875Z" fill="#2F2E41"/>
<path d="M296.104 342.875H282.735C282.794 335.599 282.83 330.572 282.83 329.153C282.763 326.96 283.241 324.785 284.222 322.823C285.204 320.86 286.657 319.172 288.451 317.91L295.203 320.159L296.104 342.875Z" fill="#2F2E41"/>
<path d="M294.018 265.968C294.039 259.804 295.659 253.751 298.721 248.4C301.782 243.05 306.18 238.586 311.485 235.446C322.753 228.793 336.349 228.913 348.785 235.775C357.646 240.664 364.854 252.965 364.854 263.197V293.053H294.018V265.968Z" fill="#2F2E41"/>
<path d="M340.306 289.181C352.705 282.404 357.261 266.858 350.483 254.459C343.706 242.06 328.16 237.504 315.761 244.281C303.362 251.059 298.806 266.605 305.583 279.004C312.361 291.403 327.907 295.959 340.306 289.181Z" fill="#FFB8B8"/>
<path d="M301.352 266.973C301.158 266.75 300.705 266.225 303.86 241.941L303.961 241.545H304.246C320.243 233.675 336.473 233.477 352.488 240.954C352.982 241.188 353.405 241.546 353.719 241.993C354.032 242.44 354.223 242.96 354.275 243.504C356.144 266.319 355.692 266.816 355.499 267.029C355.206 267.351 354.849 267.608 354.451 267.784C354.052 267.96 353.622 268.051 353.186 268.052H346.09L345.941 267.784C344.723 265.52 343.386 263.321 341.937 261.198C341.27 263.311 340.724 265.461 340.302 267.637L340.215 268.052H303.714C303.266 268.052 302.823 267.956 302.416 267.77C302.008 267.584 301.646 267.312 301.352 266.973Z" fill="#2F2E41"/>
</g>
<defs>
<clipPath id="clip0_637_657">
<rect width="658.589" height="413.948" fill="white" transform="translate(0 0.740601)"/>
</clipPath>
</defs>
</svg>
