<svg width="588" height="370" viewBox="0 0 588 370" fill="none" xmlns="http://www.w3.org/2000/svg">
<g clip-path="url(#clip0_1101_1045)">
<path d="M232.031 295.3H2.36498C1.73796 295.3 1.13682 295.05 0.69345 294.607C0.250082 294.163 0.00069533 293.562 0 292.935V69.0505C0.00069533 68.4235 0.250082 67.8224 0.69345 67.379C1.13682 66.9356 1.73796 66.6862 2.36498 66.6855H232.031C232.658 66.6862 233.259 66.9356 233.702 67.379C234.146 67.8224 234.395 68.4235 234.396 69.0505V292.935C234.395 293.562 234.146 294.163 233.702 294.607C233.259 295.05 232.658 295.3 232.031 295.3Z" fill="#E5EFFD"/>
<path d="M207.067 87.1816H27.3286C26.7017 87.1826 26.1007 87.4321 25.6574 87.8754C25.214 88.3187 24.9646 88.9197 24.9636 89.5466V228.818C24.9646 229.445 25.2141 230.046 25.6574 230.489C26.1007 230.932 26.7017 231.182 27.3286 231.183H207.067C207.694 231.182 208.295 230.932 208.738 230.489C209.182 230.046 209.431 229.445 209.432 228.818V89.5466C209.431 88.9197 209.182 88.3187 208.738 87.8754C208.295 87.4321 207.694 87.1826 207.067 87.1816Z" fill="white"/>
<path d="M196.819 258.512H37.5769C37.2286 258.511 36.8947 258.373 36.6483 258.127C36.402 257.88 36.2635 257.546 36.2631 257.198V249.84C36.2635 249.492 36.402 249.158 36.6483 248.912C36.8947 248.665 37.2286 248.527 37.5769 248.526H196.819C197.167 248.527 197.501 248.665 197.748 248.912C197.994 249.158 198.132 249.492 198.133 249.84V257.198C198.132 257.546 197.994 257.88 197.748 258.127C197.501 258.373 197.167 258.511 196.819 258.512Z" fill="white"/>
<path d="M141.636 276.381H37.5769C37.2286 276.381 36.8947 276.242 36.6483 275.996C36.402 275.749 36.2635 275.415 36.2631 275.067V267.709C36.2635 267.361 36.402 267.027 36.6483 266.781C36.8947 266.535 37.2286 266.396 37.5769 266.396H141.636C141.984 266.396 142.318 266.535 142.565 266.781C142.811 267.027 142.95 267.361 142.95 267.709V275.067C142.95 275.415 142.811 275.749 142.565 275.996C142.318 276.242 141.984 276.381 141.636 276.381Z" fill="white"/>
<path d="M112.758 181.555C125.379 181.555 135.61 171.323 135.61 158.702C135.61 146.08 125.379 135.849 112.758 135.849C100.136 135.849 89.9045 146.08 89.9045 158.702C89.9045 171.323 100.136 181.555 112.758 181.555Z" fill="#FFB8B8"/>
<path d="M146.193 231.183H95.5244L97.1798 193.932L97.5742 193.516L103.26 187.51H121.355L128.061 194.006L128.603 194.531L142.882 208.217L146.193 231.183Z" fill="#0064E9"/>
<path d="M104.238 231.183H65.9041C65.8097 222.774 65.7571 217.74 65.7571 217.74L67.9748 216.389C67.9775 216.386 67.9813 216.384 67.9853 216.384H67.9907L92.4183 201.553L97.5475 193.223L97.574 193.517L99.0824 211.076C99.0824 211.076 101.573 219.127 104.238 231.183Z" fill="#2F2E41"/>
<path d="M168.665 231.183H128.061C128.676 206.661 125.365 193.223 127.068 193.223L128.061 194.006L140.028 203.455L155.8 209.241H155.81L166.684 213.23L168.592 213.929V214.828C168.597 216.983 168.607 222.874 168.665 231.183Z" fill="#2F2E41"/>
<path d="M91.1374 165.852C91.1374 165.852 93.079 162.442 92.6276 151.051C92.1762 139.66 109.522 146.102 124.017 145.016C138.511 143.929 135.443 164.034 135.443 164.034C135.443 164.034 136.489 162.838 138.728 153.135C140.966 143.432 135.883 133.763 135.883 133.763C134.386 123.567 126.318 126.835 126.318 126.835C130.203 128.347 129.457 131.582 129.457 131.582C126.168 125.815 118.1 129.083 118.1 129.083C107.339 122.33 96.4327 131.223 96.4327 131.223C83.433 134.173 91.0568 144.511 91.0568 144.511C77.9834 151.118 91.1374 165.852 91.1374 165.852Z" fill="#2F2E41"/>
<path d="M71.0231 231.183H55.2722C55.395 229.243 55.3986 227.296 55.2827 225.355C54.342 221.608 67.5754 216.541 67.9747 216.389C67.9775 216.386 67.9812 216.384 67.9853 216.384H67.9906L70.5132 217.74L71.0231 231.183Z" fill="#2F2E41"/>
<path d="M171.508 231.183H154.964L152.899 210.792L155.216 209.1C155.216 209.1 155.427 209.147 155.8 209.242H155.81C157.665 209.699 163.404 211.212 166.684 213.23C167.413 213.64 168.06 214.182 168.592 214.828C168.917 215.218 169.079 215.719 169.043 216.226C168.959 216.988 169.926 222.601 171.508 231.183Z" fill="#2F2E41"/>
<path d="M585.635 228.615H355.969C355.342 228.614 354.741 228.365 354.298 227.921C353.854 227.478 353.605 226.877 353.604 226.25V2.36498C353.605 1.73796 353.854 1.13683 354.298 0.693462C354.741 0.250092 355.342 0.000697292 355.969 0H585.635C586.262 0.000685563 586.863 0.250067 587.307 0.693439C587.75 1.13681 587.999 1.73796 588 2.36498V226.25C587.999 226.877 587.75 227.478 587.307 227.921C586.863 228.365 586.262 228.614 585.635 228.615Z" fill="#E5EFFD"/>
<path d="M560.671 20.4971H380.933C380.306 20.498 379.705 20.7475 379.262 21.1908C378.818 21.6341 378.569 22.2351 378.568 22.862V162.133C378.569 162.76 378.818 163.361 379.262 163.804C379.705 164.248 380.306 164.497 380.933 164.498H560.671C561.298 164.497 561.899 164.248 562.343 163.804C562.786 163.361 563.035 162.76 563.036 162.133V22.862C563.035 22.2351 562.786 21.6341 562.343 21.1908C561.899 20.7475 561.298 20.498 560.671 20.4971Z" fill="white"/>
<path d="M550.423 191.826H391.181C390.833 191.826 390.499 191.687 390.253 191.441C390.006 191.195 389.868 190.861 389.867 190.512V183.155C389.868 182.806 390.006 182.472 390.253 182.226C390.499 181.98 390.833 181.841 391.181 181.841H550.423C550.771 181.841 551.105 181.98 551.352 182.226C551.598 182.472 551.737 182.806 551.737 183.155V190.512C551.737 190.861 551.598 191.195 551.352 191.441C551.105 191.687 550.771 191.826 550.423 191.826Z" fill="white"/>
<path d="M495.24 209.694H391.181C390.833 209.694 390.499 209.555 390.253 209.309C390.006 209.063 389.868 208.729 389.867 208.381V201.023C389.868 200.675 390.006 200.341 390.253 200.094C390.499 199.848 390.833 199.709 391.181 199.709H495.24C495.589 199.709 495.923 199.848 496.169 200.094C496.415 200.341 496.554 200.675 496.554 201.023V208.381C496.554 208.729 496.415 209.063 496.169 209.309C495.923 209.555 495.589 209.694 495.24 209.694Z" fill="white"/>
<path d="M515.043 164.498C516.057 160.846 516.846 157.698 517.25 155.469C517.375 154.782 517.388 154.079 517.287 153.388C515.774 142.62 488.434 133.517 484.929 132.393L484.083 123.017L449.67 119.312L445.313 131.305L432.962 135.935C432.515 136.1 432.09 136.319 431.696 136.586C430.66 137.286 429.863 138.286 429.413 139.452C428.963 140.618 428.881 141.894 429.178 143.109L434.439 164.498H515.043V164.498Z" fill="#0064E9"/>
<path d="M443.705 164.498H417.001C417.958 158.538 418.815 153.267 419.372 149.914C421.411 137.71 430.303 136.67 431.696 136.586C431.806 136.575 431.875 136.575 431.88 136.575H437.498L443.705 164.498Z" fill="#0064E9"/>
<path d="M515.043 164.498H521.518C520.945 159.237 519.127 155.695 517.287 153.388C516.059 151.766 514.475 150.448 512.657 149.535L512.168 149.325L506.477 164.498H515.043Z" fill="#0064E9"/>
<path d="M465.532 113.376C479.216 113.376 490.31 102.283 490.31 88.5983C490.31 74.9138 479.216 63.8203 465.532 63.8203C451.847 63.8203 440.754 74.9138 440.754 88.5983C440.754 102.283 451.847 113.376 465.532 113.376Z" fill="#A0616A"/>
<path d="M448.901 76.527C451.466 79.5626 455.806 80.4188 459.81 80.7669C467.943 81.4804 479.767 80.3234 487.714 78.4888C488.285 83.986 486.736 89.9136 489.973 94.4364C491.491 88.9614 492.373 83.3299 492.603 77.653C492.701 75.2184 492.663 72.6997 491.674 70.4648C490.685 68.2299 488.526 66.3326 486.042 66.313C487.888 64.9129 490.05 63.9889 492.338 63.6223L484.471 59.6687L486.491 57.5944L472.248 56.7227L476.373 54.1022C470.162 53.2492 463.878 53.0516 457.625 53.5127C454.722 53.7263 451.688 54.1348 449.336 55.8169C446.985 57.499 445.625 60.8412 447.086 63.3101C445.258 63.6103 443.537 64.3721 442.086 65.5234C440.635 66.6748 439.502 68.1775 438.794 69.8892C437.746 72.5473 437.842 75.4997 438.165 78.3323C438.701 82.8624 439.754 87.3162 441.302 91.6072" fill="#2F2E41"/>
<path d="M413.203 369.581H183.537C182.91 369.58 182.309 369.331 181.865 368.887C181.422 368.444 181.172 367.843 181.172 367.216V143.331C181.172 142.704 181.422 142.103 181.865 141.659C182.309 141.216 182.91 140.967 183.537 140.966H413.203C413.83 140.967 414.431 141.216 414.874 141.659C415.318 142.103 415.567 142.704 415.568 143.331V367.216C415.567 367.843 415.318 368.444 414.874 368.887C414.431 369.331 413.83 369.58 413.203 369.581Z" fill="#E5EFFD"/>
<path d="M388.239 161.463H208.501C207.874 161.464 207.273 161.713 206.829 162.157C206.386 162.6 206.137 163.201 206.136 163.828V303.099C206.137 303.726 206.386 304.327 206.829 304.77C207.273 305.214 207.874 305.463 208.501 305.464H388.239C388.866 305.463 389.467 305.214 389.911 304.77C390.354 304.327 390.603 303.726 390.604 303.099V163.828C390.603 163.201 390.354 162.6 389.911 162.157C389.467 161.713 388.866 161.464 388.239 161.463Z" fill="white"/>
<path d="M377.991 332.792H218.749C218.4 332.792 218.066 332.653 217.82 332.407C217.574 332.161 217.435 331.827 217.435 331.478V324.121C217.435 323.772 217.574 323.438 217.82 323.192C218.066 322.946 218.4 322.807 218.749 322.807H377.991C378.339 322.807 378.673 322.946 378.919 323.192C379.166 323.438 379.304 323.772 379.305 324.121V331.478C379.304 331.827 379.166 332.161 378.919 332.407C378.673 332.653 378.339 332.792 377.991 332.792Z" fill="white"/>
<path d="M322.808 350.66H218.749C218.4 350.66 218.066 350.521 217.82 350.275C217.574 350.029 217.435 349.695 217.435 349.346V341.989C217.435 341.64 217.574 341.306 217.82 341.06C218.066 340.814 218.4 340.675 218.749 340.675H322.808C323.156 340.675 323.49 340.814 323.736 341.06C323.983 341.306 324.121 341.64 324.122 341.989V349.346C324.121 349.695 323.983 350.029 323.736 350.275C323.49 350.521 323.156 350.66 322.808 350.66Z" fill="white"/>
<path d="M316.055 305.464H279.881L282.136 271.629L295.185 274.64L307.877 269.758L308.214 269.632L308.235 269.621C308.239 269.631 308.243 269.642 308.245 269.653C308.445 270.457 312.428 286.407 316.055 305.464Z" fill="#FFDC60"/>
<path d="M337.855 277.152L334.475 305.463H303.988L307.877 269.758L307.914 269.411L308.214 269.632L308.245 269.652L315.765 275.14L337.855 277.152Z" fill="#2F2E41"/>
<path d="M285.231 305.464H257.929L257.535 283.175L277.626 276.511L282.136 271.629C282.136 271.629 283.56 286.318 285.231 305.464Z" fill="#2F2E41"/>
<path d="M350.999 305.464H328.374L329.824 285.183L337.854 277.152C337.854 277.152 344.208 290.48 350.999 305.464Z" fill="#2F2E41"/>
<path d="M264.367 305.463H252.431C252.484 298.968 252.516 294.479 252.516 293.213C252.456 291.255 252.883 289.313 253.759 287.561C254.635 285.809 255.932 284.302 257.535 283.175L263.563 285.182L264.367 305.463Z" fill="#2F2E41"/>
<path d="M262.505 236.8C262.523 231.296 263.97 225.892 266.703 221.115C269.437 216.338 273.363 212.353 278.099 209.549C288.16 203.609 300.299 203.717 311.402 209.843C319.313 214.208 325.749 225.191 325.749 234.326V260.981H262.505V236.8Z" fill="#2F2E41"/>
<path d="M303.831 257.525C314.901 251.474 318.969 237.594 312.918 226.524C306.867 215.455 292.987 211.386 281.917 217.438C270.847 223.489 266.779 237.368 272.83 248.438C278.882 259.508 292.761 263.577 303.831 257.525Z" fill="#FFB8B8"/>
<path d="M269.053 237.697C268.88 237.498 268.475 237.029 271.292 215.348L271.382 214.994H271.636C285.919 207.968 300.409 207.791 314.708 214.466C315.148 214.675 315.527 214.995 315.806 215.394C316.086 215.793 316.257 216.258 316.303 216.743C317.972 237.113 317.569 237.557 317.396 237.747C317.134 238.034 316.816 238.264 316.46 238.421C316.104 238.578 315.72 238.66 315.331 238.66H308.996L308.863 238.421C307.775 236.399 306.582 234.437 305.288 232.541C304.692 234.428 304.205 236.347 303.828 238.29L303.751 238.66H271.162C270.762 238.66 270.366 238.574 270.003 238.408C269.639 238.242 269.315 238 269.053 237.697Z" fill="#2F2E41"/>
</g>
<defs>
<clipPath id="clip0_1101_1045">
<rect width="588" height="369.58" fill="white"/>
</clipPath>
</defs>
</svg>
