<svg width="166" height="166" viewBox="0 0 166 166" fill="none" xmlns="http://www.w3.org/2000/svg">
<g filter="url(#filter0_d_1221_887)">
<rect x="38" y="30" width="90" height="90" rx="6" fill="#0064E9"/>
</g>
<path d="M67.0501 100C65.1802 100 63.387 99.2446 62.0647 97.9002C60.7428 96.5554 60 94.7316 60 92.8299V83.2699C60 80.7084 61.3435 78.3413 63.5251 77.0605C65.7061 75.7797 68.3936 75.7797 70.5752 77.0605C72.7563 78.3413 74.1002 80.7084 74.1002 83.2699V92.8299C74.1002 94.7316 73.3574 96.5554 72.0351 97.9002C70.7128 99.2446 68.9196 100 67.0501 100ZM67.0501 80.8794C66.4265 80.8794 65.8289 81.1315 65.3883 81.5796C64.9477 82.0277 64.6998 82.6359 64.6998 83.2697V92.8297C64.6998 93.6835 65.1479 94.4726 65.875 94.8995C66.602 95.3264 67.4978 95.3264 68.2249 94.8995C68.9519 94.4726 69.4 93.6836 69.4 92.8297V83.2697C69.4 82.6359 69.1526 82.0277 68.7115 81.5796C68.2709 81.1315 67.6732 80.8794 67.0501 80.8794ZM83.5 100C81.6301 100 79.8369 99.2446 78.515 97.9002C77.1927 96.5554 76.4499 94.7316 76.4499 92.8299V78.4897C76.4499 75.9282 77.7938 73.5611 79.9749 72.2803C82.156 70.9995 84.844 70.9995 87.025 72.2803C89.2062 73.5611 90.5501 75.9282 90.5501 78.4897V92.8299C90.5501 94.7316 89.8073 96.5554 88.485 97.9002C87.1631 99.2446 85.3699 100 83.5 100ZM83.5 76.1C82.8768 76.1 82.2788 76.3517 81.8382 76.8002C81.3976 77.2484 81.1501 77.8562 81.1501 78.4899V92.8301C81.1501 93.6839 81.5978 94.473 82.3248 94.8999C83.0519 95.3268 83.9481 95.3268 84.6751 94.8999C85.4022 94.473 85.8499 93.684 85.8499 92.8301V78.4899C85.8499 77.8561 85.6024 77.2484 85.1618 76.8002C84.7212 76.3517 84.1232 76.1 83.5 76.1ZM99.9499 100C98.0804 100 96.2872 99.2446 94.9649 97.9002C93.6426 96.5554 92.8998 94.7316 92.8998 92.8299V71.3196C92.8998 68.7581 94.2437 66.391 96.4248 65.1102C98.6063 63.8294 101.294 63.8294 103.475 65.1102C105.656 66.391 107 68.7581 107 71.3196V92.8299C107 94.7316 106.257 96.5554 104.935 97.9002C103.613 99.2446 101.82 100 99.9499 100ZM99.9499 68.9299C99.3267 68.9299 98.7291 69.1816 98.2885 69.6301C97.8475 70.0783 97.6 70.6861 97.6 71.3198V92.8301C97.6 93.6839 98.0481 94.473 98.7752 94.8999C99.5022 95.3268 100.398 95.3268 101.125 94.8999C101.852 94.473 102.3 93.684 102.3 92.8301V71.3198C102.3 70.686 102.052 70.0783 101.612 69.6301C101.171 69.1816 100.573 68.9299 99.9499 68.9299ZM65.9926 73.3036L78.4944 64.8431L81.8314 68.2369C82.2284 68.6418 82.7548 68.8883 83.3154 68.9323C83.876 68.9763 84.4331 68.8143 84.8864 68.4758L102.512 55.331C103.192 54.8272 103.556 53.9926 103.467 53.1415C103.378 52.2909 102.85 51.5526 102.08 51.2058C101.311 50.8589 100.419 50.9553 99.7387 51.4591L83.735 63.4096L80.4684 60.0634C80.0832 59.6757 79.5777 59.4352 79.0379 59.3828C78.4982 59.3308 77.9576 59.4696 77.5072 59.7765L63.407 69.3365C62.8475 69.719 62.4765 70.3272 62.388 71.0066C62.2995 71.686 62.5021 72.3714 62.9443 72.8888C63.3865 73.4057 64.0254 73.705 64.6994 73.7106C65.1617 73.7158 65.6137 73.5738 65.9922 73.3041L65.9926 73.3036Z" fill="white"/>
<defs>
<filter id="filter0_d_1221_887" x="0" y="0" width="166" height="166" filterUnits="userSpaceOnUse" color-interpolation-filters="sRGB">
<feFlood flood-opacity="0" result="BackgroundImageFix"/>
<feColorMatrix in="SourceAlpha" type="matrix" values="0 0 0 0 0 0 0 0 0 0 0 0 0 0 0 0 0 0 127 0" result="hardAlpha"/>
<feMorphology radius="2" operator="erode" in="SourceAlpha" result="effect1_dropShadow_1221_887"/>
<feOffset dy="8"/>
<feGaussianBlur stdDeviation="20"/>
<feColorMatrix type="matrix" values="0 0 0 0 0.0235294 0 0 0 0 0.0470588 0 0 0 0 0.231373 0 0 0 0.08 0"/>
<feBlend mode="normal" in2="BackgroundImageFix" result="effect1_dropShadow_1221_887"/>
<feBlend mode="normal" in="SourceGraphic" in2="effect1_dropShadow_1221_887" result="shape"/>
</filter>
</defs>
</svg>
