<svg width="680" height="277" viewBox="0 0 680 277" fill="none" xmlns="http://www.w3.org/2000/svg">
<g clip-path="url(#clip0_637_906)">
<path d="M65.5223 239.355L64.4512 238.106C73.5138 230.339 84.7927 220.673 89.0144 207.898C93.176 195.304 90.0454 180.1 80.8444 168.219C73.0141 158.107 60.923 150.144 45.8785 145.191C42.911 144.214 39.83 143.346 36.8503 142.507C29.6481 140.478 22.2005 138.38 15.605 134.546C6.52096 129.265 -1.73013 118.893 0.314504 107.623C1.00861 104.018 2.69984 100.678 5.19618 97.9855C7.69251 95.2924 10.8939 93.3533 14.4369 92.3882L14.8748 93.9754C11.6289 94.859 8.69567 96.6348 6.40796 99.1012C4.12026 101.568 2.5697 104.626 1.93225 107.929C0.0322772 118.401 7.84548 128.131 16.4325 133.123C22.8477 136.852 30.1931 138.921 37.2966 140.922C40.2931 141.766 43.3919 142.639 46.3935 143.628C61.751 148.684 74.1141 156.838 82.1461 167.21C91.6779 179.519 94.9088 195.307 90.5776 208.414C86.212 221.625 74.7403 231.456 65.5223 239.355Z" fill="#F1F1F1"/>
<path d="M26.4685 98.666C34.2451 96.9858 39.8877 92.5617 39.0716 88.7845C38.2555 85.0073 31.2898 83.3074 23.5132 84.9875C15.7366 86.6677 10.094 91.0918 10.9101 94.869C11.7262 98.6462 18.6919 100.346 26.4685 98.666Z" fill="#F1F1F1"/>
<path d="M47.4683 141.291C55.2449 139.611 60.8875 135.186 60.0714 131.409C59.2553 127.632 52.2896 125.932 44.513 127.612C36.7364 129.292 31.0938 133.717 31.9099 137.494C32.726 141.271 39.6917 142.971 47.4683 141.291Z" fill="#F1F1F1"/>
<path d="M23.2852 154.095C31.0618 152.415 36.7044 147.991 35.8883 144.214C35.0722 140.437 28.1065 138.737 20.3299 140.417C12.5533 142.097 6.91065 146.521 7.72674 150.298C8.54283 154.075 15.5086 155.775 23.2852 154.095Z" fill="#F1F1F1"/>
<path d="M225.737 147.312H224.091V152.251H225.737V147.312Z" fill="#E5E5E5"/>
<path d="M225.737 257.486H224.091V246.963H225.737V257.486ZM225.737 236.439H224.091V225.916H225.737V236.439ZM225.737 215.392H224.091V204.869H225.737V215.392ZM225.737 194.345H224.091V183.821H225.737V194.345ZM225.737 173.298H224.091V162.774H225.737V173.298Z" fill="#E5E5E5"/>
<path d="M225.737 268.01H224.091V272.949H225.737V268.01Z" fill="#E5E5E5"/>
<path d="M406.014 147.312H404.368V152.251H406.014V147.312Z" fill="#E5E5E5"/>
<path d="M406.014 257.486H404.368V246.963H406.014V257.486ZM406.014 236.439H404.368V225.916H406.014V236.439ZM406.014 215.392H404.368V204.869H406.014V215.392ZM406.014 194.345H404.368V183.821H406.014V194.345ZM406.014 173.298H404.368V162.774H406.014V173.298Z" fill="#E5E5E5"/>
<path d="M406.014 268.01H404.368V272.949H406.014V268.01Z" fill="#E5E5E5"/>
<path d="M496.951 50.6904H495.304V55.6295H496.951V50.6904Z" fill="#E5E5E5"/>
<path d="M496.951 257.897H495.304V247.783H496.951V257.897ZM496.951 237.67H495.304V227.556H496.951V237.67ZM496.951 217.443H495.304V207.33H496.951V217.443ZM496.951 197.217H495.304V187.103H496.951V197.217ZM496.951 176.99H495.304V166.876H496.951V176.99ZM496.951 156.763H495.304V146.65H496.951V156.763ZM496.951 136.536H495.304V126.423H496.951V136.536ZM496.951 116.31H495.304V106.196H496.951V116.31ZM496.951 96.0826H495.304V85.9693H496.951V96.0826ZM496.951 75.856H495.304V65.7427H496.951V75.856Z" fill="#E5E5E5"/>
<path d="M496.951 268.01H495.304V272.949H496.951V268.01Z" fill="#E5E5E5"/>
<path d="M586.981 11.1777H585.334V16.1168H586.981V11.1777Z" fill="#E5E5E5"/>
<path d="M586.981 257.935H585.334V247.859H586.981V257.935ZM586.981 237.783H585.334V227.707H586.981V237.783ZM586.981 217.632H585.334V207.556H586.981V217.632ZM586.981 197.48H585.334V187.404H586.981V197.48ZM586.981 177.329H585.334V167.253H586.981V177.329ZM586.981 157.177H585.334V147.101H586.981V157.177ZM586.981 137.026H585.334V126.95H586.981V137.026ZM586.981 116.874H585.334V106.798H586.981V116.874ZM586.981 96.7228H585.334V86.647H586.981V96.7228ZM586.981 76.5713H585.334V66.4955H586.981V76.5713ZM586.981 56.4198H585.334V46.3441H586.981V56.4198ZM586.981 36.2684H585.334V26.1926H586.981V36.2684Z" fill="#E5E5E5"/>
<path d="M586.981 268.01H585.334V272.949H586.981V268.01Z" fill="#E5E5E5"/>
<path d="M316.287 81.1482H314.641V86.0873H316.287V81.1482Z" fill="#E5E5E5"/>
<path d="M316.287 258.436H314.641V248.861H316.287V258.436ZM316.287 239.286H314.641V229.711H316.287V239.286ZM316.287 220.136H314.641V210.561H316.287V220.136ZM316.287 200.986H314.641V191.411H316.287V200.986ZM316.287 181.836H314.641V172.262H316.287V181.836ZM316.287 162.687H314.641V153.112H316.287V162.687ZM316.287 143.537H314.641V133.962H316.287V143.537ZM316.287 124.387H314.641V114.812H316.287V124.387ZM316.287 105.237H314.641V95.6624H316.287V105.237Z" fill="#E5E5E5"/>
<path d="M316.287 268.01H314.641V272.949H316.287V268.01Z" fill="#E5E5E5"/>
<path d="M678.294 275.243H133.249C132.796 275.243 132.363 275.063 132.043 274.743C131.723 274.423 131.543 273.989 131.543 273.537V12.2967C131.544 11.845 131.724 11.4121 132.044 11.093C132.364 10.7739 132.797 10.5947 133.249 10.5947C133.701 10.5947 134.134 10.7739 134.454 11.093C134.773 11.4121 134.954 11.845 134.955 12.2967V271.831H678.294C678.519 271.831 678.741 271.875 678.948 271.96C679.156 272.046 679.344 272.171 679.503 272.329C679.662 272.488 679.788 272.676 679.874 272.883C679.959 273.091 680.004 273.313 680.004 273.537C680.004 273.761 679.959 273.983 679.874 274.191C679.788 274.398 679.662 274.586 679.503 274.744C679.344 274.903 679.156 275.028 678.948 275.114C678.741 275.199 678.519 275.243 678.294 275.243Z" fill="#3F3D56"/>
<path d="M405.939 149.605L315.319 81.7291L225.937 148.677L223.891 145.946L315.319 77.4659L405.507 145.019L495.13 46.9415L495.49 46.7958L585.894 10.3708L587.169 13.536L497.125 49.8152L405.939 149.605Z" fill="#3F3D56"/>
<path d="M224.914 157.546C230.567 157.546 235.149 152.964 235.149 147.312C235.149 141.66 230.567 137.077 224.914 137.077C219.262 137.077 214.68 141.66 214.68 147.312C214.68 152.964 219.262 157.546 224.914 157.546Z" fill="#004AAD"/>
<path d="M315.319 91.0224C320.971 91.0224 325.553 86.4403 325.553 80.7879C325.553 75.1356 320.971 70.5535 315.319 70.5535C309.666 70.5535 305.084 75.1356 305.084 80.7879C305.084 86.4403 309.666 91.0224 315.319 91.0224Z" fill="#004AAD"/>
<path d="M405.723 157.546C411.375 157.546 415.958 152.964 415.958 147.312C415.958 141.66 411.375 137.077 405.723 137.077C400.071 137.077 395.489 141.66 395.489 147.312C395.489 152.964 400.071 157.546 405.723 157.546Z" fill="#E5E5E5"/>
<path d="M403.254 193.766C408.906 193.766 413.488 189.184 413.488 183.532C413.488 177.879 408.906 173.297 403.254 173.297C397.601 173.297 393.019 177.879 393.019 183.532C393.019 189.184 397.601 193.766 403.254 193.766Z" fill="#004AAD"/>
<path d="M496.128 58.6132C501.78 58.6132 506.362 54.0311 506.362 48.3788C506.362 42.7264 501.78 38.1443 496.128 38.1443C490.475 38.1443 485.893 42.7264 485.893 48.3788C485.893 54.0311 490.475 58.6132 496.128 58.6132Z" fill="#004AAD"/>
<path d="M586.532 21.0868C592.184 21.0868 596.766 16.5047 596.766 10.8524C596.766 5.20005 592.184 0.61792 586.532 0.61792C580.88 0.61792 576.297 5.20005 576.297 10.8524C576.297 16.5047 580.88 21.0868 586.532 21.0868Z" fill="#004AAD"/>
<path d="M130.411 200.897C133.906 191.752 134.412 183.45 131.541 182.352C128.671 181.255 123.51 187.779 120.015 196.923C116.519 206.068 116.013 214.371 118.884 215.468C121.755 216.565 126.915 210.042 130.411 200.897Z" fill="#2F2E41"/>
<path d="M92.4442 261.134C112.024 261.134 127.896 245.261 127.896 225.682C127.896 206.102 112.024 190.229 92.4442 190.229C72.8645 190.229 56.992 206.102 56.992 225.682C56.992 245.261 72.8645 261.134 92.4442 261.134Z" fill="#2F2E41"/>
<path d="M87.059 253.505H76.2887V272.802H87.059V253.505Z" fill="#2F2E41"/>
<path d="M108.6 253.505H97.8293V272.802H108.6V253.505Z" fill="#2F2E41"/>
<path d="M85.264 276.392C90.2209 276.392 94.2393 274.885 94.2393 273.026C94.2393 271.167 90.2209 269.66 85.264 269.66C80.3071 269.66 76.2888 271.167 76.2888 273.026C76.2888 274.885 80.3071 276.392 85.264 276.392Z" fill="#2F2E41"/>
<path d="M106.805 275.943C111.762 275.943 115.78 274.436 115.78 272.577C115.78 270.719 111.762 269.212 106.805 269.212C101.848 269.212 97.8293 270.719 97.8293 272.577C97.8293 274.436 101.848 275.943 106.805 275.943Z" fill="#2F2E41"/>
<path d="M93.3417 228.823C100.034 228.823 105.458 223.398 105.458 216.706C105.458 210.015 100.034 204.59 93.3417 204.59C86.6499 204.59 81.2252 210.015 81.2252 216.706C81.2252 223.398 86.6499 228.823 93.3417 228.823Z" fill="white"/>
<path d="M93.3417 220.745C95.5723 220.745 97.3806 218.937 97.3806 216.707C97.3806 214.476 95.5723 212.668 93.3417 212.668C91.1111 212.668 89.3028 214.476 89.3028 216.707C89.3028 218.937 91.1111 220.745 93.3417 220.745Z" fill="#3F3D56"/>
<path d="M58.0544 192.712C55.1918 179.892 64.3424 166.938 78.4928 163.778C92.6433 160.619 106.435 168.45 109.298 181.27C112.16 194.09 102.782 198.818 88.6318 201.978C74.4814 205.138 60.917 205.532 58.0544 192.712Z" fill="#E6E6E6"/>
<path d="M68.5292 216.828C69.8463 214.051 63.7433 208.399 54.8979 204.204C46.0524 200.009 37.8141 198.859 36.4971 201.636C35.1801 204.412 41.2831 210.064 50.1285 214.26C58.9739 218.455 67.2122 219.605 68.5292 216.828Z" fill="#2F2E41"/>
<path d="M75.0302 238.471C75.0302 241.941 83.9644 248.793 93.8782 248.793C103.792 248.793 113.087 239.024 113.087 235.554C113.087 232.085 103.792 236.228 93.8782 236.228C83.9645 236.228 75.0302 235.002 75.0302 238.471Z" fill="white"/>
<path d="M360.085 255.492C379.664 255.492 395.537 239.62 395.537 220.04C395.537 200.46 379.664 184.588 360.085 184.588C340.505 184.588 324.632 200.46 324.632 220.04C324.632 239.62 340.505 255.492 360.085 255.492Z" fill="#2F2E41"/>
<path d="M354.7 247.863H343.929V267.16H354.7V247.863Z" fill="#2F2E41"/>
<path d="M376.24 247.863H365.47V267.16H376.24V247.863Z" fill="#2F2E41"/>
<path d="M360.259 273.552C361.025 271.859 357.985 268.83 353.468 266.787C348.952 264.745 344.669 264.462 343.904 266.155C343.138 267.849 346.178 270.878 350.694 272.921C355.211 274.963 359.493 275.246 360.259 273.552Z" fill="#2F2E41"/>
<path d="M380.873 272.502C381.685 270.83 378.728 267.719 374.269 265.554C369.81 263.389 365.537 262.99 364.725 264.662C363.913 266.334 366.87 269.445 371.329 271.61C375.788 273.775 380.061 274.174 380.873 272.502Z" fill="#2F2E41"/>
<path d="M325.695 187.071C322.832 174.251 331.983 161.296 346.133 158.137C360.284 154.977 374.076 162.808 376.938 175.628C379.801 188.448 370.423 193.177 356.272 196.336C342.122 199.496 328.557 199.891 325.695 187.071Z" fill="#004AAD"/>
<path d="M398.288 204.548C405.966 196.864 410.234 188.681 407.822 186.271C405.41 183.861 397.231 188.136 389.553 195.82C381.875 203.503 377.606 211.686 380.019 214.096C382.431 216.507 390.61 212.232 398.288 204.548Z" fill="#2F2E41"/>
<path d="M330.983 234.695C333.77 224.196 333.357 214.976 330.061 214.101C326.765 213.227 321.834 221.029 319.048 231.527C316.262 242.026 316.675 251.246 319.971 252.121C323.267 252.996 328.197 245.194 330.983 234.695Z" fill="#2F2E41"/>
</g>
<defs>
<clipPath id="clip0_637_906">
<rect width="680" height="275.774" fill="white" transform="translate(0 0.61792)"/>
</clipPath>
</defs>
</svg>
