<svg width="166" height="166" viewBox="0 0 166 166" fill="none" xmlns="http://www.w3.org/2000/svg">
<g filter="url(#filter0_d_1221_888)">
<rect x="38" y="30" width="90" height="90" rx="6" fill="#0064E9"/>
</g>
<path d="M108.184 84.7963C105.643 82.235 101.508 82.235 98.9665 84.7963C98.742 85.0225 98.5447 85.2647 98.3601 85.5135L94.3916 81.5135L94.0685 78.9098H107.213C107.727 78.9098 108.145 78.4895 108.145 77.9712V47.9386C108.145 47.4207 107.728 47 107.213 47H56.9322C56.4184 47 56.0015 47.4207 56.0015 47.9386V77.9712C56.0015 78.4891 56.4184 78.9098 56.9327 78.9098L82.2708 78.9093L86.7291 84.6867V90.2466C86.4235 90.2024 86.1145 90.1714 85.7979 90.1714C82.2038 90.1714 79.28 93.1185 79.28 96.7411C79.28 100.364 82.2038 103.311 85.7979 103.311C89.392 103.311 92.3158 100.364 92.3158 96.7411V88.2947H93.2199L98.9657 94.0862C100.237 95.3672 101.905 96.0075 103.575 96.0075C105.244 96.0075 106.913 95.3676 108.184 94.0862C110.725 91.5249 110.725 87.357 108.184 84.7957L108.184 84.7963ZM87.931 65.8172C88.3501 64.9511 88.5912 63.9824 88.5912 62.9555C88.5912 59.3328 85.6674 56.3858 82.0733 56.3858C78.4792 56.3858 75.5554 59.3328 75.5554 62.9555C75.5554 66.5781 78.4787 69.5251 82.0728 69.5251C83.8958 69.5251 85.5443 68.7651 86.7283 67.545V73.2794L66.0536 73.279C65.0702 71.3382 63.5133 69.769 61.5887 68.7787V57.1313C63.5142 56.1406 65.0703 54.5723 66.0536 52.6315H98.0944C99.076 54.5688 100.633 56.1371 102.558 57.1287V68.7818C100.632 69.7738 99.0751 71.3422 98.0944 73.279H93.3709L93.2398 72.2242C93.2183 72.0457 93.1446 71.8777 93.0311 71.7399L88.3756 66.1088C88.2572 65.9652 88.1007 65.8684 87.9315 65.8167L87.931 65.8172ZM84.6301 78.9104H86.7288V81.6302L84.6301 78.9104ZM85.7976 101.435C83.2307 101.435 81.1421 99.3297 81.1421 96.7424C81.1421 94.1546 83.2302 92.0495 85.7976 92.0495C88.3645 92.0495 90.4531 94.1546 90.4531 96.7419C90.4531 99.3297 88.3645 101.435 85.7976 101.435ZM91.3843 86.4185C90.8705 86.4185 90.4531 86.8388 90.4531 87.3571V92.1531C89.9187 91.602 89.2882 91.1508 88.5907 90.8159V69.3017L91.4251 72.73L93.1226 86.4182L91.3843 86.4185ZM95.078 87.5149C95.0938 87.4247 95.1135 87.3337 95.1021 87.2409L94.768 84.5475L97.4423 87.243C97.1845 87.977 97.0561 88.7464 97.0644 89.5162L95.078 87.5149ZM106.866 92.7602C105.051 94.5892 102.097 94.5892 100.282 92.7602C98.4672 90.9298 98.4672 87.9532 100.282 86.1238C101.19 85.209 102.382 84.7517 103.574 84.7517C104.766 84.7517 105.959 85.2095 106.867 86.1238C108.682 87.9541 108.682 90.9311 106.866 92.7602Z" fill="white"/>
<path d="M101.6 87.4512C100.511 88.5485 100.511 90.3355 101.6 91.4336C102.127 91.9648 102.829 92.2577 103.575 92.2577C104.321 92.2577 105.023 91.9648 105.551 91.4336C106.64 90.3364 106.64 88.5493 105.551 87.4512C104.495 86.3867 102.655 86.3867 101.6 87.4512Z" fill="white"/>
<path d="M95.1086 65.7708C96.6488 65.7708 97.9022 64.5074 97.9022 62.955C97.9022 61.4025 96.6488 60.1392 95.1086 60.1392C93.5684 60.1392 92.3149 61.4025 92.3149 62.955C92.3154 64.5078 93.5688 65.7708 95.1086 65.7708Z" fill="white"/>
<path d="M69.0373 60.1392C67.4971 60.1392 66.2437 61.4025 66.2437 62.955C66.2437 64.5074 67.4971 65.7708 69.0373 65.7708C70.5775 65.7708 71.8309 64.5074 71.8309 62.955C71.8305 61.4025 70.577 60.1392 69.0373 60.1392Z" fill="white"/>
<path d="M85.7973 93.9263C84.2571 93.9263 83.0037 95.1897 83.0037 96.7421C83.0037 98.2945 84.2571 99.5579 85.7973 99.5579C87.3375 99.5579 88.5909 98.2945 88.5909 96.7421C88.5905 95.1897 87.3375 93.9263 85.7973 93.9263Z" fill="white"/>
<path d="M73.6929 93.9263H70.8993V86.4181C70.8993 85.9002 70.4823 85.4795 69.9681 85.4795H60.6565C60.1427 85.4795 59.7253 85.8997 59.7253 86.4181V93.9263H56.9317C56.5454 93.9263 56.1991 94.1667 56.061 94.5317C55.9233 94.8968 56.0237 95.3077 56.3122 95.5671L64.6925 103.075C64.8701 103.233 65.0919 103.312 65.3125 103.312C65.533 103.312 65.7548 103.233 65.9315 103.075L74.3119 95.5671C74.6003 95.3082 74.7003 94.8959 74.5631 94.5317C74.4263 94.1676 74.0791 93.9263 73.6924 93.9263H73.6929Z" fill="#FFDC60"/>
<defs>
<filter id="filter0_d_1221_888" x="0" y="0" width="166" height="166" filterUnits="userSpaceOnUse" color-interpolation-filters="sRGB">
<feFlood flood-opacity="0" result="BackgroundImageFix"/>
<feColorMatrix in="SourceAlpha" type="matrix" values="0 0 0 0 0 0 0 0 0 0 0 0 0 0 0 0 0 0 127 0" result="hardAlpha"/>
<feMorphology radius="2" operator="erode" in="SourceAlpha" result="effect1_dropShadow_1221_888"/>
<feOffset dy="8"/>
<feGaussianBlur stdDeviation="20"/>
<feColorMatrix type="matrix" values="0 0 0 0 0.0235294 0 0 0 0 0.0470588 0 0 0 0 0.231373 0 0 0 0.08 0"/>
<feBlend mode="normal" in2="BackgroundImageFix" result="effect1_dropShadow_1221_888"/>
<feBlend mode="normal" in="SourceGraphic" in2="effect1_dropShadow_1221_888" result="shape"/>
</filter>
</defs>
</svg>
