<svg width="39" height="39" viewBox="0 0 39 39" fill="none" xmlns="http://www.w3.org/2000/svg">
<rect width="39" height="39" rx="19.5" fill="#EBF1F9"/>
<path d="M21.7309 21.3191C22.8609 19.7691 23.3609 17.7391 22.7109 15.5791C22.0309 13.3491 20.1409 11.5991 17.8609 11.1391C16.7992 10.9162 15.6988 10.9617 14.6591 11.2715C13.6195 11.5812 12.6735 12.1454 11.907 12.9129C11.1404 13.6805 10.5774 14.6272 10.269 15.6672C9.96066 16.7072 9.91661 17.8078 10.1409 18.8691C10.6009 21.1591 12.3509 23.0491 14.5809 23.7191C16.7409 24.3691 18.7709 23.8691 20.3209 22.7391L25.8809 28.2991C26.0679 28.4861 26.3214 28.5912 26.5859 28.5912C26.8503 28.5912 27.1039 28.4861 27.2909 28.2991C27.4779 28.1122 27.5829 27.8586 27.5829 27.5941C27.5829 27.3297 27.4779 27.0761 27.2909 26.8891L21.7309 21.3191ZM16.5009 22.0091C14.0109 22.0091 12.0009 19.9991 12.0009 17.5091C12.0009 15.0191 14.0109 13.0091 16.5009 13.0091C18.9909 13.0091 21.0009 15.0191 21.0009 17.5091C21.0009 19.9991 18.9909 22.0091 16.5009 22.0091Z" fill="#0064E9"/>
<path d="M17.291 16.4488L16.501 14.0088L15.711 16.4488H13.251L15.261 18.0388L14.491 20.5088L16.501 18.9788L18.511 20.5088L17.741 18.0388L19.751 16.4488H17.291Z" fill="#0064E9"/>
</svg>
