<svg width="65" height="65" viewBox="0 0 65 65" fill="none" xmlns="http://www.w3.org/2000/svg">
<circle cx="32.5" cy="32.5" r="32.5" fill="white"/>
<path d="M49.0211 36.6209C49.0211 34.7682 47.5053 33.2947 45.6526 33.2947C45.1051 33.2947 44.6 33.421 44.1368 33.6736C43.5473 32.621 42.4527 31.9895 41.2315 31.9895C40.684 31.9895 40.1788 32.1158 39.7157 32.3684C39.1262 31.3158 38.0316 30.6844 36.8103 30.6844C36.4314 30.6844 36.0526 30.7264 35.7157 30.8527V28.9157H38.2421C40.2631 28.9157 41.8632 27.2736 41.8632 25.2526V16.6631C41.8632 14.6421 40.2211 13 38.2421 13H18.6211C16.6001 13 15 14.6421 15 16.6631V25.2105C15 27.2314 16.6421 28.8736 18.6211 28.8736H28.979L28.9787 38.8946L27.5892 37.5051C26.4523 36.3682 24.6419 36.2 23.2944 37.084C22.4943 37.6314 21.9892 38.4734 21.8205 39.3998C21.6942 40.3262 21.9468 41.2945 22.5783 42.0525L28.6415 49.3789C30.5362 51.6948 33.3572 53 36.3047 53H40.094C42.4518 53 44.6834 52.0737 46.3678 50.3895C48.0518 48.7055 48.9782 46.4739 48.9782 44.1158L49.0211 36.6209ZM40.179 50.7262H36.3896C34.0738 50.7262 31.9266 49.7156 30.4527 47.9471L24.3895 40.6207C24.1789 40.3682 24.0946 40.0733 24.1369 39.7364C24.1789 39.3995 24.3475 39.1469 24.6001 38.9786C24.7684 38.8523 25.0212 38.7681 25.2315 38.7681C25.5264 38.7681 25.821 38.8943 26.0316 39.1049L28.4737 41.547C28.9369 42.0102 29.6527 42.1365 30.2841 41.8839C30.9156 41.6313 31.2947 41.0419 31.2947 40.3681V24.6207C31.2947 24.0313 31.7999 23.5261 32.3894 23.5261C32.6842 23.5261 32.9368 23.6524 33.1471 23.863C33.3577 24.0735 33.484 24.3261 33.484 24.6207V35.4418C33.484 36.0732 33.9892 36.5787 34.6209 36.5787C35.2524 36.5787 35.7578 36.0735 35.7578 35.4418V33.9679C35.7578 33.3785 36.263 32.8733 36.8525 32.8733C37.4419 32.8733 37.9471 33.3784 37.9471 33.9679L37.9474 36.789C37.9474 37.4204 38.4526 37.9259 39.0844 37.9259C39.7158 37.9259 40.2213 37.4207 40.2213 36.789V35.3152C40.2213 34.7257 40.7264 34.2205 41.3159 34.2205C41.9054 34.2205 42.4106 34.7257 42.4106 35.3152V38.1362C42.4106 38.7677 42.9158 39.2731 43.5475 39.2731C44.179 39.2731 44.6844 38.768 44.6844 38.1362V36.6624C44.6844 36.0729 45.1896 35.5677 45.7791 35.5677C46.3686 35.5677 46.8738 36.0729 46.8738 36.6624V44.1571C46.8738 45.9255 46.2 47.5676 44.9368 48.8308C43.5896 50.0523 41.9055 50.7261 40.1791 50.7261L40.179 50.7262ZM18.6211 26.3472C17.9896 26.3472 17.5264 25.842 17.5264 25.2103L17.5261 16.6629C17.5261 16.0314 18.0313 15.526 18.6208 15.526H38.1997C38.8312 15.526 39.2944 16.0312 39.2944 16.6629V25.2103C39.2944 25.8417 38.7892 26.3472 38.1997 26.3472H35.6733V24.6631C35.6733 23.7788 35.3364 22.9367 34.7049 22.3053C34.0735 21.6739 33.2311 21.337 32.3471 21.337C30.4944 21.337 29.0209 22.8528 29.0209 24.7055V26.3895L18.6209 26.3892L18.6211 26.3472Z" fill="#0064E9"/>
<path d="M25.9049 18.4735L23.5891 20.9576L22.789 20.0732C22.3678 19.6101 21.6521 19.5681 21.1889 20.0312C20.7257 20.4524 20.6837 21.1682 21.1469 21.6313L22.789 23.3997C22.9996 23.6523 23.2942 23.7786 23.6311 23.7786C23.9679 23.7786 24.2625 23.6523 24.4731 23.3997L27.631 20.0312C28.0522 19.5681 28.0522 18.8523 27.589 18.4312C27.1258 18.0103 26.3258 18.0103 25.9049 18.4735Z" fill="#FFDC60"/>
</svg>
