<svg width="56" height="56" viewBox="0 0 56 56" fill="none" xmlns="http://www.w3.org/2000/svg">
<rect width="56" height="56" fill="#004AAD"/>
<path opacity="0.4" d="M23.1104 21.96L32.1304 18.95C36.1804 17.6 38.3804 19.81 37.0404 23.86L34.0304 32.88C32.0104 38.95 28.6904 38.95 26.6704 32.88L25.7804 30.2L23.1004 29.31C17.0404 27.3 17.0404 23.99 23.1104 21.96Z" fill="white"/>
<path d="M28.12 27.6301L31.93 23.8101L28.12 27.6301Z" fill="white"/>
<path d="M28.1196 28.38C27.9296 28.38 27.7396 28.31 27.5896 28.16C27.2996 27.87 27.2996 27.39 27.5896 27.1L31.3896 23.28C31.6796 22.99 32.1596 22.99 32.4496 23.28C32.7396 23.57 32.7396 24.05 32.4496 24.34L28.6496 28.16C28.4996 28.3 28.3096 28.38 28.1196 28.38Z" fill="white"/>
</svg>
