<svg width="56" height="56" viewBox="0 0 56 56" fill="none" xmlns="http://www.w3.org/2000/svg">
<circle cx="28" cy="28" r="28" fill="#EBF1F9"/>
<path d="M43.6471 22.201C42.4539 22.6286 41.1554 22.9363 39.8179 23.0561C41.2065 22.3708 42.2464 21.2883 42.7425 20.0115C41.4394 20.6553 40.0119 21.1068 38.5233 21.3459C37.9011 20.7934 37.1486 20.3533 36.3127 20.0529C35.4768 19.7526 34.5754 19.5984 33.6646 19.6001C29.9796 19.6001 27.0161 22.0812 27.0161 25.1258C27.0161 25.5534 27.0785 25.9809 27.1799 26.3922C21.6622 26.1526 16.7411 23.963 13.4695 20.6107C12.8734 21.4564 12.561 22.4194 12.5648 23.3994C12.5648 25.3169 13.7385 27.0077 15.5284 28.002C14.4736 27.9675 13.4435 27.7267 12.5219 27.2992V27.3672C12.5219 30.0523 14.807 32.2775 17.8524 32.7892C17.2806 32.9126 16.6924 32.9757 16.1016 32.9771C15.6688 32.9771 15.2593 32.9415 14.846 32.8929C15.6883 35.0824 18.141 36.6728 21.0617 36.7246C18.7766 38.2113 15.9144 39.0858 12.8066 39.0858C12.249 39.0858 11.7342 39.0696 11.2 39.0178C14.148 40.5887 17.6458 41.4956 21.4126 41.4956C33.6412 41.4956 40.3326 33.0807 40.3326 25.7768C40.3326 25.5372 40.3326 25.2975 40.3131 25.0578C41.6077 24.2707 42.7425 23.2958 43.6471 22.201Z" fill="#004AAD"/>
</svg>
